<svg data-v-423bf9ae="" xmlns="http://www.w3.org/2000/svg" viewBox="0 0 537 90" class="iconLeftSlogan"><!----><!----><!----><g data-v-423bf9ae="" id="68061811-bad3-4ff1-9541-a6d071bed847" fill="white" transform="matrix(4.073319882187228,0,0,4.073319882187228,104.66394763292243,-18.370673600973333)"><path d="M13.15 18.47C11.61 18.47 10.69 15.25 9.76 12.90C9.33 11.83 8.00 11.55 7.66 11.48L7.67 11.46C10.54 11.37 12.55 10.06 12.55 7.21C12.55 5.55 11.14 4.66 8.50 4.66C8.20 4.66 3.20 4.57 2.88 4.55L2.84 4.98C3.11 4.97 3.71 4.96 4.07 4.96C4.47 4.96 4.60 5.11 4.60 5.49C4.60 5.69 4.57 5.94 4.51 6.27L3.21 14.18C3.09 14.90 2.62 15.22 2.19 15.22C1.84 15.22 1.51 14.99 1.46 14.58L1.31 14.62C1.44 15.65 2.01 16.00 3.08 16.00C4.59 16.00 5.11 13.77 5.37 12.63L5.65 11.42L5.75 11.03L6.35 8.41C6.48 7.84 7.04 5.80 7.14 4.98C7.79 5.00 8.29 5.00 8.44 5.00C9.71 5.00 10.40 5.67 10.40 6.90C10.40 9.57 9.25 11.09 7.39 11.09L6.25 11.05C6.10 11.04 6.05 11.15 6.02 11.27L6.00 11.44C6.22 11.44 6.51 11.49 6.71 11.83C9.53 17.52 11.40 19.24 13.43 19.24C15.35 19.24 16.14 18.42 16.14 17.81C16.14 17.23 15.26 17.05 14.90 17.05C14.64 18.06 14.12 18.47 13.15 18.47ZM20.95 9.30C20.79 9.30 20.26 9.38 19.95 10.10C19.61 9.48 18.92 9.15 17.84 9.15C15.22 9.15 13.47 10.83 13.47 13.33C13.47 14.93 14.69 16.00 16.51 16.00C18.25 16.00 19.06 14.96 19.56 13.92C19.56 15.25 20.33 16.00 21.16 16.00C21.74 16.00 22.35 15.63 22.75 14.85L23.35 13.67L23.24 13.60L22.76 14.51C22.55 14.92 22.15 15.16 21.80 15.16C21.46 15.16 21.17 14.93 21.17 14.43C21.17 14.33 21.18 14.23 21.21 14.11L21.52 12.91C21.68 12.33 22.23 10.04 22.30 9.30ZM19.74 10.31C19.76 10.35 19.77 10.42 19.77 10.49C19.77 10.60 19.76 10.71 19.75 10.77L19.63 12.56C19.62 12.65 19.58 13.00 19.52 13.15C19.12 14.19 18.40 15.53 17.11 15.53C16.11 15.53 15.58 14.98 15.58 13.97C15.58 11.30 16.71 9.52 18.40 9.52C18.87 9.52 19.45 9.75 19.74 10.31ZM25.67 5.47L25.65 5.61C25.79 5.61 25.88 5.61 25.88 5.90C25.88 6.09 25.84 6.41 25.75 6.95L24.25 15.56C24.25 15.57 24.24 15.65 24.24 15.65C24.24 15.79 24.71 15.86 25.17 15.86L25.83 15.86C25.87 15.86 25.96 15.83 25.96 15.78L26.91 11.79L28.66 10.34C28.96 10.10 29.35 9.86 29.63 9.86C29.87 9.86 30.04 10.02 30.04 10.49C30.04 10.79 29.97 11.25 29.78 11.87L29.55 12.60C29.42 13.07 29.35 13.51 29.35 13.91C29.35 15.17 29.99 16.03 30.95 16.03C31.50 16.03 32.22 15.72 32.68 14.85L33.31 13.60L33.20 13.53L32.69 14.51C32.40 15.07 31.91 15.37 31.53 15.37C31.23 15.37 31.00 15.18 31.00 14.79C31.00 14.61 31.05 14.38 31.17 14.11L31.67 12.91C31.96 12.20 32.09 11.57 32.09 11.05C32.09 9.88 31.43 9.20 30.50 9.20C29.89 9.20 29.17 9.48 28.44 10.08L27.04 11.24L27.85 7.78C27.94 7.29 28.08 6.81 28.08 6.41C28.08 5.85 27.80 5.47 26.74 5.47ZM35.69 9.13C35.14 9.13 34.71 9.49 34.29 10.31L33.65 11.56L33.77 11.63L34.28 10.64C34.49 10.23 34.77 10.01 35 10.01C35.19 10.01 35.33 10.17 35.33 10.52C35.33 10.66 35.31 10.84 35.25 11.05L34.95 12.25C34.81 12.84 34.71 13.47 34.71 14.03C34.71 15.12 35.08 15.99 36.23 15.99C36.80 15.99 37.50 15.70 38.25 15.07L39.71 13.88C39.71 15.33 40.32 15.98 41.14 15.98C41.72 15.98 42.34 15.60 42.72 14.85L43.12 14.08L43.00 14.01L42.60 14.79C42.40 15.19 42.05 15.44 41.78 15.44C41.56 15.44 41.38 15.25 41.38 14.84C41.38 14.72 41.39 14.60 41.42 14.45L42.52 9.52L42.52 9.50C42.52 9.37 42.05 9.30 41.59 9.30L40.46 9.30C40.40 9.30 40.33 9.32 40.32 9.37L39.87 12.25C39.82 12.57 39.76 12.98 39.74 13.41L38.04 14.81C37.74 15.05 37.30 15.27 36.98 15.27C36.62 15.27 36.50 14.96 36.50 14.57C36.50 14.16 36.63 13.65 36.76 13.29L37.03 12.56C37.24 12.01 37.37 11.44 37.37 10.92C37.37 9.93 36.91 9.13 35.69 9.13ZM46.31 5.47L45.25 5.46L45.23 5.59C45.37 5.59 45.46 5.59 45.46 5.89C45.46 6.09 45.42 6.41 45.33 6.95L44.38 12.56C44.30 13.02 44.19 13.64 44.19 14.23C44.19 15.39 44.95 15.96 45.77 15.96C46.44 15.96 47.14 15.59 47.52 14.85L48.12 13.67L48.00 13.60L47.53 14.51C47.35 14.86 46.87 15.15 46.48 15.15C46.16 15.15 45.90 14.96 45.90 14.46C45.90 14.36 45.91 14.24 45.94 14.11L47.13 9.08C47.26 8.50 47.87 6.20 47.93 5.46ZM56.14 14.11C56.01 14.83 55.54 15.15 55.11 15.15C54.76 15.15 54.43 14.92 54.39 14.51L54.24 14.57C54.35 15.54 54.95 15.93 55.86 15.93C57.59 15.93 58.06 13.77 58.30 12.56L58.68 10.66L59.17 10.30C59.58 9.99 59.76 9.95 59.94 9.95C60.51 9.95 61.10 10.58 61.61 11.57C64.54 17.24 66.40 19.24 68.16 19.24C70.09 19.24 70.88 18.42 70.88 17.81C70.88 17.23 69.99 17.05 69.64 17.05C69.38 18.06 68.85 18.47 67.88 18.47C66.46 18.47 65.75 15.94 64.83 13.52C63.97 11.31 62.92 9.20 60.98 9.20C60.70 9.20 60.42 9.23 60.13 9.34C61.69 7.93 63.91 6.17 65.34 6.17C65.56 6.17 65.75 6.21 65.93 6.30C66.14 6.10 66.47 5.58 66.47 5.15C66.47 4.80 66.25 4.51 65.56 4.51C63.79 4.51 59.92 9.00 58.79 10.17L59.27 8.26C59.42 7.68 60.02 5.40 60.09 4.66C60.09 4.66 59.14 4.68 58.45 4.68C58.07 4.68 57.24 4.61 56.45 4.58L56.44 4.72C57.33 4.76 57.58 4.84 57.58 5.33C57.58 5.52 57.54 5.78 57.48 6.13ZM74.22 9.30C74.06 9.30 73.53 9.38 73.22 10.10C72.88 9.48 72.19 9.15 71.11 9.15C68.50 9.15 66.75 10.83 66.75 13.33C66.75 14.93 67.96 16.00 69.78 16.00C71.52 16.00 72.33 14.96 72.83 13.92C72.83 15.25 73.60 16.00 74.43 16.00C75.01 16.00 75.63 15.63 76.02 14.85L76.62 13.67L76.51 13.60L76.04 14.51C75.82 14.92 75.42 15.16 75.07 15.16C74.73 15.16 74.44 14.93 74.44 14.43C74.44 14.33 74.46 14.23 74.48 14.11L74.79 12.91C74.96 12.33 75.50 10.04 75.57 9.30ZM73.01 10.31C73.04 10.35 73.04 10.42 73.04 10.49C73.04 10.60 73.03 10.71 73.02 10.77L72.90 12.56C72.89 12.65 72.86 13.00 72.80 13.15C72.39 14.19 71.67 15.53 70.38 15.53C69.38 15.53 68.85 14.98 68.85 13.97C68.85 11.30 69.98 9.52 71.67 9.52C72.14 9.52 72.72 9.75 73.01 10.31ZM79.53 9.23C78.78 9.23 78.10 9.43 77.65 10.31L77.25 11.08L77.38 11.14L77.77 10.37C77.98 9.97 78.22 9.72 78.39 9.72C78.51 9.72 78.59 9.86 78.59 10.19C78.59 10.32 78.58 10.49 78.54 10.71L77.72 15.64C77.72 15.67 77.71 15.70 77.71 15.71C77.71 15.83 78.12 15.87 78.58 15.87L79.47 15.86C79.47 15.86 79.60 15.83 79.61 15.78L80.34 12.91C80.79 11.11 81.93 9.54 82.80 9.54C83.36 9.54 83.72 10.01 83.80 10.90C83.87 10.93 83.94 10.94 84.02 10.94C84.52 10.94 85.18 10.47 85.18 9.82C85.18 9.13 84.62 8.66 83.79 8.66C82.74 8.66 81.38 9.69 80.77 10.91C80.77 10.79 80.78 10.72 80.78 10.61C80.78 9.84 80.50 9.23 79.53 9.23ZM92.33 5.47L92.31 5.61L92.32 5.61C92.46 5.61 92.54 5.61 92.54 5.89C92.54 6.09 92.50 6.41 92.42 6.95L91.84 10.36C91.56 9.58 90.84 9.15 89.63 9.15C87.29 9.15 85.26 10.78 85.26 13.33C85.26 14.96 86.40 16.00 88.29 16.00C90.06 16.00 90.86 14.94 91.36 13.88C91.36 15.23 92.13 15.99 92.99 15.99C93.58 15.99 94.21 15.63 94.60 14.85L95.20 13.67L95.09 13.60L94.62 14.51C94.40 14.92 94.00 15.16 93.65 15.16C93.31 15.16 93.02 14.93 93.02 14.43C93.02 14.33 93.03 14.23 93.06 14.11L94.51 7.78C94.62 7.29 94.77 6.82 94.77 6.43C94.77 5.87 94.47 5.47 93.40 5.47ZM91.71 11.16L91.47 12.56C91.44 12.76 91.38 12.94 91.31 13.09C90.91 14.14 90.18 15.53 88.89 15.53C87.83 15.53 87.36 15.09 87.36 13.97C87.36 11.55 88.52 9.52 90.18 9.52C90.84 9.52 91.71 9.97 91.71 11.16ZM103.54 9.30C103.38 9.30 102.85 9.38 102.54 10.10C102.20 9.48 101.51 9.15 100.43 9.15C97.82 9.15 96.07 10.83 96.07 13.33C96.07 14.93 97.28 16.00 99.10 16.00C100.84 16.00 101.65 14.96 102.15 13.92C102.15 15.25 102.92 16.00 103.75 16.00C104.33 16.00 104.95 15.63 105.34 14.85L105.94 13.67L105.83 13.60L105.36 14.51C105.14 14.92 104.74 15.16 104.39 15.16C104.05 15.16 103.76 14.93 103.76 14.43C103.76 14.33 103.78 14.23 103.80 14.11L104.11 12.91C104.28 12.33 104.82 10.04 104.89 9.30ZM102.33 10.31C102.35 10.35 102.36 10.42 102.36 10.49C102.36 10.60 102.35 10.71 102.34 10.77L102.22 12.56C102.21 12.65 102.18 13.00 102.12 13.15C101.71 14.19 100.99 15.53 99.70 15.53C98.70 15.53 98.17 14.98 98.17 13.97C98.17 11.30 99.30 9.52 100.99 9.52C101.46 9.52 102.04 9.75 102.33 10.31Z"></path></g><!----><g data-v-423bf9ae="" id="e1ccb962-a7e6-4074-9e8e-26aac879e3e8" transform="matrix(2.8125,0,0,2.8125,0,0)" stroke="none" fill="white"><path d="M4.029 14.362L14.362 4.028l.707.707L4.736 15.07zM17.135 27.47L27.47 17.135l.707.707-10.333 10.333zM4.029 17.841l.707-.707 10.333 10.334-.707.707zM17.135 4.735l.708-.707L28.176 14.36l-.707.707z"></path><g><path d="M16 1.414l1.683 1.683L16 4.779l-1.683-1.683L16 1.414M16 0l-3.097 3.097L16 6.194l3.097-3.097L16 0zM16 27.221l1.683 1.683L16 30.586l-1.683-1.683L16 27.221m0-1.415l-3.097 3.097L16 32l3.097-3.097L16 25.806zM3.097 14.317L4.779 16l-1.683 1.683L1.414 16l1.683-1.683m0-1.414L0 16l3.097 3.097L6.194 16l-3.097-3.097zM28.903 14.317L30.586 16l-1.683 1.683L27.221 16l1.682-1.683m0-1.414L25.806 16l3.097 3.097L32 16l-3.097-3.097z"></path></g></g><!----><g data-v-423bf9ae="" id="e9b24e07-3a11-46da-b43f-1d2271ad586e" fill="white" transform="matrix(0.637105092970238,0,0,0.637105092970238,109.6049944037565,57.89755419784291)"><path d="M0.62 8.90L0.62 8.90L0.62 8.90Q0.62 7.38 1.20 6.16L1.20 6.16L1.20 6.16Q1.79 4.94 3.02 4.19L3.02 4.19L3.02 4.19Q4.24 3.44 5.92 3.44L5.92 3.44L5.92 3.44Q6.78 3.44 7.64 3.70L7.64 3.70L7.64 3.70Q8.51 3.95 9.03 4.20L9.03 4.20L9.55 4.47L9.55 4.47Q9.59 4.47 9.69 4.40L9.69 4.40L9.69 4.40Q9.79 4.33 9.84 4.33L9.84 4.33L9.84 4.33Q9.91 4.33 9.98 4.38L9.98 4.38L9.98 4.38Q10.05 4.44 10.05 4.55L10.05 4.55L10.05 4.55Q10.07 4.96 10.12 5.41L10.12 5.41L10.12 5.41Q10.16 5.87 10.21 6.16L10.21 6.16L10.21 6.16Q10.25 6.45 10.25 6.51L10.25 6.51L10.25 6.51Q10.25 6.76 10.08 6.76L10.08 6.76L10.08 6.76Q9.95 6.76 9.84 6.57L9.84 6.57L9.84 6.57Q8.48 4.02 5.92 4.02L5.92 4.02L5.92 4.02Q4.17 4.02 3.05 5.14L3.05 5.14L3.05 5.14Q1.93 6.26 1.93 8.06L1.93 8.06L1.93 8.06Q1.93 9.06 2.19 9.93L2.19 9.93L2.19 9.93Q2.45 10.79 2.98 11.51L2.98 11.51L2.98 11.51Q3.50 12.24 4.42 12.66L4.42 12.66L4.42 12.66Q5.35 13.08 6.58 13.08L6.58 13.08L6.58 13.08Q8.60 13.08 9.97 10.98L9.97 10.98L9.97 10.98Q10.02 10.88 10.18 10.88L10.18 10.88L10.18 10.88Q10.30 10.88 10.30 11.07L10.30 11.07L10.30 11.07Q10.30 11.23 10.26 11.49L10.26 11.49L10.26 11.49Q10.21 11.75 10.14 12.06L10.14 12.06L10.14 12.06Q10.07 12.38 10.05 12.45L10.05 12.45L10.05 12.45Q10.02 12.60 9.83 12.70L9.83 12.70L9.83 12.70Q9.07 13.06 8.64 13.24L8.64 13.24L8.64 13.24Q8.22 13.43 7.56 13.57L7.56 13.57L7.56 13.57Q6.90 13.72 6.22 13.72L6.22 13.72L6.22 13.72Q5.00 13.72 4.02 13.43L4.02 13.43L4.02 13.43Q3.04 13.13 2.42 12.66L2.42 12.66L2.42 12.66Q1.79 12.18 1.37 11.54L1.37 11.54L1.37 11.54Q0.95 10.91 0.78 10.25L0.78 10.25L0.78 10.25Q0.62 9.60 0.62 8.90ZM18.58 3.65L18.58 3.65L18.58 3.65Q18.58 3.50 18.97 3.50L18.97 3.50L18.97 3.50Q19.11 3.50 19.61 3.53L19.61 3.53L19.61 3.53Q20.12 3.56 20.55 3.56L20.55 3.56L20.55 3.56Q20.82 3.56 21.06 3.54L21.06 3.54L21.06 3.54Q21.31 3.53 21.78 3.53L21.78 3.53L21.78 3.53Q22.09 3.53 22.09 3.72L22.09 3.72L22.09 3.72Q22.09 3.96 21.60 3.96L21.60 3.96L21.60 3.96Q21.32 3.96 21.20 4.54L21.20 4.54L21.20 4.54Q21.07 5.11 21.07 5.71L21.07 5.71L21.07 6.23L21.07 6.23Q21.07 6.57 21.06 6.99L21.06 6.99L21.06 6.99Q21.04 7.42 21.04 7.52L21.04 7.52L21.04 7.52Q21.04 7.87 21.13 7.97L21.13 7.97L21.13 7.97Q21.21 8.06 21.52 8.06L21.52 8.06L21.52 8.06Q21.55 8.06 22.06 8.06L22.06 8.06L22.06 8.06Q22.58 8.05 23.81 8.05L23.81 8.05L23.81 8.05Q23.93 8.05 24.19 8.06L24.19 8.06L24.19 8.06Q24.46 8.06 25.07 8.07L25.07 8.07L25.07 8.07Q25.68 8.08 26.46 8.08L26.46 8.08L26.46 8.08Q26.56 8.08 26.59 7.84L26.59 7.84L26.59 7.84Q26.61 7.56 26.61 6.13L26.61 6.13L26.61 5.38L26.61 5.38Q26.61 4.83 26.50 4.51L26.50 4.51L26.50 4.51Q26.38 4.19 26.20 4.09L26.20 4.09L26.20 4.09Q26.03 3.99 25.85 3.96L25.85 3.96L25.85 3.96Q25.68 3.93 25.56 3.88L25.56 3.88L25.56 3.88Q25.44 3.84 25.44 3.70L25.44 3.70L25.44 3.70Q25.44 3.56 25.98 3.56L25.98 3.56L25.98 3.56Q26.12 3.56 26.59 3.57L26.59 3.57L26.59 3.57Q27.05 3.58 27.34 3.58L27.34 3.58L27.34 3.58Q27.48 3.58 27.82 3.57L27.82 3.57L27.82 3.57Q28.15 3.56 28.43 3.56L28.43 3.56L28.43 3.56Q28.76 3.56 28.76 3.74L28.76 3.74L28.76 3.74Q28.76 3.92 28.56 3.92L28.56 3.92L28.56 3.92Q28.17 3.92 27.97 4.16L27.97 4.16L27.97 4.16Q27.76 4.40 27.76 4.79L27.76 4.79L27.76 4.79Q27.76 5.25 27.74 6.42L27.74 6.42L27.74 6.42Q27.72 7.59 27.72 8.19L27.72 8.19L27.72 8.19Q27.72 8.51 27.71 9.20L27.71 9.20L27.71 9.20Q27.69 9.90 27.69 10.29L27.69 10.29L27.69 10.81L27.69 10.81Q27.69 11.23 27.72 11.58L27.72 11.58L27.72 11.58Q27.75 11.94 27.75 12.10L27.75 12.10L27.75 12.10Q27.75 13.01 28.92 13.13L28.92 13.13L28.92 13.13Q29.09 13.13 29.09 13.29L29.09 13.29L29.09 13.29Q29.09 13.38 28.95 13.41L28.95 13.41L28.95 13.41Q28.81 13.44 28.41 13.44L28.41 13.44L28.41 13.44Q28.25 13.44 27.90 13.40L27.90 13.40L27.90 13.40Q27.54 13.37 27.33 13.37L27.33 13.37L27.33 13.37Q27.08 13.37 26.72 13.40L26.72 13.40L26.72 13.40Q26.36 13.44 26.01 13.44L26.01 13.44L26.01 13.44Q25.84 13.44 25.77 13.44L25.77 13.44L25.77 13.44Q25.70 13.44 25.63 13.42L25.63 13.42L25.63 13.42Q25.55 13.40 25.53 13.36L25.53 13.36L25.53 13.36Q25.51 13.33 25.51 13.26L25.51 13.26L25.51 13.26Q25.51 13.17 25.65 13.10L25.65 13.10L25.65 13.10Q25.79 13.03 25.96 12.99L25.96 12.99L25.96 12.99Q26.12 12.95 26.29 12.83L26.29 12.83L26.29 12.83Q26.45 12.71 26.47 12.53L26.47 12.53L26.47 12.53Q26.57 12.03 26.57 11.51L26.57 11.51L26.57 11.51Q26.57 11.37 26.58 11.12L26.58 11.12L26.58 11.12Q26.59 10.86 26.59 10.75L26.59 10.75L26.59 10.75Q26.59 10.50 26.60 9.93L26.60 9.93L26.60 9.93Q26.61 9.35 26.61 9.03L26.61 9.03L26.61 9.03Q26.61 8.82 26.45 8.74L26.45 8.74L26.45 8.74Q26.28 8.65 25.73 8.65L25.73 8.65L25.73 8.65Q25.52 8.65 24.77 8.68L24.77 8.68L24.01 8.69L24.01 8.69Q23.39 8.69 22.62 8.67L22.62 8.67L22.62 8.67Q21.85 8.65 21.43 8.65L21.43 8.65L21.43 8.65Q21.22 8.65 21.15 8.74L21.15 8.74L21.15 8.74Q21.08 8.82 21.08 9.17L21.08 9.17L21.08 9.17Q21.08 9.52 21.06 10.08L21.06 10.08L21.06 10.08Q21.03 10.64 21.03 10.89L21.03 10.89L21.03 11.49L21.03 11.49Q21.03 12.10 21.14 12.39L21.14 12.39L21.14 12.39Q21.25 12.68 21.69 12.96L21.69 12.96L21.69 12.96Q21.80 13.03 22.29 13.03L22.29 13.03L22.29 13.03Q22.39 13.03 22.47 13.08L22.47 13.08L22.47 13.08Q22.55 13.13 22.55 13.19L22.55 13.19L22.55 13.19Q22.55 13.44 22.11 13.44L22.11 13.44L22.11 13.44Q21.69 13.44 21.41 13.41L21.41 13.41L21.41 13.41Q21.14 13.38 20.94 13.38L20.94 13.38L20.94 13.38Q20.55 13.38 20.10 13.42L20.10 13.42L20.10 13.42Q19.66 13.45 19.43 13.45L19.43 13.45L19.43 13.45Q18.77 13.45 18.77 13.24L18.77 13.24L18.77 13.24Q18.77 13.12 18.91 13.07L18.91 13.07L18.91 13.07Q19.04 13.02 19.21 13.00L19.21 13.00L19.21 13.00Q19.38 12.98 19.56 12.82L19.56 12.82L19.56 12.82Q19.74 12.66 19.81 12.35L19.81 12.35L19.81 12.35Q19.85 12.11 19.92 10.91L19.92 10.91L19.92 10.91Q19.99 9.70 19.99 8.61L19.99 8.61L19.99 7.81L19.99 7.81Q19.99 7.63 20.00 7.12L20.00 7.12L20.00 7.12Q20.01 6.61 20.01 6.30L20.01 6.30L20.01 6.30Q20.01 5.24 19.92 4.63L19.92 4.63L19.92 4.63Q19.88 4.28 19.55 4.09L19.55 4.09L19.55 4.09Q19.22 3.89 18.87 3.89L18.87 3.89L18.87 3.89Q18.73 3.89 18.66 3.80L18.66 3.80L18.66 3.80Q18.58 3.71 18.58 3.65ZM36.65 13.33L36.65 13.33L36.65 13.33Q36.65 13.13 36.86 13.06L36.86 13.06L36.86 13.06Q37.31 12.89 37.65 12.31L37.65 12.31L37.65 12.31Q37.98 11.73 39.31 8.83L39.31 8.83L39.31 8.83Q40.68 5.87 41.73 3.63L41.73 3.63L41.73 3.63Q41.83 3.42 41.91 3.36L41.91 3.36L41.91 3.36Q41.99 3.30 42.15 3.30L42.15 3.30L42.15 3.30Q42.28 3.30 42.32 3.36L42.32 3.36L42.32 3.36Q42.36 3.42 42.50 3.82L42.50 3.82L42.50 3.82Q42.59 4.06 42.65 4.23L42.65 4.23L42.65 4.23Q42.71 4.40 42.85 4.77L42.85 4.77L42.85 4.77Q42.99 5.15 43.16 5.56L43.16 5.56L43.16 5.56Q43.61 6.66 44.71 9.22L44.71 9.22L44.71 9.22Q45.81 11.77 45.91 11.98L45.91 11.98L45.91 11.98Q46.14 12.46 46.44 12.71L46.44 12.71L46.44 12.71Q46.73 12.95 46.95 12.97L46.95 12.97L46.95 12.97Q47.17 12.99 47.31 13.04L47.31 13.04L47.31 13.04Q47.46 13.09 47.46 13.26L47.46 13.26L47.46 13.26Q47.46 13.47 47.08 13.47L47.08 13.47L47.08 13.47Q46.93 13.47 46.48 13.43L46.48 13.43L46.48 13.43Q46.03 13.38 45.82 13.38L45.82 13.38L45.82 13.38Q45.56 13.38 45.14 13.41L45.14 13.41L45.14 13.41Q44.72 13.44 44.52 13.44L44.52 13.44L44.52 13.44Q44.09 13.44 43.97 13.40L43.97 13.40L43.97 13.40Q43.85 13.37 43.85 13.24L43.85 13.24L43.85 13.24Q43.85 13.15 43.96 13.08L43.96 13.08L43.96 13.08Q44.07 13.02 44.20 13.00L44.20 13.00L44.20 13.00Q44.32 12.98 44.44 12.87L44.44 12.87L44.44 12.87Q44.55 12.77 44.55 12.59L44.55 12.59L44.55 12.59Q44.55 12.28 44.20 11.33L44.20 11.33L44.20 11.33Q43.85 10.37 43.61 9.93L43.61 9.93L43.61 9.93Q43.48 9.69 43.04 9.69L43.04 9.69L43.04 9.69Q42.97 9.69 42.42 9.70L42.42 9.70L42.42 9.70Q41.87 9.72 41.34 9.72L41.34 9.72L40.60 9.72L40.60 9.72Q39.97 9.72 39.81 9.79L39.81 9.79L39.81 9.79Q39.65 9.86 39.52 10.12L39.52 10.12L39.52 10.12Q39.44 10.30 39.24 10.70L39.24 10.70L39.24 10.70Q39.05 11.10 38.98 11.26L38.98 11.26L38.98 11.26Q38.91 11.41 38.80 11.65L38.80 11.65L38.80 11.65Q38.70 11.90 38.66 12.05L38.66 12.05L38.66 12.05Q38.63 12.19 38.63 12.31L38.63 12.31L38.63 12.31Q38.63 12.63 38.79 12.80L38.79 12.80L38.79 12.80Q38.95 12.96 39.14 12.98L39.14 12.98L39.14 12.98Q39.34 13.01 39.50 13.06L39.50 13.06L39.50 13.06Q39.66 13.12 39.66 13.26L39.66 13.26L39.66 13.26Q39.66 13.36 39.62 13.40L39.62 13.40L39.62 13.40Q39.58 13.45 39.42 13.45L39.42 13.45L39.42 13.45Q39.34 13.45 38.94 13.45L38.94 13.45L38.94 13.45Q38.54 13.44 38.26 13.44L38.26 13.44L38.26 13.44Q37.95 13.44 37.57 13.47L37.57 13.47L37.57 13.47Q37.18 13.50 37.06 13.50L37.06 13.50L37.06 13.50Q36.65 13.50 36.65 13.33ZM40.17 8.71L40.17 8.71L40.17 8.71Q40.17 8.89 40.29 8.93L40.29 8.93L40.29 8.93Q40.42 8.97 40.88 8.97L40.88 8.97L41.31 8.97L42.64 8.96L42.64 8.96Q43.19 8.96 43.19 8.74L43.19 8.74L43.19 8.74Q43.19 8.55 42.50 7.01L42.50 7.01L42.50 7.01Q41.82 5.46 41.64 5.46L41.64 5.46L41.64 5.46Q41.51 5.46 40.84 7.01L40.84 7.01L40.84 7.01Q40.17 8.55 40.17 8.71ZM55.02 3.77L55.02 3.77L55.02 3.77Q55.02 3.68 55.12 3.60L55.12 3.60L55.12 3.60Q55.22 3.53 55.37 3.53L55.37 3.53L55.37 3.53Q55.45 3.53 55.65 3.54L55.65 3.54L55.65 3.54Q55.85 3.54 55.90 3.54L55.90 3.54L55.90 3.54Q56.11 3.54 56.29 3.53L56.29 3.53L56.29 3.53Q56.48 3.51 56.59 3.51L56.59 3.51L56.59 3.51Q56.71 3.51 56.88 3.59L56.88 3.59L56.88 3.59Q57.05 3.67 57.08 3.75L57.08 3.75L57.08 3.75Q57.11 3.79 57.23 3.94L57.23 3.94L57.23 3.94Q57.36 4.09 57.57 4.33L57.57 4.33L57.57 4.33Q57.78 4.56 57.95 4.79L57.95 4.79L57.95 4.79Q59.85 7.27 63.04 10.77L63.04 10.77L63.04 10.77Q63.13 10.86 63.25 10.99L63.25 10.99L63.25 10.99Q63.36 11.12 63.41 11.18L63.41 11.18L63.41 11.18Q63.46 11.24 63.52 11.30L63.52 11.30L63.52 11.30Q63.57 11.35 63.61 11.38L63.61 11.38L63.61 11.38Q63.64 11.40 63.67 11.40L63.67 11.40L63.67 11.40Q63.81 11.40 63.81 10.53L63.81 10.53L63.81 8.89L63.81 8.89Q63.81 7.95 63.80 7.31L63.80 7.31L63.80 7.31Q63.80 6.66 63.79 6.38L63.79 6.38L63.79 6.38Q63.78 6.09 63.78 6.02L63.78 6.02L63.78 5.92L63.78 5.92Q63.78 5.45 63.72 5.11L63.72 5.11L63.72 5.11Q63.66 4.77 63.57 4.59L63.57 4.59L63.57 4.59Q63.49 4.41 63.33 4.28L63.33 4.28L63.33 4.28Q63.17 4.16 63.06 4.12L63.06 4.12L63.06 4.12Q62.94 4.09 62.73 4.05L62.73 4.05L62.73 4.05Q62.52 4.00 62.44 3.98L62.44 3.98L62.44 3.98Q62.16 3.89 62.16 3.74L62.16 3.74L62.16 3.74Q62.16 3.53 62.43 3.53L62.43 3.53L62.43 3.53Q62.51 3.53 63.10 3.54L63.10 3.54L63.10 3.54Q63.69 3.54 63.76 3.54L63.76 3.54L63.76 3.54Q64.09 3.54 64.50 3.53L64.50 3.53L64.50 3.53Q64.92 3.51 65.02 3.51L65.02 3.51L65.02 3.51Q65.25 3.51 65.34 3.56L65.34 3.56L65.34 3.56Q65.44 3.61 65.44 3.75L65.44 3.75L65.44 3.75Q65.44 3.81 65.36 3.86L65.36 3.86L65.36 3.86Q65.28 3.91 65.20 3.94L65.20 3.94L65.20 3.94Q65.11 3.98 65.03 4.00L65.03 4.00L64.95 4.03L64.95 4.03Q64.48 4.28 64.48 5.61L64.48 5.61L64.48 6.15L64.48 6.15Q64.48 7.21 64.41 9.83L64.41 9.83L64.41 9.83Q64.33 12.46 64.33 13.08L64.33 13.08L64.33 13.36L64.33 13.36Q64.33 13.68 64.13 13.68L64.13 13.68L64.13 13.68Q64.01 13.68 63.91 13.58L63.91 13.58L63.91 13.58Q59.26 8.19 58.36 7.17L58.36 7.17L58.36 7.17Q57.46 6.16 57.36 6.16L57.36 6.16L57.36 6.16Q57.22 6.16 57.22 7.11L57.22 7.11L57.22 7.11Q57.22 8.44 57.16 9.97L57.16 9.97L57.16 9.97Q57.11 11.51 57.11 11.65L57.11 11.65L57.11 11.65Q57.11 12.28 57.32 12.61L57.32 12.61L57.32 12.61Q57.54 12.94 57.79 12.98L57.79 12.98L57.79 12.98Q58.04 13.02 58.26 13.07L58.26 13.07L58.26 13.07Q58.48 13.12 58.48 13.26L58.48 13.26L58.48 13.26Q58.48 13.41 58.43 13.45L58.43 13.45L58.43 13.45Q58.38 13.50 58.25 13.50L58.25 13.50L58.25 13.50Q58.16 13.50 57.81 13.48L57.81 13.48L57.81 13.48Q57.47 13.47 56.76 13.47L56.76 13.47L56.76 13.47Q56.63 13.47 56.24 13.48L56.24 13.48L56.24 13.48Q55.85 13.50 55.57 13.50L55.57 13.50L55.57 13.50Q55.26 13.50 55.26 13.27L55.26 13.27L55.26 13.27Q55.26 13.15 55.44 13.11L55.44 13.11L55.44 13.11Q55.62 13.08 55.89 12.89L55.89 12.89L55.89 12.89Q56.15 12.71 56.29 12.21L56.29 12.21L56.29 12.21Q56.38 11.89 56.50 9.60L56.50 9.60L56.50 9.60Q56.63 7.32 56.63 6.45L56.63 6.45L56.63 6.45Q56.63 5.25 56.29 4.65L56.29 4.65L56.29 4.65Q55.96 4.06 55.20 3.98L55.20 3.98L55.20 3.98Q55.02 3.96 55.02 3.77ZM73.53 8.83L73.53 8.83L73.53 8.83Q73.53 7.31 74.14 6.09L74.14 6.09L74.14 6.09Q74.75 4.87 76.01 4.12L76.01 4.12L76.01 4.12Q77.27 3.37 79.00 3.37L79.00 3.37L79.00 3.37Q79.67 3.37 80.26 3.48L80.26 3.48L80.26 3.48Q80.85 3.58 81.23 3.72L81.23 3.72L81.23 3.72Q81.61 3.86 81.89 4.01L81.89 4.01L81.89 4.01Q82.17 4.16 82.31 4.26L82.31 4.26L82.31 4.26Q82.46 4.37 82.49 4.37L82.49 4.37L82.49 4.37Q82.53 4.37 82.68 4.26L82.68 4.26L82.68 4.26Q82.82 4.16 82.88 4.16L82.88 4.16L82.88 4.16Q83.09 4.16 83.09 4.44L83.09 4.44L83.09 4.44Q83.10 4.84 83.15 5.29L83.15 5.29L83.15 5.29Q83.20 5.74 83.24 6.03L83.24 6.03L83.24 6.03Q83.29 6.33 83.29 6.38L83.29 6.38L83.29 6.38Q83.29 6.62 83.12 6.62L83.12 6.62L83.12 6.62Q82.95 6.62 82.88 6.45L82.88 6.45L82.88 6.45Q82.39 5.39 81.24 4.65L81.24 4.65L81.24 4.65Q80.09 3.92 78.88 3.92L78.88 3.92L78.88 3.92Q77.13 3.92 75.98 5.02L75.98 5.02L75.98 5.02Q74.84 6.12 74.84 8.06L74.84 8.06L74.84 8.06Q74.84 9.35 75.32 10.49L75.32 10.49L75.32 10.49Q75.80 11.62 76.77 12.36L76.77 12.36L76.77 12.36Q77.74 13.10 79.00 13.10L79.00 13.10L79.00 13.10Q80.08 13.10 80.96 12.61L80.96 12.61L80.96 12.61Q81.83 12.12 81.93 11.49L81.93 11.49L81.93 11.49Q81.97 11.16 81.97 9.73L81.97 9.73L81.97 9.73Q81.97 9.18 81.73 8.95L81.73 8.95L81.73 8.95Q81.56 8.78 81.12 8.72L81.12 8.72L81.12 8.72Q80.70 8.68 80.63 8.55L80.63 8.55L80.63 8.55Q80.60 8.50 80.60 8.41L80.60 8.41L80.60 8.41Q80.60 8.26 80.85 8.26L80.85 8.26L80.85 8.26Q81.03 8.26 81.63 8.29L81.63 8.29L81.63 8.29Q82.24 8.33 82.40 8.33L82.40 8.33L82.40 8.33Q82.68 8.33 83.01 8.32L83.01 8.32L83.01 8.32Q83.33 8.32 83.52 8.32L83.52 8.32L83.73 8.32L83.73 8.32Q83.96 8.32 83.96 8.44L83.96 8.44L83.96 8.44Q83.96 8.54 83.60 8.69L83.60 8.69L83.60 8.69Q83.24 8.85 83.20 9.09L83.20 9.09L83.20 9.09Q83.10 9.69 83.10 10.65L83.10 10.65L83.10 10.65Q83.10 11.07 83.12 11.40L83.12 11.40L83.12 11.40Q83.13 11.72 83.14 11.85L83.14 11.85L83.14 11.85Q83.15 11.98 83.16 12.08L83.16 12.08L83.16 12.08Q83.17 12.18 83.17 12.22L83.17 12.22L83.17 12.22Q83.17 12.29 83.07 12.33L83.07 12.33L83.07 12.33Q82.96 12.36 82.73 12.42L82.73 12.42L82.73 12.42Q82.49 12.49 82.29 12.60L82.29 12.60L82.19 12.66L82.19 12.66Q82.10 12.73 82.00 12.78L82.00 12.78L82.00 12.78Q81.90 12.84 81.74 12.92L81.74 12.92L81.74 12.92Q81.58 13.01 81.41 13.09L81.41 13.09L81.41 13.09Q81.24 13.17 81.03 13.26L81.03 13.26L81.03 13.26Q80.82 13.36 80.60 13.43L80.60 13.43L80.60 13.43Q80.37 13.50 80.14 13.55L80.14 13.55L80.14 13.55Q79.90 13.61 79.64 13.64L79.64 13.64L79.64 13.64Q79.38 13.68 79.13 13.68L79.13 13.68L79.13 13.68Q77.60 13.68 76.48 13.26L76.48 13.26L76.48 13.26Q75.35 12.85 74.73 12.14L74.73 12.14L74.73 12.14Q74.12 11.44 73.82 10.61L73.82 10.61L73.82 10.61Q73.53 9.79 73.53 8.83ZM91.64 3.71L91.64 3.71L91.64 3.71Q91.64 3.50 92.04 3.50L92.04 3.50L92.04 3.50Q92.18 3.50 92.68 3.53L92.68 3.53L92.68 3.53Q93.18 3.56 93.62 3.56L93.62 3.56L93.62 3.56Q93.88 3.56 94.13 3.54L94.13 3.54L94.13 3.54Q94.37 3.53 94.85 3.53L94.85 3.53L94.85 3.53Q95.23 3.53 95.23 3.72L95.23 3.72L95.23 3.72Q95.23 3.84 94.58 4.10L94.58 4.10L94.58 4.10Q94.14 4.28 94.14 5.71L94.14 5.71L94.14 5.71Q94.14 7.60 94.12 9.05L94.12 9.05L94.12 9.05Q94.09 10.50 94.09 10.89L94.09 10.89L94.09 10.89Q94.09 12.07 94.44 12.59L94.44 12.59L94.44 12.59Q94.75 13.02 95.12 13.02L95.12 13.02L95.12 13.02Q95.14 13.02 95.26 13.03L95.26 13.03L95.26 13.03Q95.37 13.03 95.40 13.03L95.40 13.03L95.40 13.03Q95.49 13.03 95.59 13.08L95.59 13.08L95.59 13.08Q95.69 13.13 95.69 13.19L95.69 13.19L95.69 13.19Q95.69 13.34 95.61 13.39L95.61 13.39L95.61 13.39Q95.54 13.44 95.34 13.44L95.34 13.44L95.34 13.44Q94.92 13.44 94.56 13.41L94.56 13.41L94.56 13.41Q94.21 13.38 94.01 13.38L94.01 13.38L94.01 13.38Q93.62 13.38 93.16 13.42L93.16 13.42L93.16 13.42Q92.69 13.45 92.47 13.45L92.47 13.45L92.47 13.45Q91.84 13.45 91.84 13.24L91.84 13.24L91.84 13.24Q91.84 13.12 91.97 13.07L91.97 13.07L91.97 13.07Q92.11 13.02 92.27 13.00L92.27 13.00L92.27 13.00Q92.44 12.98 92.62 12.82L92.62 12.82L92.62 12.82Q92.81 12.66 92.88 12.35L92.88 12.35L92.88 12.35Q92.90 12.25 92.97 10.76L92.97 10.76L92.97 10.76Q93.03 9.27 93.03 8.61L93.03 8.61L93.03 7.81L93.03 7.81Q93.03 7.63 93.04 7.12L93.04 7.12L93.04 7.12Q93.04 6.61 93.04 6.30L93.04 6.30L93.04 5.66L93.04 5.66Q93.04 5.04 92.99 4.63L92.99 4.63L92.99 4.63Q92.95 4.30 92.62 4.12L92.62 4.12L92.62 4.12Q92.29 3.93 91.94 3.92L91.94 3.92L91.94 3.92Q91.64 3.91 91.64 3.71ZM103.24 3.77L103.24 3.77L103.24 3.77Q103.24 3.68 103.33 3.60L103.33 3.60L103.33 3.60Q103.43 3.53 103.59 3.53L103.59 3.53L103.59 3.53Q103.67 3.53 103.87 3.54L103.87 3.54L103.87 3.54Q104.06 3.54 104.12 3.54L104.12 3.54L104.12 3.54Q104.33 3.54 104.51 3.53L104.51 3.53L104.51 3.53Q104.69 3.51 104.80 3.51L104.80 3.51L104.80 3.51Q104.93 3.51 105.10 3.59L105.10 3.59L105.10 3.59Q105.27 3.67 105.29 3.75L105.29 3.75L105.29 3.75Q105.32 3.79 105.45 3.94L105.45 3.94L105.45 3.94Q105.57 4.09 105.78 4.33L105.78 4.33L105.78 4.33Q105.99 4.56 106.16 4.79L106.16 4.79L106.16 4.79Q108.07 7.27 111.26 10.77L111.26 10.77L111.26 10.77Q111.34 10.86 111.46 10.99L111.46 10.99L111.46 10.99Q111.58 11.12 111.63 11.18L111.63 11.18L111.63 11.18Q111.68 11.24 111.73 11.30L111.73 11.30L111.73 11.30Q111.79 11.35 111.83 11.38L111.83 11.38L111.83 11.38Q111.86 11.40 111.89 11.40L111.89 11.40L111.89 11.40Q112.03 11.40 112.03 10.53L112.03 10.53L112.03 8.89L112.03 8.89Q112.03 7.95 112.02 7.31L112.02 7.31L112.02 7.31Q112.01 6.66 112.01 6.38L112.01 6.38L112.01 6.38Q112 6.09 112 6.02L112 6.02L112 5.92L112 5.92Q112 5.45 111.94 5.11L111.94 5.11L111.94 5.11Q111.87 4.77 111.79 4.59L111.79 4.59L111.79 4.59Q111.71 4.41 111.55 4.28L111.55 4.28L111.55 4.28Q111.38 4.16 111.27 4.12L111.27 4.12L111.27 4.12Q111.16 4.09 110.95 4.05L110.95 4.05L110.95 4.05Q110.74 4.00 110.66 3.98L110.66 3.98L110.66 3.98Q110.38 3.89 110.38 3.74L110.38 3.74L110.38 3.74Q110.38 3.53 110.64 3.53L110.64 3.53L110.64 3.53Q110.73 3.53 111.31 3.54L111.31 3.54L111.31 3.54Q111.90 3.54 111.97 3.54L111.97 3.54L111.97 3.54Q112.31 3.54 112.72 3.53L112.72 3.53L112.72 3.53Q113.13 3.51 113.23 3.51L113.23 3.51L113.23 3.51Q113.47 3.51 113.56 3.56L113.56 3.56L113.56 3.56Q113.65 3.61 113.65 3.75L113.65 3.75L113.65 3.75Q113.65 3.81 113.58 3.86L113.58 3.86L113.58 3.86Q113.50 3.91 113.41 3.94L113.41 3.94L113.41 3.94Q113.33 3.98 113.25 4.00L113.25 4.00L113.16 4.03L113.16 4.03Q112.70 4.28 112.70 5.61L112.70 5.61L112.70 6.15L112.70 6.15Q112.70 7.21 112.62 9.83L112.62 9.83L112.62 9.83Q112.55 12.46 112.55 13.08L112.55 13.08L112.55 13.36L112.55 13.36Q112.55 13.68 112.35 13.68L112.35 13.68L112.35 13.68Q112.22 13.68 112.13 13.58L112.13 13.58L112.13 13.58Q107.48 8.19 106.58 7.17L106.58 7.17L106.58 7.17Q105.67 6.16 105.57 6.16L105.57 6.16L105.57 6.16Q105.43 6.16 105.43 7.11L105.43 7.11L105.43 7.11Q105.43 8.44 105.38 9.97L105.38 9.97L105.38 9.97Q105.32 11.51 105.32 11.65L105.32 11.65L105.32 11.65Q105.32 12.28 105.54 12.61L105.54 12.61L105.54 12.61Q105.76 12.94 106.01 12.98L106.01 12.98L106.01 12.98Q106.26 13.02 106.48 13.07L106.48 13.07L106.48 13.07Q106.69 13.12 106.69 13.26L106.69 13.26L106.69 13.26Q106.69 13.41 106.65 13.45L106.65 13.45L106.65 13.45Q106.60 13.50 106.47 13.50L106.47 13.50L106.47 13.50Q106.37 13.50 106.03 13.48L106.03 13.48L106.03 13.48Q105.69 13.47 104.97 13.47L104.97 13.47L104.97 13.47Q104.85 13.47 104.45 13.48L104.45 13.48L104.45 13.48Q104.06 13.50 103.78 13.50L103.78 13.50L103.78 13.50Q103.47 13.50 103.47 13.27L103.47 13.27L103.47 13.27Q103.47 13.15 103.66 13.11L103.66 13.11L103.66 13.11Q103.84 13.08 104.10 12.89L104.10 12.89L104.10 12.89Q104.37 12.71 104.51 12.21L104.51 12.21L104.51 12.21Q104.59 11.89 104.72 9.60L104.72 9.60L104.72 9.60Q104.85 7.32 104.85 6.45L104.85 6.45L104.85 6.45Q104.85 5.25 104.51 4.65L104.51 4.65L104.51 4.65Q104.17 4.06 103.42 3.98L103.42 3.98L103.42 3.98Q103.24 3.96 103.24 3.77ZM121.74 8.83L121.74 8.83L121.74 8.83Q121.74 7.31 122.35 6.09L122.35 6.09L122.35 6.09Q122.96 4.87 124.22 4.12L124.22 4.12L124.22 4.12Q125.48 3.37 127.22 3.37L127.22 3.37L127.22 3.37Q127.89 3.37 128.48 3.48L128.48 3.48L128.48 3.48Q129.07 3.58 129.44 3.72L129.44 3.72L129.44 3.72Q129.82 3.86 130.10 4.01L130.10 4.01L130.10 4.01Q130.38 4.16 130.53 4.26L130.53 4.26L130.53 4.26Q130.68 4.37 130.70 4.37L130.70 4.37L130.70 4.37Q130.75 4.37 130.89 4.26L130.89 4.26L130.89 4.26Q131.04 4.16 131.10 4.16L131.10 4.16L131.10 4.16Q131.31 4.16 131.31 4.44L131.31 4.44L131.31 4.44Q131.32 4.84 131.37 5.29L131.37 5.29L131.37 5.29Q131.42 5.74 131.46 6.03L131.46 6.03L131.46 6.03Q131.50 6.33 131.50 6.38L131.50 6.38L131.50 6.38Q131.50 6.62 131.33 6.62L131.33 6.62L131.33 6.62Q131.17 6.62 131.10 6.45L131.10 6.45L131.10 6.45Q130.61 5.39 129.46 4.65L129.46 4.65L129.46 4.65Q128.31 3.92 127.09 3.92L127.09 3.92L127.09 3.92Q125.34 3.92 124.20 5.02L124.20 5.02L124.20 5.02Q123.06 6.12 123.06 8.06L123.06 8.06L123.06 8.06Q123.06 9.35 123.54 10.49L123.54 10.49L123.54 10.49Q124.01 11.62 124.98 12.36L124.98 12.36L124.98 12.36Q125.96 13.10 127.22 13.10L127.22 13.10L127.22 13.10Q128.30 13.10 129.17 12.61L129.17 12.61L129.17 12.61Q130.05 12.12 130.14 11.49L130.14 11.49L130.14 11.49Q130.19 11.16 130.19 9.73L130.19 9.73L130.19 9.73Q130.19 9.18 129.95 8.95L129.95 8.95L129.95 8.95Q129.78 8.78 129.33 8.72L129.33 8.72L129.33 8.72Q128.91 8.68 128.84 8.55L128.84 8.55L128.84 8.55Q128.81 8.50 128.81 8.41L128.81 8.41L128.81 8.41Q128.81 8.26 129.07 8.26L129.07 8.26L129.07 8.26Q129.25 8.26 129.85 8.29L129.85 8.29L129.85 8.29Q130.45 8.33 130.62 8.33L130.62 8.33L130.62 8.33Q130.90 8.33 131.22 8.32L131.22 8.32L131.22 8.32Q131.54 8.32 131.74 8.32L131.74 8.32L131.95 8.32L131.95 8.32Q132.17 8.32 132.17 8.44L132.17 8.44L132.17 8.44Q132.17 8.54 131.82 8.69L131.82 8.69L131.82 8.69Q131.46 8.85 131.42 9.09L131.42 9.09L131.42 9.09Q131.32 9.69 131.32 10.65L131.32 10.65L131.32 10.65Q131.32 11.07 131.33 11.40L131.33 11.40L131.33 11.40Q131.35 11.72 131.35 11.85L131.35 11.85L131.35 11.85Q131.36 11.98 131.38 12.08L131.38 12.08L131.38 12.08Q131.39 12.18 131.39 12.22L131.39 12.22L131.39 12.22Q131.39 12.29 131.28 12.33L131.28 12.33L131.28 12.33Q131.18 12.36 130.94 12.42L130.94 12.42L130.94 12.42Q130.70 12.49 130.51 12.60L130.51 12.60L130.41 12.66L130.41 12.66Q130.31 12.73 130.21 12.78L130.21 12.78L130.21 12.78Q130.12 12.84 129.96 12.92L129.96 12.92L129.96 12.92Q129.79 13.01 129.63 13.09L129.63 13.09L129.63 13.09Q129.46 13.17 129.25 13.26L129.25 13.26L129.25 13.26Q129.04 13.36 128.81 13.43L128.81 13.43L128.81 13.43Q128.59 13.50 128.35 13.55L128.35 13.55L128.35 13.55Q128.11 13.61 127.86 13.64L127.86 13.64L127.86 13.64Q127.60 13.68 127.34 13.68L127.34 13.68L127.34 13.68Q125.82 13.68 124.69 13.26L124.69 13.26L124.69 13.26Q123.56 12.85 122.95 12.14L122.95 12.14L122.95 12.14Q122.33 11.44 122.04 10.61L122.04 10.61L122.04 10.61Q121.74 9.79 121.74 8.83ZM150.18 8.69L150.18 8.69L150.18 8.69Q150.18 6.34 151.59 4.84L151.59 4.84L151.59 4.84Q153.01 3.33 155.60 3.33L155.60 3.33L155.60 3.33Q156.80 3.33 157.77 3.68L157.77 3.68L157.77 3.68Q158.73 4.03 159.29 4.54L159.29 4.54L159.29 4.54Q159.85 5.05 160.23 5.71L160.23 5.71L160.23 5.71Q160.61 6.37 160.75 6.92L160.75 6.92L160.75 6.92Q160.89 7.48 160.89 7.95L160.89 7.95L160.89 7.95Q160.89 9.86 160.15 11.16L160.15 11.16L160.15 11.16Q159.40 12.47 158.19 13.07L158.19 13.07L158.19 13.07Q156.98 13.66 155.40 13.66L155.40 13.66L155.40 13.66Q153.73 13.66 152.52 12.94L152.52 12.94L152.52 12.94Q151.31 12.21 150.75 11.10L150.75 11.10L150.75 11.10Q150.18 10.00 150.18 8.69ZM151.41 7.98L151.41 7.98L151.41 7.98Q151.41 8.54 151.56 9.19L151.56 9.19L151.56 9.19Q151.72 9.84 152.07 10.54L152.07 10.54L152.07 10.54Q152.42 11.23 152.92 11.78L152.92 11.78L152.92 11.78Q153.41 12.33 154.18 12.69L154.18 12.69L154.18 12.69Q154.94 13.05 155.85 13.05L155.85 13.05L155.85 13.05Q156.32 13.05 156.85 12.90L156.85 12.90L156.85 12.90Q157.37 12.75 157.89 12.45L157.89 12.45L157.89 12.45Q158.41 12.14 158.82 11.70L158.82 11.70L158.82 11.70Q159.22 11.26 159.48 10.62L159.48 10.62L159.48 10.62Q159.74 9.98 159.74 9.24L159.74 9.24L159.74 9.24Q159.74 6.71 158.41 5.30L158.41 5.30L158.41 5.30Q157.08 3.89 155.12 3.89L155.12 3.89L155.12 3.89Q153.58 3.89 152.50 4.93L152.50 4.93L152.50 4.93Q151.41 5.96 151.41 7.98ZM168.57 3.77L168.57 3.77L168.57 3.77Q168.57 3.68 168.67 3.60L168.67 3.60L168.67 3.60Q168.77 3.53 168.92 3.53L168.92 3.53L168.92 3.53Q169.01 3.53 169.20 3.54L169.20 3.54L169.20 3.54Q169.40 3.54 169.46 3.54L169.46 3.54L169.46 3.54Q169.67 3.54 169.85 3.53L169.85 3.53L169.85 3.53Q170.03 3.51 170.14 3.51L170.14 3.51L170.14 3.51Q170.27 3.51 170.44 3.59L170.44 3.59L170.44 3.59Q170.60 3.67 170.63 3.75L170.63 3.75L170.63 3.75Q170.66 3.79 170.79 3.94L170.79 3.94L170.79 3.94Q170.91 4.09 171.12 4.33L171.12 4.33L171.12 4.33Q171.33 4.56 171.50 4.79L171.50 4.79L171.50 4.79Q173.40 7.27 176.60 10.77L176.60 10.77L176.60 10.77Q176.68 10.86 176.80 10.99L176.80 10.99L176.80 10.99Q176.92 11.12 176.97 11.18L176.97 11.18L176.97 11.18Q177.02 11.24 177.07 11.30L177.07 11.30L177.07 11.30Q177.13 11.35 177.16 11.38L177.16 11.38L177.16 11.38Q177.20 11.40 177.23 11.40L177.23 11.40L177.23 11.40Q177.37 11.40 177.37 10.53L177.37 10.53L177.37 8.89L177.37 8.89Q177.37 7.95 177.36 7.31L177.36 7.31L177.36 7.31Q177.35 6.66 177.34 6.38L177.34 6.38L177.34 6.38Q177.34 6.09 177.34 6.02L177.34 6.02L177.34 5.92L177.34 5.92Q177.34 5.45 177.28 5.11L177.28 5.11L177.28 5.11Q177.21 4.77 177.13 4.59L177.13 4.59L177.13 4.59Q177.04 4.41 176.88 4.28L176.88 4.28L176.88 4.28Q176.72 4.16 176.61 4.12L176.61 4.12L176.61 4.12Q176.50 4.09 176.29 4.05L176.29 4.05L176.29 4.05Q176.08 4.00 175.99 3.98L175.99 3.98L175.99 3.98Q175.71 3.89 175.71 3.74L175.71 3.74L175.71 3.74Q175.71 3.53 175.98 3.53L175.98 3.53L175.98 3.53Q176.06 3.53 176.65 3.54L176.65 3.54L176.65 3.54Q177.24 3.54 177.31 3.54L177.31 3.54L177.31 3.54Q177.65 3.54 178.06 3.53L178.06 3.53L178.06 3.53Q178.47 3.51 178.57 3.51L178.57 3.51L178.57 3.51Q178.81 3.51 178.90 3.56L178.90 3.56L178.90 3.56Q178.99 3.61 178.99 3.75L178.99 3.75L178.99 3.75Q178.99 3.81 178.91 3.86L178.91 3.86L178.91 3.86Q178.84 3.91 178.75 3.94L178.75 3.94L178.75 3.94Q178.67 3.98 178.58 4.00L178.58 4.00L178.50 4.03L178.50 4.03Q178.04 4.28 178.04 5.61L178.04 5.61L178.04 6.15L178.04 6.15Q178.04 7.21 177.96 9.83L177.96 9.83L177.96 9.83Q177.88 12.46 177.88 13.08L177.88 13.08L177.88 13.36L177.88 13.36Q177.88 13.68 177.69 13.68L177.69 13.68L177.69 13.68Q177.56 13.68 177.46 13.58L177.46 13.58L177.46 13.58Q172.82 8.19 171.91 7.17L171.91 7.17L171.91 7.17Q171.01 6.16 170.91 6.16L170.91 6.16L170.91 6.16Q170.77 6.16 170.77 7.11L170.77 7.11L170.77 7.11Q170.77 8.44 170.72 9.97L170.72 9.97L170.72 9.97Q170.66 11.51 170.66 11.65L170.66 11.65L170.66 11.65Q170.66 12.28 170.88 12.61L170.88 12.61L170.88 12.61Q171.09 12.94 171.35 12.98L171.35 12.98L171.35 12.98Q171.60 13.02 171.81 13.07L171.81 13.07L171.81 13.07Q172.03 13.12 172.03 13.26L172.03 13.26L172.03 13.26Q172.03 13.41 171.98 13.45L171.98 13.45L171.98 13.45Q171.93 13.50 171.81 13.50L171.81 13.50L171.81 13.50Q171.71 13.50 171.37 13.48L171.37 13.48L171.37 13.48Q171.02 13.47 170.31 13.47L170.31 13.47L170.31 13.47Q170.18 13.47 169.79 13.48L169.79 13.48L169.79 13.48Q169.40 13.50 169.12 13.50L169.12 13.50L169.12 13.50Q168.81 13.50 168.81 13.27L168.81 13.27L168.81 13.27Q168.81 13.15 168.99 13.11L168.99 13.11L168.99 13.11Q169.18 13.08 169.44 12.89L169.44 12.89L169.44 12.89Q169.71 12.71 169.85 12.21L169.85 12.21L169.85 12.21Q169.93 11.89 170.06 9.60L170.06 9.60L170.06 9.60Q170.18 7.32 170.18 6.45L170.18 6.45L170.18 6.45Q170.18 5.25 169.85 4.65L169.85 4.65L169.85 4.65Q169.51 4.06 168.76 3.98L168.76 3.98L168.76 3.98Q168.57 3.96 168.57 3.77ZM186.75 3.65L186.75 3.65L186.75 3.65Q186.75 3.46 187.14 3.46L187.14 3.46L187.14 3.46Q187.19 3.46 187.32 3.47L187.32 3.47L187.32 3.47Q187.45 3.49 187.52 3.49L187.52 3.49L187.52 3.49Q187.56 3.49 188.83 3.52L188.83 3.52L188.83 3.52Q190.11 3.56 190.93 3.56L190.93 3.56L190.93 3.56Q191.23 3.56 192.38 3.53L192.38 3.53L192.38 3.53Q193.54 3.50 193.73 3.50L193.73 3.50L193.73 3.50Q194.00 3.50 194.00 3.82L194.00 3.82L194.00 3.82Q194.00 3.91 193.91 4.38L193.91 4.38L193.91 4.38Q193.83 4.84 193.83 5.25L193.83 5.25L193.83 5.25Q193.83 5.38 193.76 5.47L193.76 5.47L193.76 5.47Q193.69 5.56 193.61 5.56L193.61 5.56L193.61 5.56Q193.40 5.56 193.40 5.26L193.40 5.26L193.40 5.26Q193.40 4.89 193.16 4.58L193.16 4.58L193.16 4.58Q192.92 4.27 192.57 4.26L192.57 4.26L192.57 4.26Q191.31 4.16 190.64 4.16L190.64 4.16L190.27 4.16L190.27 4.16Q189.55 4.16 189.43 4.26L189.43 4.26L189.43 4.26Q189.31 4.37 189.28 5.01L189.28 5.01L189.28 5.01Q189.22 6.02 189.22 7.35L189.22 7.35L189.22 7.35Q189.22 8.05 189.49 8.06L189.49 8.06L189.84 8.06L190.43 8.06L190.86 8.06L190.86 8.06Q191.70 8.06 191.98 8.01L191.98 8.01L191.98 8.01Q192.26 7.95 192.49 7.80L192.49 7.80L192.49 7.80Q192.75 7.62 192.81 7.28L192.81 7.28L192.81 7.28Q192.85 7.04 193.00 7.04L193.00 7.04L193.00 7.04Q193.13 7.04 193.16 7.08L193.16 7.08L193.16 7.08Q193.19 7.13 193.19 7.27L193.19 7.27L193.19 7.27Q193.19 7.36 193.13 7.91L193.13 7.91L193.13 7.91Q193.07 8.46 193.07 8.74L193.07 8.74L193.07 8.74Q193.07 9.00 193.09 9.24L193.09 9.24L193.09 9.24Q193.12 9.48 193.12 9.59L193.12 9.59L193.12 9.59Q193.12 9.94 193.02 9.94L193.02 9.94L193.02 9.94Q192.81 9.94 192.71 9.60L192.71 9.60L192.71 9.60Q192.51 9.02 192.36 8.92L192.36 8.92L192.36 8.92Q192.07 8.72 191.02 8.72L191.02 8.72L191.02 8.72Q190.60 8.72 190.34 8.72L190.34 8.72L190.34 8.72Q190.08 8.72 190.00 8.71L190.00 8.71L190.00 8.71Q189.92 8.71 189.88 8.71L189.88 8.71L189.88 8.71Q189.83 8.71 189.78 8.71L189.78 8.71L189.78 8.71Q189.21 8.71 189.21 8.97L189.21 8.97L189.21 8.97Q189.21 9.38 189.20 9.99L189.20 9.99L189.20 9.99Q189.18 10.60 189.18 10.99L189.18 10.99L189.18 11.55L189.18 11.55Q189.18 12.56 189.52 12.66L189.52 12.66L189.52 12.66Q189.87 12.77 190.12 12.77L190.12 12.77L190.12 12.77Q191.17 12.77 191.96 12.67L191.96 12.67L191.96 12.67Q192.75 12.57 193.15 12.42L193.15 12.42L193.15 12.42Q193.55 12.28 193.82 12.10L193.82 12.10L193.82 12.10Q194.08 11.93 194.16 11.78L194.16 11.78L194.16 11.78Q194.24 11.63 194.31 11.54L194.31 11.54L194.31 11.54Q194.39 11.44 194.47 11.44L194.47 11.44L194.47 11.44Q194.64 11.44 194.64 11.68L194.64 11.68L194.64 11.68Q194.64 12.28 194.04 12.89L194.04 12.89L194.04 12.89Q193.44 13.51 192.99 13.51L192.99 13.51L192.99 13.51Q191.98 13.51 190.72 13.44L190.72 13.44L190.72 13.44Q189.45 13.37 189.14 13.37L189.14 13.37L189.14 13.37Q188.75 13.37 188.16 13.43L188.16 13.43L188.16 13.43Q187.57 13.50 187.24 13.50L187.24 13.50L187.24 13.50Q186.94 13.50 186.94 13.36L186.94 13.36L186.94 13.36Q186.94 13.23 186.94 13.19L186.94 13.19L186.94 13.19Q186.94 13.15 186.98 13.12L186.98 13.12L186.98 13.12Q187.03 13.09 187.08 13.08L187.08 13.08L187.08 13.08Q187.12 13.08 187.26 13.03L187.26 13.03L187.26 13.03Q187.39 12.99 187.54 12.92L187.54 12.92L187.54 12.92Q187.88 12.75 187.99 12.26L187.99 12.26L187.99 12.26Q188.09 11.77 188.09 10.21L188.09 10.21L188.09 8.47L188.09 8.47Q188.09 8.09 188.11 7.29L188.11 7.29L188.11 7.29Q188.13 6.50 188.13 6.05L188.13 6.05L188.13 6.05Q188.13 5.67 188.10 4.77L188.10 4.77L188.10 4.77Q188.09 4.37 187.75 4.14L187.75 4.14L187.75 4.14Q187.42 3.92 186.97 3.91L186.97 3.91L186.97 3.91Q186.75 3.91 186.75 3.65ZM212.18 3.71L212.18 3.71L212.18 3.71Q212.18 3.46 212.56 3.46L212.56 3.46L212.56 3.46Q212.62 3.46 212.74 3.47L212.74 3.47L212.74 3.47Q212.87 3.49 212.94 3.49L212.94 3.49L212.94 3.49Q213.08 3.49 213.47 3.51L213.47 3.51L213.47 3.51Q213.85 3.54 214.16 3.54L214.16 3.54L214.16 3.54Q214.59 3.54 215.08 3.51L215.08 3.51L215.08 3.51Q215.57 3.49 215.63 3.49L215.63 3.49L215.63 3.49Q215.87 3.49 215.87 3.63L215.87 3.63L215.87 3.63Q215.87 3.82 215.70 3.88L215.70 3.88L215.70 3.88Q215.53 3.95 215.33 3.97L215.33 3.97L215.33 3.97Q215.12 3.99 214.94 4.28L214.94 4.28L214.94 4.28Q214.75 4.56 214.72 5.14L214.72 5.14L214.72 5.14Q214.69 5.68 214.65 8.19L214.65 8.19L214.65 8.19Q214.61 10.70 214.61 10.99L214.61 10.99L214.61 11.55L214.61 11.55Q214.61 12.56 214.94 12.66L214.94 12.66L214.94 12.66Q215.29 12.77 215.54 12.77L215.54 12.77L215.54 12.77Q216.59 12.77 217.38 12.67L217.38 12.67L217.38 12.67Q218.18 12.57 218.57 12.42L218.57 12.42L218.57 12.42Q218.97 12.28 219.24 12.10L219.24 12.10L219.24 12.10Q219.51 11.93 219.58 11.78L219.58 11.78L219.58 11.78Q219.66 11.63 219.74 11.54L219.74 11.54L219.74 11.54Q219.81 11.44 219.90 11.44L219.90 11.44L219.90 11.44Q220.07 11.44 220.07 11.68L220.07 11.68L220.07 11.68Q220.07 12.28 219.46 12.89L219.46 12.89L219.46 12.89Q218.86 13.51 218.41 13.51L218.41 13.51L218.41 13.51Q217.41 13.51 216.14 13.44L216.14 13.44L216.14 13.44Q214.87 13.37 214.56 13.37L214.56 13.37L214.56 13.37Q214.17 13.37 213.66 13.43L213.66 13.43L213.66 13.43Q213.15 13.48 212.81 13.48L212.81 13.48L212.81 13.48Q212.41 13.48 212.41 13.31L212.41 13.31L212.41 13.31Q212.41 13.22 212.48 13.15L212.48 13.15L212.48 13.15Q212.56 13.09 212.63 13.09L212.63 13.09L212.63 13.09Q212.84 13.09 213.04 12.95L213.04 12.95L213.04 12.95Q213.29 12.75 213.40 12.23L213.40 12.23L213.40 12.23Q213.51 11.70 213.51 10.21L213.51 10.21L213.51 8.47L213.51 8.47Q213.51 8.09 213.53 7.29L213.53 7.29L213.53 7.29Q213.56 6.50 213.56 6.05L213.56 6.05L213.56 6.05Q213.56 5.67 213.53 4.77L213.53 4.77L213.53 4.77Q213.51 4.37 213.18 4.14L213.18 4.14L213.18 4.14Q212.84 3.92 212.39 3.91L212.39 3.91L212.39 3.91Q212.25 3.91 212.22 3.86L212.22 3.86L212.22 3.86Q212.18 3.81 212.18 3.71ZM227.63 3.71L227.63 3.71L227.63 3.71Q227.63 3.50 228.02 3.50L228.02 3.50L228.02 3.50Q228.16 3.50 228.66 3.53L228.66 3.53L228.66 3.53Q229.17 3.56 229.60 3.56L229.60 3.56L229.60 3.56Q229.87 3.56 230.11 3.54L230.11 3.54L230.11 3.54Q230.36 3.53 230.83 3.53L230.83 3.53L230.83 3.53Q231.21 3.53 231.21 3.72L231.21 3.72L231.21 3.72Q231.21 3.84 230.57 4.10L230.57 4.10L230.57 4.10Q230.12 4.28 230.12 5.71L230.12 5.71L230.12 5.71Q230.12 7.60 230.10 9.05L230.10 9.05L230.10 9.05Q230.08 10.50 230.08 10.89L230.08 10.89L230.08 10.89Q230.08 12.07 230.43 12.59L230.43 12.59L230.43 12.59Q230.73 13.02 231.10 13.02L231.10 13.02L231.10 13.02Q231.13 13.02 231.24 13.03L231.24 13.03L231.24 13.03Q231.35 13.03 231.38 13.03L231.38 13.03L231.38 13.03Q231.48 13.03 231.57 13.08L231.57 13.08L231.57 13.08Q231.67 13.13 231.67 13.19L231.67 13.19L231.67 13.19Q231.67 13.34 231.59 13.39L231.59 13.39L231.59 13.39Q231.52 13.44 231.32 13.44L231.32 13.44L231.32 13.44Q230.90 13.44 230.55 13.41L230.55 13.41L230.55 13.41Q230.19 13.38 229.99 13.38L229.99 13.38L229.99 13.38Q229.60 13.38 229.14 13.42L229.14 13.42L229.14 13.42Q228.68 13.45 228.45 13.45L228.45 13.45L228.45 13.45Q227.82 13.45 227.82 13.24L227.82 13.24L227.82 13.24Q227.82 13.12 227.96 13.07L227.96 13.07L227.96 13.07Q228.09 13.02 228.26 13.00L228.26 13.00L228.26 13.00Q228.42 12.98 228.61 12.82L228.61 12.82L228.61 12.82Q228.79 12.66 228.86 12.35L228.86 12.35L228.86 12.35Q228.89 12.25 228.95 10.76L228.95 10.76L228.95 10.76Q229.01 9.27 229.01 8.61L229.01 8.61L229.01 7.81L229.01 7.81Q229.01 7.63 229.02 7.12L229.02 7.12L229.02 7.12Q229.03 6.61 229.03 6.30L229.03 6.30L229.03 5.66L229.03 5.66Q229.03 5.04 228.97 4.63L228.97 4.63L228.97 4.63Q228.93 4.30 228.60 4.12L228.60 4.12L228.60 4.12Q228.27 3.93 227.92 3.92L227.92 3.92L227.92 3.92Q227.63 3.91 227.63 3.71ZM239.22 3.77L239.22 3.77L239.22 3.77Q239.22 3.68 239.32 3.60L239.32 3.60L239.32 3.60Q239.41 3.53 239.57 3.53L239.57 3.53L239.57 3.53Q239.65 3.53 239.85 3.54L239.85 3.54L239.85 3.54Q240.04 3.54 240.10 3.54L240.10 3.54L240.10 3.54Q240.31 3.54 240.49 3.53L240.49 3.53L240.49 3.53Q240.67 3.51 240.79 3.51L240.79 3.51L240.79 3.51Q240.91 3.51 241.08 3.59L241.08 3.59L241.08 3.59Q241.25 3.67 241.28 3.75L241.28 3.75L241.28 3.75Q241.30 3.79 241.43 3.94L241.43 3.94L241.43 3.94Q241.56 4.09 241.77 4.33L241.77 4.33L241.77 4.33Q241.98 4.56 242.14 4.79L242.14 4.79L242.14 4.79Q244.05 7.27 247.24 10.77L247.24 10.77L247.24 10.77Q247.32 10.86 247.44 10.99L247.44 10.99L247.44 10.99Q247.56 11.12 247.61 11.18L247.61 11.18L247.61 11.18Q247.66 11.24 247.72 11.30L247.72 11.30L247.72 11.30Q247.77 11.35 247.81 11.38L247.81 11.38L247.81 11.38Q247.84 11.40 247.87 11.40L247.87 11.40L247.87 11.40Q248.01 11.40 248.01 10.53L248.01 10.53L248.01 8.89L248.01 8.89Q248.01 7.95 248.00 7.31L248.00 7.31L248.00 7.31Q248.00 6.66 247.99 6.38L247.99 6.38L247.99 6.38Q247.98 6.09 247.98 6.02L247.98 6.02L247.98 5.92L247.98 5.92Q247.98 5.45 247.92 5.11L247.92 5.11L247.92 5.11Q247.86 4.77 247.77 4.59L247.77 4.59L247.77 4.59Q247.69 4.41 247.53 4.28L247.53 4.28L247.53 4.28Q247.37 4.16 247.25 4.12L247.25 4.12L247.25 4.12Q247.14 4.09 246.93 4.05L246.93 4.05L246.93 4.05Q246.72 4.00 246.64 3.98L246.64 3.98L246.64 3.98Q246.36 3.89 246.36 3.74L246.36 3.74L246.36 3.74Q246.36 3.53 246.62 3.53L246.62 3.53L246.62 3.53Q246.71 3.53 247.30 3.54L247.30 3.54L247.30 3.54Q247.88 3.54 247.95 3.54L247.95 3.54L247.95 3.54Q248.29 3.54 248.70 3.53L248.70 3.53L248.70 3.53Q249.12 3.51 249.21 3.51L249.21 3.51L249.21 3.51Q249.45 3.51 249.54 3.56L249.54 3.56L249.54 3.56Q249.63 3.61 249.63 3.75L249.63 3.75L249.63 3.75Q249.63 3.81 249.56 3.86L249.56 3.86L249.56 3.86Q249.48 3.91 249.40 3.94L249.40 3.94L249.40 3.94Q249.31 3.98 249.23 4.00L249.23 4.00L249.14 4.03L249.14 4.03Q248.68 4.28 248.68 5.61L248.68 5.61L248.68 6.15L248.68 6.15Q248.68 7.21 248.61 9.83L248.61 9.83L248.61 9.83Q248.53 12.46 248.53 13.08L248.53 13.08L248.53 13.36L248.53 13.36Q248.53 13.68 248.33 13.68L248.33 13.68L248.33 13.68Q248.21 13.68 248.11 13.58L248.11 13.58L248.11 13.58Q243.46 8.19 242.56 7.17L242.56 7.17L242.56 7.17Q241.65 6.16 241.56 6.16L241.56 6.16L241.56 6.16Q241.42 6.16 241.42 7.11L241.42 7.11L241.42 7.11Q241.42 8.44 241.36 9.97L241.36 9.97L241.36 9.97Q241.30 11.51 241.30 11.65L241.30 11.65L241.30 11.65Q241.30 12.28 241.52 12.61L241.52 12.61L241.52 12.61Q241.74 12.94 241.99 12.98L241.99 12.98L241.99 12.98Q242.24 13.02 242.46 13.07L242.46 13.07L242.46 13.07Q242.68 13.12 242.68 13.26L242.68 13.26L242.68 13.26Q242.68 13.41 242.63 13.45L242.63 13.45L242.63 13.45Q242.58 13.50 242.45 13.50L242.45 13.50L242.45 13.50Q242.35 13.50 242.01 13.48L242.01 13.48L242.01 13.48Q241.67 13.47 240.95 13.47L240.95 13.47L240.95 13.47Q240.83 13.47 240.44 13.48L240.44 13.48L240.44 13.48Q240.04 13.50 239.76 13.50L239.76 13.50L239.76 13.50Q239.46 13.50 239.46 13.27L239.46 13.27L239.46 13.27Q239.46 13.15 239.64 13.11L239.64 13.11L239.64 13.11Q239.82 13.08 240.09 12.89L240.09 12.89L240.09 12.89Q240.35 12.71 240.49 12.21L240.49 12.21L240.49 12.21Q240.58 11.89 240.70 9.60L240.70 9.60L240.70 9.60Q240.83 7.32 240.83 6.45L240.83 6.45L240.83 6.45Q240.83 5.25 240.49 4.65L240.49 4.65L240.49 4.65Q240.16 4.06 239.40 3.98L239.40 3.98L239.40 3.98Q239.22 3.96 239.22 3.77ZM257.39 3.65L257.39 3.65L257.39 3.65Q257.39 3.46 257.78 3.46L257.78 3.46L257.78 3.46Q257.84 3.46 257.96 3.47L257.96 3.47L257.96 3.47Q258.09 3.49 258.16 3.49L258.16 3.49L258.16 3.49Q258.20 3.49 259.48 3.52L259.48 3.52L259.48 3.52Q260.75 3.56 261.58 3.56L261.58 3.56L261.58 3.56Q261.87 3.56 263.03 3.53L263.03 3.53L263.03 3.53Q264.18 3.50 264.38 3.50L264.38 3.50L264.38 3.50Q264.64 3.50 264.64 3.82L264.64 3.82L264.64 3.82Q264.64 3.91 264.56 4.38L264.56 4.38L264.56 4.38Q264.47 4.84 264.47 5.25L264.47 5.25L264.47 5.25Q264.47 5.38 264.40 5.47L264.40 5.47L264.40 5.47Q264.33 5.56 264.25 5.56L264.25 5.56L264.25 5.56Q264.04 5.56 264.04 5.26L264.04 5.26L264.04 5.26Q264.04 4.89 263.80 4.58L263.80 4.58L263.80 4.58Q263.56 4.27 263.21 4.26L263.21 4.26L263.21 4.26Q261.95 4.16 261.28 4.16L261.28 4.16L260.92 4.16L260.92 4.16Q260.19 4.16 260.07 4.26L260.07 4.26L260.07 4.26Q259.95 4.37 259.92 5.01L259.92 5.01L259.92 5.01Q259.87 6.02 259.87 7.35L259.87 7.35L259.87 7.35Q259.87 8.05 260.13 8.06L260.13 8.06L260.48 8.06L261.07 8.06L261.51 8.06L261.51 8.06Q262.35 8.06 262.63 8.01L262.63 8.01L262.63 8.01Q262.91 7.95 263.13 7.80L263.13 7.80L263.13 7.80Q263.40 7.62 263.45 7.28L263.45 7.28L263.45 7.28Q263.49 7.04 263.65 7.04L263.65 7.04L263.65 7.04Q263.77 7.04 263.80 7.08L263.80 7.08L263.80 7.08Q263.83 7.13 263.83 7.27L263.83 7.27L263.83 7.27Q263.83 7.36 263.77 7.91L263.77 7.91L263.77 7.91Q263.72 8.46 263.72 8.74L263.72 8.74L263.72 8.74Q263.72 9.00 263.74 9.24L263.74 9.24L263.74 9.24Q263.76 9.48 263.76 9.59L263.76 9.59L263.76 9.59Q263.76 9.94 263.66 9.94L263.66 9.94L263.66 9.94Q263.45 9.94 263.35 9.60L263.35 9.60L263.35 9.60Q263.16 9.02 263.00 8.92L263.00 8.92L263.00 8.92Q262.71 8.72 261.66 8.72L261.66 8.72L261.66 8.72Q261.24 8.72 260.98 8.72L260.98 8.72L260.98 8.72Q260.72 8.72 260.65 8.71L260.65 8.71L260.65 8.71Q260.57 8.71 260.52 8.71L260.52 8.71L260.52 8.71Q260.47 8.71 260.43 8.71L260.43 8.71L260.43 8.71Q259.85 8.71 259.85 8.97L259.85 8.97L259.85 8.97Q259.85 9.38 259.84 9.99L259.84 9.99L259.84 9.99Q259.83 10.60 259.83 10.99L259.83 10.99L259.83 11.55L259.83 11.55Q259.83 12.56 260.16 12.66L260.16 12.66L260.16 12.66Q260.51 12.77 260.76 12.77L260.76 12.77L260.76 12.77Q261.81 12.77 262.61 12.67L262.61 12.67L262.61 12.67Q263.40 12.57 263.80 12.42L263.80 12.42L263.80 12.42Q264.19 12.28 264.46 12.10L264.46 12.10L264.46 12.10Q264.73 11.93 264.80 11.78L264.80 11.78L264.80 11.78Q264.88 11.63 264.96 11.54L264.96 11.54L264.96 11.54Q265.03 11.44 265.12 11.44L265.12 11.44L265.12 11.44Q265.29 11.44 265.29 11.68L265.29 11.68L265.29 11.68Q265.29 12.28 264.68 12.89L264.68 12.89L264.68 12.89Q264.08 13.51 263.63 13.51L263.63 13.51L263.63 13.51Q262.63 13.51 261.36 13.44L261.36 13.44L261.36 13.44Q260.09 13.37 259.78 13.37L259.78 13.37L259.78 13.37Q259.39 13.37 258.80 13.43L258.80 13.43L258.80 13.43Q258.22 13.50 257.88 13.50L257.88 13.50L257.88 13.50Q257.59 13.50 257.59 13.36L257.59 13.36L257.59 13.36Q257.59 13.23 257.59 13.19L257.59 13.19L257.59 13.19Q257.59 13.15 257.63 13.12L257.63 13.12L257.63 13.12Q257.67 13.09 257.72 13.08L257.72 13.08L257.72 13.08Q257.77 13.08 257.90 13.03L257.90 13.03L257.90 13.03Q258.03 12.99 258.19 12.92L258.19 12.92L258.19 12.92Q258.52 12.75 258.63 12.26L258.63 12.26L258.63 12.26Q258.73 11.77 258.73 10.21L258.73 10.21L258.73 8.47L258.73 8.47Q258.73 8.09 258.75 7.29L258.75 7.29L258.75 7.29Q258.78 6.50 258.78 6.05L258.78 6.05L258.78 6.05Q258.78 5.67 258.75 4.77L258.75 4.77L258.75 4.77Q258.73 4.37 258.40 4.14L258.40 4.14L258.40 4.14Q258.06 3.92 257.61 3.91L257.61 3.91L257.61 3.91Q257.39 3.91 257.39 3.65ZM283.16 8.69L283.16 8.69L283.16 8.69Q283.16 6.34 284.58 4.84L284.58 4.84L284.58 4.84Q285.99 3.33 288.58 3.33L288.58 3.33L288.58 3.33Q289.79 3.33 290.75 3.68L290.75 3.68L290.75 3.68Q291.72 4.03 292.28 4.54L292.28 4.54L292.28 4.54Q292.84 5.05 293.22 5.71L293.22 5.71L293.22 5.71Q293.59 6.37 293.73 6.92L293.73 6.92L293.73 6.92Q293.87 7.48 293.87 7.95L293.87 7.95L293.87 7.95Q293.87 9.86 293.13 11.16L293.13 11.16L293.13 11.16Q292.39 12.47 291.18 13.07L291.18 13.07L291.18 13.07Q289.97 13.66 288.39 13.66L288.39 13.66L288.39 13.66Q286.72 13.66 285.51 12.94L285.51 12.94L285.51 12.94Q284.30 12.21 283.73 11.10L283.73 11.10L283.73 11.10Q283.16 10.00 283.16 8.69ZM284.40 7.98L284.40 7.98L284.40 7.98Q284.40 8.54 284.55 9.19L284.55 9.19L284.55 9.19Q284.70 9.84 285.05 10.54L285.05 10.54L285.05 10.54Q285.40 11.23 285.90 11.78L285.90 11.78L285.90 11.78Q286.40 12.33 287.16 12.69L287.16 12.69L287.16 12.69Q287.92 13.05 288.83 13.05L288.83 13.05L288.83 13.05Q289.31 13.05 289.84 12.90L289.84 12.90L289.84 12.90Q290.36 12.75 290.88 12.45L290.88 12.45L290.88 12.45Q291.40 12.14 291.80 11.70L291.80 11.70L291.80 11.70Q292.21 11.26 292.47 10.62L292.47 10.62L292.47 10.62Q292.73 9.98 292.73 9.24L292.73 9.24L292.73 9.24Q292.73 6.71 291.40 5.30L291.40 5.30L291.40 5.30Q290.07 3.89 288.11 3.89L288.11 3.89L288.11 3.89Q286.57 3.89 285.48 4.93L285.48 4.93L285.48 4.93Q284.40 5.96 284.40 7.98ZM301.77 3.68L301.77 3.68L301.77 3.68Q301.77 3.64 301.79 3.60L301.79 3.60L301.79 3.60Q301.81 3.56 301.90 3.50L301.90 3.50L301.90 3.50Q301.99 3.44 302.13 3.44L302.13 3.44L302.51 3.44L302.51 3.44Q302.85 3.44 303.60 3.49L303.60 3.49L303.60 3.49Q304.35 3.53 305.55 3.53L305.55 3.53L305.55 3.53Q306.54 3.53 307.31 3.49L307.31 3.49L307.31 3.49Q308.08 3.46 308.73 3.46L308.73 3.46L308.73 3.46Q308.97 3.46 308.97 3.79L308.97 3.79L308.97 3.79Q308.97 3.92 308.94 4.11L308.94 4.11L308.94 4.11Q308.91 4.30 308.85 4.61L308.85 4.61L308.85 4.61Q308.80 4.93 308.77 5.22L308.77 5.22L308.77 5.22Q308.74 5.50 308.56 5.50L308.56 5.50L308.56 5.50Q308.36 5.50 308.36 5.22L308.36 5.22L308.36 5.22Q308.36 4.30 307.72 4.26L307.72 4.26L307.72 4.26Q305.61 4.09 305.20 4.09L305.20 4.09L305.20 4.09Q304.57 4.09 304.42 4.24L304.42 4.24L304.42 4.24Q304.28 4.40 304.26 4.87L304.26 4.87L304.26 4.87Q304.26 4.94 304.26 4.98L304.26 4.98L304.26 4.98Q304.22 5.74 304.22 7.32L304.22 7.32L304.22 7.32Q304.22 8.01 304.47 8.02L304.47 8.02L304.47 8.02Q304.54 8.02 304.66 8.03L304.66 8.03L304.66 8.03Q304.78 8.04 304.82 8.04L304.82 8.04L304.82 8.04Q304.92 8.04 305.12 8.03L305.12 8.03L305.12 8.03Q305.31 8.02 305.42 8.02L305.42 8.02L305.86 8.02L305.86 8.02Q306.70 8.02 306.97 7.97L306.97 7.97L306.97 7.97Q307.24 7.92 307.47 7.77L307.47 7.77L307.47 7.77Q307.59 7.69 307.66 7.57L307.66 7.57L307.66 7.57Q307.73 7.46 307.76 7.31L307.76 7.31L307.76 7.31Q307.79 7.15 307.83 7.08L307.83 7.08L307.83 7.08Q307.87 7.01 308.00 7.01L308.00 7.01L308.00 7.01Q308.13 7.01 308.15 7.06L308.15 7.06L308.15 7.06Q308.18 7.10 308.18 7.24L308.18 7.24L308.18 7.24Q308.18 7.34 308.12 7.73L308.12 7.73L308.12 7.73Q308.06 8.12 308.06 8.40L308.06 8.40L308.06 8.40Q308.06 8.67 308.11 9.05L308.11 9.05L308.11 9.05Q308.15 9.44 308.15 9.55L308.15 9.55L308.15 9.55Q308.15 9.77 308.11 9.83L308.11 9.83L308.11 9.83Q308.06 9.90 307.96 9.90L307.96 9.90L307.96 9.90Q307.72 9.90 307.66 9.55L307.66 9.55L307.66 9.55Q307.66 9.52 307.65 9.42L307.65 9.42L307.65 9.42Q307.64 9.32 307.63 9.28L307.63 9.28L307.63 9.28Q307.62 9.24 307.59 9.16L307.59 9.16L307.59 9.16Q307.57 9.09 307.54 9.04L307.54 9.04L307.54 9.04Q307.51 9.00 307.47 8.95L307.47 8.95L307.47 8.95Q307.43 8.90 307.36 8.88L307.36 8.88L307.36 8.88Q307.16 8.79 306.66 8.74L306.66 8.74L306.66 8.74Q306.15 8.68 306.00 8.68L306.00 8.68L304.78 8.68L304.78 8.68Q304.21 8.68 304.21 8.95L304.21 8.95L304.21 8.95Q304.21 9.35 304.19 9.96L304.19 9.96L304.19 9.96Q304.18 10.57 304.18 10.96L304.18 10.96L304.18 10.96Q304.18 11.06 304.17 11.25L304.17 11.25L304.17 11.25Q304.16 11.44 304.16 11.52L304.16 11.52L304.16 11.52Q304.16 11.80 304.22 12.08L304.22 12.08L304.22 12.08Q304.28 12.36 304.55 12.67L304.55 12.67L304.55 12.67Q304.82 12.98 305.28 12.98L305.28 12.98L305.28 12.98Q305.70 12.98 305.70 13.23L305.70 13.23L305.70 13.23Q305.70 13.27 305.68 13.33L305.68 13.33L305.68 13.33Q305.65 13.38 305.54 13.44L305.54 13.44L305.54 13.44Q305.44 13.50 305.27 13.50L305.27 13.50L305.27 13.50Q305.05 13.50 304.56 13.44L304.56 13.44L304.56 13.44Q304.08 13.38 303.91 13.38L303.91 13.38L303.91 13.38Q303.52 13.38 303.04 13.43L303.04 13.43L303.04 13.43Q302.55 13.47 302.22 13.47L302.22 13.47L302.22 13.47Q301.94 13.47 301.94 13.31L301.94 13.31L301.94 13.31Q301.94 13.13 302.00 13.09L302.00 13.09L302.00 13.09Q302.06 13.05 302.54 12.88L302.54 12.88L302.54 12.88Q302.90 12.75 302.99 12.13L302.99 12.13L302.99 12.13Q303.07 11.51 303.09 9.60L303.09 9.60L303.09 9.60Q303.09 8.86 303.09 8.44L303.09 8.44L303.09 8.44Q303.09 8.06 303.11 7.26L303.11 7.26L303.11 7.26Q303.13 6.45 303.13 6.01L303.13 6.01L303.13 5.19L303.13 5.19Q303.13 4.27 302.47 3.96L302.47 3.96L302.47 3.96Q302.37 3.92 302.23 3.90L302.23 3.90L302.23 3.90Q302.09 3.88 302.00 3.88L302.00 3.88L302.00 3.88Q301.91 3.88 301.84 3.83L301.84 3.83L301.84 3.83Q301.77 3.78 301.77 3.68ZM326.84 8.90L326.84 8.90L326.84 8.90Q326.84 7.38 327.43 6.16L327.43 6.16L327.43 6.16Q328.02 4.94 329.25 4.19L329.25 4.19L329.25 4.19Q330.47 3.44 332.15 3.44L332.15 3.44L332.15 3.44Q333.00 3.44 333.87 3.70L333.87 3.70L333.87 3.70Q334.74 3.95 335.26 4.20L335.26 4.20L335.78 4.47L335.78 4.47Q335.82 4.47 335.92 4.40L335.92 4.40L335.92 4.40Q336.01 4.33 336.07 4.33L336.07 4.33L336.07 4.33Q336.14 4.33 336.21 4.38L336.21 4.38L336.21 4.38Q336.28 4.44 336.28 4.55L336.28 4.55L336.28 4.55Q336.29 4.96 336.34 5.41L336.34 5.41L336.34 5.41Q336.39 5.87 336.43 6.16L336.43 6.16L336.43 6.16Q336.48 6.45 336.48 6.51L336.48 6.51L336.48 6.51Q336.48 6.76 336.31 6.76L336.31 6.76L336.31 6.76Q336.18 6.76 336.07 6.57L336.07 6.57L336.07 6.57Q334.71 4.02 332.15 4.02L332.15 4.02L332.15 4.02Q330.40 4.02 329.28 5.14L329.28 5.14L329.28 5.14Q328.16 6.26 328.16 8.06L328.16 8.06L328.16 8.06Q328.16 9.06 328.42 9.93L328.42 9.93L328.42 9.93Q328.68 10.79 329.20 11.51L329.20 11.51L329.20 11.51Q329.73 12.24 330.65 12.66L330.65 12.66L330.65 12.66Q331.58 13.08 332.81 13.08L332.81 13.08L332.81 13.08Q334.82 13.08 336.20 10.98L336.20 10.98L336.20 10.98Q336.25 10.88 336.41 10.88L336.41 10.88L336.41 10.88Q336.53 10.88 336.53 11.07L336.53 11.07L336.53 11.07Q336.53 11.23 336.48 11.49L336.48 11.49L336.48 11.49Q336.43 11.75 336.36 12.06L336.36 12.06L336.36 12.06Q336.29 12.38 336.28 12.45L336.28 12.45L336.28 12.45Q336.25 12.60 336.06 12.70L336.06 12.70L336.06 12.70Q335.30 13.06 334.87 13.24L334.87 13.24L334.87 13.24Q334.45 13.43 333.79 13.57L333.79 13.57L333.79 13.57Q333.13 13.72 332.44 13.72L332.44 13.72L332.44 13.72Q331.23 13.72 330.25 13.43L330.25 13.43L330.25 13.43Q329.27 13.13 328.64 12.66L328.64 12.66L328.64 12.66Q328.02 12.18 327.60 11.54L327.60 11.54L327.60 11.54Q327.18 10.91 327.01 10.25L327.01 10.25L327.01 10.25Q326.84 9.60 326.84 8.90ZM345.14 8.69L345.14 8.69L345.14 8.69Q345.14 6.34 346.56 4.84L346.56 4.84L346.56 4.84Q347.97 3.33 350.56 3.33L350.56 3.33L350.56 3.33Q351.76 3.33 352.73 3.68L352.73 3.68L352.73 3.68Q353.70 4.03 354.26 4.54L354.26 4.54L354.26 4.54Q354.82 5.05 355.19 5.71L355.19 5.71L355.19 5.71Q355.57 6.37 355.71 6.92L355.71 6.92L355.71 6.92Q355.85 7.48 355.85 7.95L355.85 7.95L355.85 7.95Q355.85 9.86 355.11 11.16L355.11 11.16L355.11 11.16Q354.37 12.47 353.16 13.07L353.16 13.07L353.16 13.07Q351.95 13.66 350.36 13.66L350.36 13.66L350.36 13.66Q348.70 13.66 347.49 12.94L347.49 12.94L347.49 12.94Q346.28 12.21 345.71 11.10L345.71 11.10L345.71 11.10Q345.14 10.00 345.14 8.69ZM346.37 7.98L346.37 7.98L346.37 7.98Q346.37 8.54 346.53 9.19L346.53 9.19L346.53 9.19Q346.68 9.84 347.03 10.54L347.03 10.54L347.03 10.54Q347.38 11.23 347.88 11.78L347.88 11.78L347.88 11.78Q348.38 12.33 349.14 12.69L349.14 12.69L349.14 12.69Q349.90 13.05 350.81 13.05L350.81 13.05L350.81 13.05Q351.29 13.05 351.81 12.90L351.81 12.90L351.81 12.90Q352.34 12.75 352.86 12.45L352.86 12.45L352.86 12.45Q353.37 12.14 353.78 11.70L353.78 11.70L353.78 11.70Q354.19 11.26 354.45 10.62L354.45 10.62L354.45 10.62Q354.70 9.98 354.70 9.24L354.70 9.24L354.70 9.24Q354.70 6.71 353.37 5.30L353.37 5.30L353.37 5.30Q352.04 3.89 350.08 3.89L350.08 3.89L350.08 3.89Q348.54 3.89 347.46 4.93L347.46 4.93L347.46 4.93Q346.37 5.96 346.37 7.98ZM363.75 3.64L363.75 3.64L363.75 3.64Q363.75 3.51 363.87 3.49L363.87 3.49L363.87 3.49Q363.99 3.47 364.46 3.47L364.46 3.47L365.68 3.47L365.68 3.47Q366.03 3.47 366.97 3.44L366.97 3.44L366.97 3.44Q367.91 3.42 368.41 3.42L368.41 3.42L368.41 3.42Q369.38 3.42 370.34 3.71L370.34 3.71L370.34 3.71Q371.31 4.00 372.12 4.56L372.12 4.56L372.12 4.56Q372.93 5.11 373.44 6.00L373.44 6.00L373.44 6.00Q373.94 6.89 373.94 7.98L373.94 7.98L373.94 7.98Q373.94 8.96 373.81 9.68L373.81 9.68L373.81 9.68Q373.67 10.40 373.37 10.93L373.37 10.93L373.37 10.93Q373.06 11.45 372.75 11.78L372.75 11.78L372.75 11.78Q372.44 12.11 371.91 12.56L371.91 12.56L371.91 12.56Q371.49 12.89 370.69 13.19L370.69 13.19L370.69 13.19Q369.89 13.48 369.05 13.48L369.05 13.48L369.05 13.48Q368.97 13.48 367.63 13.45L367.63 13.45L367.63 13.45Q366.28 13.41 365.69 13.41L365.69 13.41L365.69 13.41Q365.20 13.41 364.78 13.45L364.78 13.45L364.78 13.45Q364.36 13.48 364.29 13.48L364.29 13.48L364.29 13.48Q363.96 13.48 363.96 13.30L363.96 13.30L363.96 13.30Q363.96 13.19 364.01 13.14L364.01 13.14L364.01 13.14Q364.06 13.09 364.22 13.05L364.22 13.05L364.22 13.05Q364.38 13.01 364.45 12.98L364.45 12.98L364.45 12.98Q364.67 12.88 364.86 12.61L364.86 12.61L364.86 12.61Q365.05 12.33 365.05 12.07L365.05 12.07L365.05 12.07Q365.05 11.28 365.06 10.07L365.06 10.07L365.06 10.07Q365.06 8.85 365.06 8.27L365.06 8.27L365.06 8.27Q365.06 7.77 365.06 6.70L365.06 6.70L365.06 6.70Q365.05 5.63 365.05 4.72L365.05 4.72L365.05 4.72Q365.05 4.48 364.82 4.23L364.82 4.23L364.82 4.23Q364.59 3.99 364.31 3.98L364.31 3.98L364.31 3.98Q364.11 3.96 364.02 3.95L364.02 3.95L364.02 3.95Q363.93 3.93 363.84 3.86L363.84 3.86L363.84 3.86Q363.75 3.78 363.75 3.64ZM366.23 11.47L366.23 11.47L366.23 11.47Q366.23 11.73 366.23 11.90L366.23 11.90L366.23 11.90Q366.24 12.07 366.29 12.21L366.29 12.21L366.29 12.21Q366.34 12.35 366.37 12.40L366.37 12.40L366.37 12.40Q366.39 12.46 366.53 12.53L366.53 12.53L366.53 12.53Q366.67 12.60 366.75 12.62L366.75 12.62L366.75 12.62Q366.83 12.64 367.08 12.71L367.08 12.71L367.08 12.71Q367.33 12.78 367.50 12.82L367.50 12.82L367.50 12.82Q367.99 12.96 368.52 12.96L368.52 12.96L368.80 12.96L368.80 12.96Q369.75 12.96 370.43 12.69L370.43 12.69L370.43 12.69Q371.10 12.42 371.71 11.83L371.71 11.83L371.71 11.83Q372.75 10.84 372.75 8.61L372.75 8.61L372.75 8.61Q372.75 7.49 372.31 6.58L372.31 6.58L372.31 6.58Q371.87 5.67 371.15 5.13L371.15 5.13L371.15 5.13Q370.44 4.59 369.61 4.30L369.61 4.30L369.61 4.30Q368.79 4.02 367.95 4.02L367.95 4.02L367.95 4.02Q367.57 4.02 367.40 4.02L367.40 4.02L367.40 4.02Q367.22 4.02 366.99 4.05L366.99 4.05L366.99 4.05Q366.76 4.09 366.68 4.11L366.68 4.11L366.68 4.11Q366.60 4.13 366.49 4.25L366.49 4.25L366.49 4.25Q366.38 4.37 366.36 4.45L366.36 4.45L366.36 4.45Q366.34 4.54 366.30 4.78L366.30 4.78L366.30 4.78Q366.27 5.03 366.27 5.21L366.27 5.21L366.27 5.21Q366.27 5.39 366.27 5.80L366.27 5.80L366.27 5.80Q366.27 6.10 366.25 7.24L366.25 7.24L366.25 7.24Q366.24 8.39 366.24 8.48L366.24 8.48L366.24 8.48Q366.24 9.32 366.23 10.30L366.23 10.30L366.23 10.30Q366.23 11.28 366.23 11.47ZM381.84 3.65L381.84 3.65L381.84 3.65Q381.84 3.46 382.23 3.46L382.23 3.46L382.23 3.46Q382.28 3.46 382.41 3.47L382.41 3.47L382.41 3.47Q382.54 3.49 382.61 3.49L382.61 3.49L382.61 3.49Q382.65 3.49 383.92 3.52L383.92 3.52L383.92 3.52Q385.20 3.56 386.02 3.56L386.02 3.56L386.02 3.56Q386.32 3.56 387.47 3.53L387.47 3.53L387.47 3.53Q388.63 3.50 388.82 3.50L388.82 3.50L388.82 3.50Q389.09 3.50 389.09 3.82L389.09 3.82L389.09 3.82Q389.09 3.91 389.00 4.38L389.00 4.38L389.00 4.38Q388.92 4.84 388.92 5.25L388.92 5.25L388.92 5.25Q388.92 5.38 388.85 5.47L388.85 5.47L388.85 5.47Q388.78 5.56 388.70 5.56L388.70 5.56L388.70 5.56Q388.49 5.56 388.49 5.26L388.49 5.26L388.49 5.26Q388.49 4.89 388.25 4.58L388.25 4.58L388.25 4.58Q388.01 4.27 387.66 4.26L387.66 4.26L387.66 4.26Q386.40 4.16 385.73 4.16L385.73 4.16L385.36 4.16L385.36 4.16Q384.64 4.16 384.52 4.26L384.52 4.26L384.52 4.26Q384.40 4.37 384.37 5.01L384.37 5.01L384.37 5.01Q384.31 6.02 384.31 7.35L384.31 7.35L384.31 7.35Q384.31 8.05 384.58 8.06L384.58 8.06L384.93 8.06L385.52 8.06L385.95 8.06L385.95 8.06Q386.79 8.06 387.07 8.01L387.07 8.01L387.07 8.01Q387.35 7.95 387.58 7.80L387.58 7.80L387.58 7.80Q387.84 7.62 387.90 7.28L387.90 7.28L387.90 7.28Q387.94 7.04 388.09 7.04L388.09 7.04L388.09 7.04Q388.22 7.04 388.25 7.08L388.25 7.08L388.25 7.08Q388.28 7.13 388.28 7.27L388.28 7.27L388.28 7.27Q388.28 7.36 388.22 7.91L388.22 7.91L388.22 7.91Q388.16 8.46 388.16 8.74L388.16 8.74L388.16 8.74Q388.16 9.00 388.19 9.24L388.19 9.24L388.19 9.24Q388.21 9.48 388.21 9.59L388.21 9.59L388.21 9.59Q388.21 9.94 388.11 9.94L388.11 9.94L388.11 9.94Q387.90 9.94 387.80 9.60L387.80 9.60L387.80 9.60Q387.60 9.02 387.45 8.92L387.45 8.92L387.45 8.92Q387.16 8.72 386.11 8.72L386.11 8.72L386.11 8.72Q385.69 8.72 385.43 8.72L385.43 8.72L385.43 8.72Q385.17 8.72 385.09 8.71L385.09 8.71L385.09 8.71Q385.01 8.71 384.97 8.71L384.97 8.71L384.97 8.71Q384.92 8.71 384.87 8.71L384.87 8.71L384.87 8.71Q384.30 8.71 384.30 8.97L384.30 8.97L384.30 8.97Q384.30 9.38 384.29 9.99L384.29 9.99L384.29 9.99Q384.27 10.60 384.27 10.99L384.27 10.99L384.27 11.55L384.27 11.55Q384.27 12.56 384.61 12.66L384.61 12.66L384.61 12.66Q384.96 12.77 385.21 12.77L385.21 12.77L385.21 12.77Q386.26 12.77 387.05 12.67L387.05 12.67L387.05 12.67Q387.84 12.57 388.24 12.42L388.24 12.42L388.24 12.42Q388.64 12.28 388.91 12.10L388.91 12.10L388.91 12.10Q389.17 11.93 389.25 11.78L389.25 11.78L389.25 11.78Q389.33 11.63 389.40 11.54L389.40 11.54L389.40 11.54Q389.48 11.44 389.56 11.44L389.56 11.44L389.56 11.44Q389.73 11.44 389.73 11.68L389.73 11.68L389.73 11.68Q389.73 12.28 389.13 12.89L389.13 12.89L389.13 12.89Q388.53 13.51 388.08 13.51L388.08 13.51L388.08 13.51Q387.07 13.51 385.81 13.44L385.81 13.44L385.81 13.44Q384.54 13.37 384.23 13.37L384.23 13.37L384.23 13.37Q383.84 13.37 383.25 13.43L383.25 13.43L383.25 13.43Q382.66 13.50 382.33 13.50L382.33 13.50L382.33 13.50Q382.03 13.50 382.03 13.36L382.03 13.36L382.03 13.36Q382.03 13.23 382.03 13.19L382.03 13.19L382.03 13.19Q382.03 13.15 382.07 13.12L382.07 13.12L382.07 13.12Q382.12 13.09 382.17 13.08L382.17 13.08L382.17 13.08Q382.21 13.08 382.35 13.03L382.35 13.03L382.35 13.03Q382.48 12.99 382.63 12.92L382.63 12.92L382.63 12.92Q382.97 12.75 383.08 12.26L383.08 12.26L383.08 12.26Q383.18 11.77 383.18 10.21L383.18 10.21L383.18 8.47L383.18 8.47Q383.18 8.09 383.20 7.29L383.20 7.29L383.20 7.29Q383.22 6.50 383.22 6.05L383.22 6.05L383.22 6.05Q383.22 5.67 383.19 4.77L383.19 4.77L383.19 4.77Q383.18 4.37 382.84 4.14L382.84 4.14L382.84 4.14Q382.51 3.92 382.06 3.91L382.06 3.91L382.06 3.91Q381.84 3.91 381.84 3.65ZM407.27 13.33L407.27 13.33L407.27 13.33Q407.27 13.13 407.48 13.06L407.48 13.06L407.48 13.06Q407.93 12.89 408.27 12.31L408.27 12.31L408.27 12.31Q408.60 11.73 409.93 8.83L409.93 8.83L409.93 8.83Q411.31 5.87 412.36 3.63L412.36 3.63L412.36 3.63Q412.45 3.42 412.53 3.36L412.53 3.36L412.53 3.36Q412.61 3.30 412.78 3.30L412.78 3.30L412.78 3.30Q412.90 3.30 412.94 3.36L412.94 3.36L412.94 3.36Q412.99 3.42 413.13 3.82L413.13 3.82L413.13 3.82Q413.21 4.06 413.27 4.23L413.27 4.23L413.27 4.23Q413.34 4.40 413.48 4.77L413.48 4.77L413.48 4.77Q413.62 5.15 413.78 5.56L413.78 5.56L413.78 5.56Q414.23 6.66 415.33 9.22L415.33 9.22L415.33 9.22Q416.43 11.77 416.53 11.98L416.53 11.98L416.53 11.98Q416.77 12.46 417.06 12.71L417.06 12.71L417.06 12.71Q417.35 12.95 417.57 12.97L417.57 12.97L417.57 12.97Q417.79 12.99 417.94 13.04L417.94 13.04L417.94 13.04Q418.08 13.09 418.08 13.26L418.08 13.26L418.08 13.26Q418.08 13.47 417.70 13.47L417.70 13.47L417.70 13.47Q417.55 13.47 417.10 13.43L417.10 13.43L417.10 13.43Q416.65 13.38 416.44 13.38L416.44 13.38L416.44 13.38Q416.18 13.38 415.76 13.41L415.76 13.41L415.76 13.41Q415.34 13.44 415.14 13.44L415.14 13.44L415.14 13.44Q414.71 13.44 414.59 13.40L414.59 13.40L414.59 13.40Q414.47 13.37 414.47 13.24L414.47 13.24L414.47 13.24Q414.47 13.15 414.58 13.08L414.58 13.08L414.58 13.08Q414.69 13.02 414.82 13.00L414.82 13.00L414.82 13.00Q414.95 12.98 415.06 12.87L415.06 12.87L415.06 12.87Q415.17 12.77 415.17 12.59L415.17 12.59L415.17 12.59Q415.17 12.28 414.82 11.33L414.82 11.33L414.82 11.33Q414.47 10.37 414.23 9.93L414.23 9.93L414.23 9.93Q414.11 9.69 413.66 9.69L413.66 9.69L413.66 9.69Q413.59 9.69 413.04 9.70L413.04 9.70L413.04 9.70Q412.50 9.72 411.96 9.72L411.96 9.72L411.22 9.72L411.22 9.72Q410.59 9.72 410.43 9.79L410.43 9.79L410.43 9.79Q410.27 9.86 410.14 10.12L410.14 10.12L410.14 10.12Q410.06 10.30 409.86 10.70L409.86 10.70L409.86 10.70Q409.67 11.10 409.60 11.26L409.60 11.26L409.60 11.26Q409.53 11.41 409.42 11.65L409.42 11.65L409.42 11.65Q409.32 11.90 409.28 12.05L409.28 12.05L409.28 12.05Q409.25 12.19 409.25 12.31L409.25 12.31L409.25 12.31Q409.25 12.63 409.41 12.80L409.41 12.80L409.41 12.80Q409.57 12.96 409.77 12.98L409.77 12.98L409.77 12.98Q409.96 13.01 410.12 13.06L410.12 13.06L410.12 13.06Q410.28 13.12 410.28 13.26L410.28 13.26L410.28 13.26Q410.28 13.36 410.24 13.40L410.24 13.40L410.24 13.40Q410.20 13.45 410.05 13.45L410.05 13.45L410.05 13.45Q409.96 13.45 409.56 13.45L409.56 13.45L409.56 13.45Q409.16 13.44 408.88 13.44L408.88 13.44L408.88 13.44Q408.58 13.44 408.19 13.47L408.19 13.47L408.19 13.47Q407.81 13.50 407.68 13.50L407.68 13.50L407.68 13.50Q407.27 13.50 407.27 13.33ZM410.79 8.71L410.79 8.71L410.79 8.71Q410.79 8.89 410.91 8.93L410.91 8.93L410.91 8.93Q411.04 8.97 411.50 8.97L411.50 8.97L411.94 8.97L413.27 8.96L413.27 8.96Q413.81 8.96 413.81 8.74L413.81 8.74L413.81 8.74Q413.81 8.55 413.13 7.01L413.13 7.01L413.13 7.01Q412.44 5.46 412.26 5.46L412.26 5.46L412.26 5.46Q412.13 5.46 411.46 7.01L411.46 7.01L411.46 7.01Q410.79 8.55 410.79 8.71ZM424.41 5.32L424.41 5.32L424.41 5.32Q424.41 4.76 424.55 3.88L424.55 3.88L424.55 3.88Q424.55 3.85 424.56 3.78L424.56 3.78L424.56 3.78Q424.56 3.71 424.57 3.69L424.57 3.69L424.57 3.69Q424.58 3.67 424.59 3.62L424.59 3.62L424.59 3.62Q424.59 3.57 424.61 3.55L424.61 3.55L424.61 3.55Q424.62 3.53 424.64 3.49L424.64 3.49L424.64 3.49Q424.66 3.46 424.69 3.44L424.69 3.44L424.69 3.44Q424.72 3.43 424.76 3.42L424.76 3.42L424.76 3.42Q424.80 3.40 424.86 3.39L424.86 3.39L424.86 3.39Q424.91 3.39 424.98 3.39L424.98 3.39L424.98 3.39Q425.21 3.39 426.17 3.44L426.17 3.44L426.17 3.44Q427.13 3.50 428.93 3.50L428.93 3.50L428.93 3.50Q432.01 3.50 433.24 3.43L433.24 3.43L433.24 3.43Q433.26 3.43 433.29 3.42L433.29 3.42L433.29 3.42Q433.33 3.42 433.34 3.42L433.34 3.42L433.34 3.42Q433.50 3.42 433.55 3.50L433.55 3.50L433.55 3.50Q433.61 3.58 433.61 3.65L433.61 3.65L433.61 3.65Q433.61 3.75 433.65 4.24L433.65 4.24L433.65 4.24Q433.69 4.73 433.69 4.79L433.69 4.79L433.69 4.79Q433.69 5.14 433.65 5.23L433.65 5.23L433.65 5.23Q433.61 5.32 433.47 5.32L433.47 5.32L433.47 5.32Q433.36 5.32 433.31 5.15L433.31 5.15L433.31 5.15Q433.20 4.75 433.12 4.60L433.12 4.60L433.12 4.60Q433.03 4.45 432.75 4.34L432.75 4.34L432.75 4.34Q432.47 4.23 431.90 4.23L431.90 4.23L430.08 4.23L430.08 4.23Q429.74 4.23 429.67 4.36L429.67 4.36L429.67 4.36Q429.59 4.49 429.59 5.12L429.59 5.12L429.59 5.81L429.59 5.81Q429.59 7.69 429.57 9.11L429.57 9.11L429.57 9.11Q429.55 10.54 429.55 10.93L429.55 10.93L429.55 10.93Q429.55 11.13 429.54 11.43L429.54 11.43L429.54 11.43Q429.53 11.73 429.53 11.84L429.53 11.84L429.53 11.84Q429.53 12.45 429.73 12.64L429.73 12.64L429.73 12.64Q429.91 12.81 430.14 12.90L430.14 12.90L430.14 12.90Q430.36 12.99 430.52 13.01L430.52 13.01L430.52 13.01Q430.68 13.02 430.79 13.08L430.79 13.08L430.79 13.08Q430.91 13.13 430.91 13.26L430.91 13.26L430.91 13.26Q430.91 13.41 430.84 13.45L430.84 13.45L430.84 13.45Q430.77 13.50 430.57 13.50L430.57 13.50L430.57 13.50Q430.40 13.50 429.83 13.44L429.83 13.44L429.83 13.44Q429.25 13.38 429.02 13.38L429.02 13.38L429.02 13.38Q428.85 13.38 428.34 13.43L428.34 13.43L428.34 13.43Q427.83 13.48 427.59 13.48L427.59 13.48L427.59 13.48Q427.07 13.48 427.07 13.26L427.07 13.26L427.07 13.26Q427.07 13.12 427.15 13.07L427.15 13.07L427.15 13.07Q427.24 13.02 427.48 12.98L427.48 12.98L427.48 12.98Q427.73 12.95 427.80 12.94L427.80 12.94L427.80 12.94Q428.27 12.82 428.33 12.38L428.33 12.38L428.33 12.38Q428.47 11.14 428.47 7.08L428.47 7.08L428.46 4.58L428.46 4.58Q428.46 4.31 428.30 4.25L428.30 4.25L428.30 4.25Q428.15 4.19 427.39 4.19L427.39 4.19L427.39 4.19Q426.41 4.19 425.92 4.24L425.92 4.24L425.92 4.24Q425.42 4.30 425.33 4.35L425.33 4.35L425.33 4.35Q425.25 4.40 425.14 4.54L425.14 4.54L425.14 4.54Q425.01 4.70 424.94 4.91L424.94 4.91L424.94 4.91Q424.86 5.11 424.84 5.24L424.84 5.24L424.84 5.24Q424.82 5.38 424.75 5.47L424.75 5.47L424.75 5.47Q424.69 5.56 424.56 5.56L424.56 5.56L424.56 5.56Q424.41 5.56 424.41 5.32ZM451.23 13.33L451.23 13.33L451.23 13.33Q451.23 13.13 451.44 13.06L451.44 13.06L451.44 13.06Q451.89 12.89 452.23 12.31L452.23 12.31L452.23 12.31Q452.56 11.73 453.89 8.83L453.89 8.83L453.89 8.83Q455.27 5.87 456.32 3.63L456.32 3.63L456.32 3.63Q456.41 3.42 456.49 3.36L456.49 3.36L456.49 3.36Q456.57 3.30 456.74 3.30L456.74 3.30L456.74 3.30Q456.86 3.30 456.90 3.36L456.90 3.36L456.90 3.36Q456.95 3.42 457.09 3.82L457.09 3.82L457.09 3.82Q457.17 4.06 457.23 4.23L457.23 4.23L457.23 4.23Q457.30 4.40 457.44 4.77L457.44 4.77L457.44 4.77Q457.58 5.15 457.74 5.56L457.74 5.56L457.74 5.56Q458.19 6.66 459.29 9.22L459.29 9.22L459.29 9.22Q460.39 11.77 460.49 11.98L460.49 11.98L460.49 11.98Q460.73 12.46 461.02 12.71L461.02 12.71L461.02 12.71Q461.31 12.95 461.53 12.97L461.53 12.97L461.53 12.97Q461.75 12.99 461.90 13.04L461.90 13.04L461.90 13.04Q462.04 13.09 462.04 13.26L462.04 13.26L462.04 13.26Q462.04 13.47 461.66 13.47L461.66 13.47L461.66 13.47Q461.51 13.47 461.06 13.43L461.06 13.43L461.06 13.43Q460.61 13.38 460.40 13.38L460.40 13.38L460.40 13.38Q460.14 13.38 459.72 13.41L459.72 13.41L459.72 13.41Q459.30 13.44 459.10 13.44L459.10 13.44L459.10 13.44Q458.67 13.44 458.55 13.40L458.55 13.40L458.55 13.40Q458.43 13.37 458.43 13.24L458.43 13.24L458.43 13.24Q458.43 13.15 458.54 13.08L458.54 13.08L458.54 13.08Q458.65 13.02 458.78 13.00L458.78 13.00L458.78 13.00Q458.91 12.98 459.02 12.87L459.02 12.87L459.02 12.87Q459.13 12.77 459.13 12.59L459.13 12.59L459.13 12.59Q459.13 12.28 458.78 11.33L458.78 11.33L458.78 11.33Q458.43 10.37 458.19 9.93L458.19 9.93L458.19 9.93Q458.07 9.69 457.62 9.69L457.62 9.69L457.62 9.69Q457.55 9.69 457.00 9.70L457.00 9.70L457.00 9.70Q456.46 9.72 455.92 9.72L455.92 9.72L455.18 9.72L455.18 9.72Q454.55 9.72 454.39 9.79L454.39 9.79L454.39 9.79Q454.23 9.86 454.10 10.12L454.10 10.12L454.10 10.12Q454.02 10.30 453.82 10.70L453.82 10.70L453.82 10.70Q453.63 11.10 453.56 11.26L453.56 11.26L453.56 11.26Q453.49 11.41 453.38 11.65L453.38 11.65L453.38 11.65Q453.28 11.90 453.24 12.05L453.24 12.05L453.24 12.05Q453.21 12.19 453.21 12.31L453.21 12.31L453.21 12.31Q453.21 12.63 453.37 12.80L453.37 12.80L453.37 12.80Q453.53 12.96 453.73 12.98L453.73 12.98L453.73 12.98Q453.92 13.01 454.08 13.06L454.08 13.06L454.08 13.06Q454.24 13.12 454.24 13.26L454.24 13.26L454.24 13.26Q454.24 13.36 454.20 13.40L454.20 13.40L454.20 13.40Q454.16 13.45 454.01 13.45L454.01 13.45L454.01 13.45Q453.92 13.45 453.52 13.45L453.52 13.45L453.52 13.45Q453.12 13.44 452.84 13.44L452.84 13.44L452.84 13.44Q452.54 13.44 452.15 13.47L452.15 13.47L452.15 13.47Q451.77 13.50 451.64 13.50L451.64 13.50L451.64 13.50Q451.23 13.50 451.23 13.33ZM454.75 8.71L454.75 8.71L454.75 8.71Q454.75 8.89 454.87 8.93L454.87 8.93L454.87 8.93Q455.00 8.97 455.46 8.97L455.46 8.97L455.90 8.97L457.23 8.96L457.23 8.96Q457.77 8.96 457.77 8.74L457.77 8.74L457.77 8.74Q457.77 8.55 457.09 7.01L457.09 7.01L457.09 7.01Q456.40 5.46 456.22 5.46L456.22 5.46L456.22 5.46Q456.09 5.46 455.42 7.01L455.42 7.01L455.42 7.01Q454.75 8.55 454.75 8.71ZM479.58 5.32L479.58 5.32L479.58 5.32Q479.58 4.76 479.72 3.88L479.72 3.88L479.72 3.88Q479.72 3.85 479.73 3.78L479.73 3.78L479.73 3.78Q479.74 3.71 479.75 3.69L479.75 3.69L479.75 3.69Q479.75 3.67 479.76 3.62L479.76 3.62L479.76 3.62Q479.77 3.57 479.78 3.55L479.78 3.55L479.78 3.55Q479.79 3.53 479.82 3.49L479.82 3.49L479.82 3.49Q479.84 3.46 479.86 3.44L479.86 3.44L479.86 3.44Q479.89 3.43 479.93 3.42L479.93 3.42L479.93 3.42Q479.98 3.40 480.03 3.39L480.03 3.39L480.03 3.39Q480.09 3.39 480.16 3.39L480.16 3.39L480.16 3.39Q480.38 3.39 481.34 3.44L481.34 3.44L481.34 3.44Q482.30 3.50 484.11 3.50L484.11 3.50L484.11 3.50Q487.19 3.50 488.42 3.43L488.42 3.43L488.42 3.43Q488.43 3.43 488.47 3.42L488.47 3.42L488.47 3.42Q488.50 3.42 488.52 3.42L488.52 3.42L488.52 3.42Q488.67 3.42 488.73 3.50L488.73 3.50L488.73 3.50Q488.78 3.58 488.78 3.65L488.78 3.65L488.78 3.65Q488.78 3.75 488.82 4.24L488.82 4.24L488.82 4.24Q488.87 4.73 488.87 4.79L488.87 4.79L488.87 4.79Q488.87 5.14 488.82 5.23L488.82 5.23L488.82 5.23Q488.78 5.32 488.64 5.32L488.64 5.32L488.64 5.32Q488.53 5.32 488.49 5.15L488.49 5.15L488.49 5.15Q488.38 4.75 488.29 4.60L488.29 4.60L488.29 4.60Q488.21 4.45 487.93 4.34L487.93 4.34L487.93 4.34Q487.65 4.23 487.07 4.23L487.07 4.23L485.25 4.23L485.25 4.23Q484.92 4.23 484.84 4.36L484.84 4.36L484.84 4.36Q484.76 4.49 484.76 5.12L484.76 5.12L484.76 5.81L484.76 5.81Q484.76 7.69 484.74 9.11L484.74 9.11L484.74 9.11Q484.72 10.54 484.72 10.93L484.72 10.93L484.72 10.93Q484.72 11.13 484.72 11.43L484.72 11.43L484.72 11.43Q484.71 11.73 484.71 11.84L484.71 11.84L484.71 11.84Q484.71 12.45 484.90 12.64L484.90 12.64L484.90 12.64Q485.09 12.81 485.31 12.90L485.31 12.90L485.31 12.90Q485.53 12.99 485.70 13.01L485.70 13.01L485.70 13.01Q485.86 13.02 485.97 13.08L485.97 13.08L485.97 13.08Q486.08 13.13 486.08 13.26L486.08 13.26L486.08 13.26Q486.08 13.41 486.01 13.45L486.01 13.45L486.01 13.45Q485.94 13.50 485.74 13.50L485.74 13.50L485.74 13.50Q485.58 13.50 485.00 13.44L485.00 13.44L485.00 13.44Q484.43 13.38 484.19 13.38L484.19 13.38L484.19 13.38Q484.02 13.38 483.51 13.43L483.51 13.43L483.51 13.43Q483.00 13.48 482.76 13.48L482.76 13.48L482.76 13.48Q482.24 13.48 482.24 13.26L482.24 13.26L482.24 13.26Q482.24 13.12 482.33 13.07L482.33 13.07L482.33 13.07Q482.41 13.02 482.66 12.98L482.66 12.98L482.66 12.98Q482.90 12.95 482.97 12.94L482.97 12.94L482.97 12.94Q483.45 12.82 483.50 12.38L483.50 12.38L483.50 12.38Q483.64 11.14 483.64 7.08L483.64 7.08L483.63 4.58L483.63 4.58Q483.63 4.31 483.48 4.25L483.48 4.25L483.48 4.25Q483.32 4.19 482.57 4.19L482.57 4.19L482.57 4.19Q481.59 4.19 481.09 4.24L481.09 4.24L481.09 4.24Q480.59 4.30 480.51 4.35L480.51 4.35L480.51 4.35Q480.42 4.40 480.31 4.54L480.31 4.54L480.31 4.54Q480.19 4.70 480.11 4.91L480.11 4.91L480.11 4.91Q480.03 5.11 480.01 5.24L480.01 5.24L480.01 5.24Q479.99 5.38 479.93 5.47L479.93 5.47L479.93 5.47Q479.86 5.56 479.74 5.56L479.74 5.56L479.74 5.56Q479.58 5.56 479.58 5.32ZM496.43 3.71L496.43 3.71L496.43 3.71Q496.43 3.50 496.82 3.50L496.82 3.50L496.82 3.50Q496.96 3.50 497.46 3.53L497.46 3.53L497.46 3.53Q497.97 3.56 498.40 3.56L498.40 3.56L498.40 3.56Q498.67 3.56 498.91 3.54L498.91 3.54L498.91 3.54Q499.16 3.53 499.63 3.53L499.63 3.53L499.63 3.53Q500.01 3.53 500.01 3.72L500.01 3.72L500.01 3.72Q500.01 3.84 499.37 4.10L499.37 4.10L499.37 4.10Q498.92 4.28 498.92 5.71L498.92 5.71L498.92 5.71Q498.92 7.60 498.90 9.05L498.90 9.05L498.90 9.05Q498.88 10.50 498.88 10.89L498.88 10.89L498.88 10.89Q498.88 12.07 499.23 12.59L499.23 12.59L499.23 12.59Q499.53 13.02 499.90 13.02L499.90 13.02L499.90 13.02Q499.93 13.02 500.04 13.03L500.04 13.03L500.04 13.03Q500.15 13.03 500.18 13.03L500.18 13.03L500.18 13.03Q500.28 13.03 500.37 13.08L500.37 13.08L500.37 13.08Q500.47 13.13 500.47 13.19L500.47 13.19L500.47 13.19Q500.47 13.34 500.40 13.39L500.40 13.39L500.40 13.39Q500.32 13.44 500.12 13.44L500.12 13.44L500.12 13.44Q499.70 13.44 499.35 13.41L499.35 13.41L499.35 13.41Q498.99 13.38 498.79 13.38L498.79 13.38L498.79 13.38Q498.40 13.38 497.94 13.42L497.94 13.42L497.94 13.42Q497.48 13.45 497.25 13.45L497.25 13.45L497.25 13.45Q496.62 13.45 496.62 13.24L496.62 13.24L496.62 13.24Q496.62 13.12 496.76 13.07L496.76 13.07L496.76 13.07Q496.89 13.02 497.06 13.00L497.06 13.00L497.06 13.00Q497.22 12.98 497.41 12.82L497.41 12.82L497.41 12.82Q497.59 12.66 497.66 12.35L497.66 12.35L497.66 12.35Q497.69 12.25 497.75 10.76L497.75 10.76L497.75 10.76Q497.81 9.27 497.81 8.61L497.81 8.61L497.81 7.81L497.81 7.81Q497.81 7.63 497.82 7.12L497.82 7.12L497.82 7.12Q497.83 6.61 497.83 6.30L497.83 6.30L497.83 5.66L497.83 5.66Q497.83 5.04 497.77 4.63L497.77 4.63L497.77 4.63Q497.73 4.30 497.40 4.12L497.40 4.12L497.40 4.12Q497.07 3.93 496.72 3.92L496.72 3.92L496.72 3.92Q496.43 3.91 496.43 3.71ZM508.02 3.71L508.02 3.71L508.02 3.71Q508.02 3.50 508.27 3.50L508.27 3.50L508.27 3.50Q508.35 3.50 508.66 3.53L508.66 3.53L508.66 3.53Q508.96 3.56 509.01 3.56L509.01 3.56L509.01 3.56Q509.22 3.56 509.59 3.54L509.59 3.54L509.59 3.54Q509.95 3.53 510.06 3.53L510.06 3.53L510.06 3.53Q510.33 3.53 510.40 3.72L510.40 3.72L510.40 3.72Q510.57 4.09 511.00 5.03L511.00 5.03L511.00 5.03Q511.43 5.98 511.69 6.54L511.69 6.54L511.69 6.54Q511.95 7.10 512.36 7.97L512.36 7.97L512.36 7.97Q512.76 8.83 513.02 9.37L513.02 9.37L513.02 9.37Q513.27 9.91 513.54 10.46L513.54 10.46L513.54 10.46Q513.81 11.00 513.96 11.26L513.96 11.26L513.96 11.26Q514.11 11.52 514.15 11.52L514.15 11.52L514.15 11.52Q514.19 11.52 514.24 11.47L514.24 11.47L514.24 11.47Q514.29 11.42 514.34 11.34L514.34 11.34L514.34 11.34Q514.39 11.26 514.42 11.17L514.42 11.17L514.42 11.17Q514.46 11.09 514.52 10.96L514.52 10.96L514.52 10.96Q514.58 10.82 514.61 10.75L514.61 10.75L516.42 7.03L516.42 7.03Q516.73 6.40 516.96 5.89L516.96 5.89L516.96 5.89Q517.20 5.39 517.34 5.08L517.34 5.08L517.34 5.08Q517.48 4.77 517.58 4.55L517.58 4.55L517.58 4.55Q517.68 4.33 517.73 4.21L517.73 4.21L517.73 4.21Q517.78 4.10 517.80 4.04L517.80 4.04L517.80 4.04Q517.82 3.98 517.83 3.94L517.83 3.94L517.83 3.94Q517.85 3.91 517.86 3.88L517.86 3.88L517.86 3.88Q517.87 3.85 517.91 3.75L517.91 3.75L517.91 3.75Q517.94 3.65 517.98 3.62L517.98 3.62L517.98 3.62Q518.01 3.58 518.12 3.54L518.12 3.54L518.12 3.54Q518.22 3.50 518.39 3.50L518.39 3.50L518.39 3.50Q518.66 3.50 518.89 3.51L518.89 3.51L518.89 3.51Q519.12 3.53 519.60 3.53L519.60 3.53L519.60 3.53Q519.83 3.53 519.83 3.71L519.83 3.71L519.83 3.71Q519.83 3.85 519.74 3.91L519.74 3.91L519.74 3.91Q519.65 3.98 519.37 4.02L519.37 4.02L519.37 4.02Q519.02 4.06 518.88 4.37L518.88 4.37L518.88 4.37Q518.74 4.68 518.74 5.54L518.74 5.54L518.74 5.54Q518.74 7.43 518.83 8.97L518.83 8.97L518.83 8.97Q518.91 10.50 518.91 10.89L518.91 10.89L518.91 10.89Q518.91 12.29 519.13 12.68L519.13 12.68L519.13 12.68Q519.36 13.06 520.07 13.06L520.07 13.06L520.07 13.06Q520.17 13.06 520.25 13.13L520.25 13.13L520.25 13.13Q520.32 13.20 520.32 13.26L520.32 13.26L520.32 13.26Q520.32 13.34 520.31 13.38L520.31 13.38L520.31 13.38Q520.30 13.43 520.25 13.45L520.25 13.45L520.25 13.45Q520.21 13.48 520.17 13.48L520.17 13.48L520.17 13.48Q520.13 13.48 520.02 13.48L520.02 13.48L520.02 13.48Q519.60 13.48 519.19 13.45L519.19 13.45L519.19 13.45Q518.78 13.43 518.59 13.43L518.59 13.43L518.59 13.43Q518.20 13.43 517.78 13.46L517.78 13.46L517.78 13.46Q517.36 13.50 517.13 13.50L517.13 13.50L517.13 13.50Q516.88 13.50 516.88 13.30L516.88 13.30L516.88 13.30Q516.88 13.17 516.99 13.12L516.99 13.12L516.99 13.12Q517.10 13.06 517.25 13.05L517.25 13.05L517.25 13.05Q517.40 13.03 517.56 12.87L517.56 12.87L517.56 12.87Q517.72 12.71 517.79 12.39L517.79 12.39L517.79 12.39Q517.85 12.11 517.85 11.49L517.85 11.49L517.85 11.49Q517.85 11.05 517.83 10.42L517.83 10.42L517.83 10.42Q517.80 9.79 517.78 9.19L517.78 9.19L517.78 9.19Q517.75 8.60 517.72 8.07L517.72 8.07L517.72 8.07Q517.69 7.55 517.68 7.21L517.68 7.21L517.65 6.87L517.65 6.87Q517.65 6.27 517.52 6.27L517.52 6.27L517.52 6.27Q517.51 6.27 517.48 6.29L517.48 6.29L517.48 6.29Q517.45 6.30 517.43 6.33L517.43 6.33L517.43 6.33Q517.41 6.36 517.38 6.38L517.38 6.38L517.38 6.38Q517.36 6.41 517.33 6.47L517.33 6.47L517.33 6.47Q517.30 6.54 517.27 6.58L517.27 6.58L517.27 6.58Q517.24 6.62 517.20 6.70L517.20 6.70L517.20 6.70Q517.16 6.78 517.13 6.83L517.13 6.83L517.13 6.83Q517.10 6.89 517.06 6.99L517.06 6.99L517.06 6.99Q517.01 7.08 516.98 7.15L516.98 7.15L515.03 11.09L515.03 11.09Q514.70 11.77 514.32 12.56L514.32 12.56L514.32 12.56Q514.07 13.09 514.01 13.18L514.01 13.18L514.01 13.18Q513.95 13.27 513.87 13.27L513.87 13.27L513.87 13.27Q513.74 13.27 513.66 13.15L513.66 13.15L513.66 13.15Q513.58 13.03 513.41 12.63L513.41 12.63L513.41 12.63Q513.24 12.22 513.11 11.96L513.11 11.96L513.11 11.96Q510.55 6.75 510.48 6.65L510.48 6.65L510.48 6.65Q510.44 6.59 510.40 6.59L510.40 6.59L510.40 6.59Q510.29 6.59 510.29 7.15L510.29 7.15L510.29 7.15Q510.27 8.25 510.22 9.31L510.22 9.31L510.22 9.31Q510.16 10.37 510.16 10.85L510.16 10.85L510.16 11.48L510.16 11.48Q510.16 11.84 510.18 12.04L510.18 12.04L510.18 12.04Q510.20 12.24 510.29 12.49L510.29 12.49L510.29 12.49Q510.38 12.75 510.62 12.89L510.62 12.89L510.62 12.89Q510.86 13.03 511.24 13.08L511.24 13.08L511.24 13.08Q511.31 13.08 511.37 13.13L511.37 13.13L511.37 13.13Q511.43 13.17 511.43 13.23L511.43 13.23L511.43 13.23Q511.43 13.38 511.39 13.43L511.39 13.43L511.39 13.43Q511.35 13.48 511.22 13.48L511.22 13.48L511.22 13.48Q510.94 13.48 510.38 13.45L510.38 13.45L510.38 13.45Q509.82 13.43 509.77 13.43L509.77 13.43L509.77 13.43Q509.74 13.43 509.36 13.45L509.36 13.45L509.36 13.45Q508.98 13.47 508.62 13.47L508.62 13.47L508.62 13.47Q508.51 13.47 508.46 13.45L508.46 13.45L508.46 13.45Q508.41 13.44 508.37 13.39L508.37 13.39L508.37 13.39Q508.33 13.34 508.33 13.24L508.33 13.24L508.33 13.24Q508.33 13.13 508.45 13.09L508.45 13.09L508.45 13.09Q508.58 13.05 508.74 13.04L508.74 13.04L508.74 13.04Q508.90 13.03 509.10 12.82L509.10 12.82L509.10 12.82Q509.29 12.60 509.39 12.18L509.39 12.18L509.39 12.18Q509.46 11.87 509.56 9.74L509.56 9.74L509.56 9.74Q509.66 7.62 509.66 6.59L509.66 6.59L509.66 6.59Q509.66 5.19 509.38 4.66L509.38 4.66L509.38 4.66Q509.11 4.13 508.20 3.92L508.20 3.92L508.20 3.92Q508.02 3.88 508.02 3.71ZM527.88 3.65L527.88 3.65L527.88 3.65Q527.88 3.46 528.28 3.46L528.28 3.46L528.28 3.46Q528.33 3.46 528.46 3.47L528.46 3.47L528.46 3.47Q528.58 3.49 528.65 3.49L528.65 3.49L528.65 3.49Q528.70 3.49 529.97 3.52L529.97 3.52L529.97 3.52Q531.24 3.56 532.07 3.56L532.07 3.56L532.07 3.56Q532.36 3.56 533.52 3.53L533.52 3.53L533.52 3.53Q534.67 3.50 534.87 3.50L534.87 3.50L534.87 3.50Q535.14 3.50 535.14 3.82L535.14 3.82L535.14 3.82Q535.14 3.91 535.05 4.38L535.05 4.38L535.05 4.38Q534.97 4.84 534.97 5.25L534.97 5.25L534.97 5.25Q534.97 5.38 534.90 5.47L534.90 5.47L534.90 5.47Q534.83 5.56 534.74 5.56L534.74 5.56L534.74 5.56Q534.53 5.56 534.53 5.26L534.53 5.26L534.53 5.26Q534.53 4.89 534.30 4.58L534.30 4.58L534.30 4.58Q534.06 4.27 533.71 4.26L533.71 4.26L533.71 4.26Q532.45 4.16 531.78 4.16L531.78 4.16L531.41 4.16L531.41 4.16Q530.68 4.16 530.57 4.26L530.57 4.26L530.57 4.26Q530.45 4.37 530.42 5.01L530.42 5.01L530.42 5.01Q530.36 6.02 530.36 7.35L530.36 7.35L530.36 7.35Q530.36 8.05 530.63 8.06L530.63 8.06L530.98 8.06L531.57 8.06L532.00 8.06L532.00 8.06Q532.84 8.06 533.12 8.01L533.12 8.01L533.12 8.01Q533.40 7.95 533.62 7.80L533.62 7.80L533.62 7.80Q533.89 7.62 533.95 7.28L533.95 7.28L533.95 7.28Q533.99 7.04 534.14 7.04L534.14 7.04L534.14 7.04Q534.27 7.04 534.30 7.08L534.30 7.08L534.30 7.08Q534.32 7.13 534.32 7.27L534.32 7.27L534.32 7.27Q534.32 7.36 534.27 7.91L534.27 7.91L534.27 7.91Q534.21 8.46 534.21 8.74L534.21 8.74L534.21 8.74Q534.21 9.00 534.23 9.24L534.23 9.24L534.23 9.24Q534.25 9.48 534.25 9.59L534.25 9.59L534.25 9.59Q534.25 9.94 534.16 9.94L534.16 9.94L534.16 9.94Q533.95 9.94 533.85 9.60L533.85 9.60L533.85 9.60Q533.65 9.02 533.50 8.92L533.50 8.92L533.50 8.92Q533.20 8.72 532.15 8.72L532.15 8.72L532.15 8.72Q531.73 8.72 531.48 8.72L531.48 8.72L531.48 8.72Q531.22 8.72 531.14 8.71L531.14 8.71L531.14 8.71Q531.06 8.71 531.01 8.71L531.01 8.71L531.01 8.71Q530.96 8.71 530.92 8.71L530.92 8.71L530.92 8.71Q530.35 8.71 530.35 8.97L530.35 8.97L530.35 8.97Q530.35 9.38 530.33 9.99L530.33 9.99L530.33 9.99Q530.32 10.60 530.32 10.99L530.32 10.99L530.32 11.55L530.32 11.55Q530.32 12.56 530.66 12.66L530.66 12.66L530.66 12.66Q531.01 12.77 531.26 12.77L531.26 12.77L531.26 12.77Q532.31 12.77 533.10 12.67L533.10 12.67L533.10 12.67Q533.89 12.57 534.29 12.42L534.29 12.42L534.29 12.42Q534.69 12.28 534.95 12.10L534.95 12.10L534.95 12.10Q535.22 11.93 535.30 11.78L535.30 11.78L535.30 11.78Q535.37 11.63 535.45 11.54L535.45 11.54L535.45 11.54Q535.53 11.44 535.61 11.44L535.61 11.44L535.61 11.44Q535.78 11.44 535.78 11.68L535.78 11.68L535.78 11.68Q535.78 12.28 535.18 12.89L535.18 12.89L535.18 12.89Q534.58 13.51 534.13 13.51L534.13 13.51L534.13 13.51Q533.12 13.51 531.85 13.44L531.85 13.44L531.85 13.44Q530.59 13.37 530.28 13.37L530.28 13.37L530.28 13.37Q529.89 13.37 529.30 13.43L529.30 13.43L529.30 13.43Q528.71 13.50 528.37 13.50L528.37 13.50L528.37 13.50Q528.08 13.50 528.08 13.36L528.08 13.36L528.08 13.36Q528.08 13.23 528.08 13.19L528.08 13.19L528.08 13.19Q528.08 13.15 528.12 13.12L528.12 13.12L528.12 13.12Q528.16 13.09 528.21 13.08L528.21 13.08L528.21 13.08Q528.26 13.08 528.40 13.03L528.40 13.03L528.40 13.03Q528.53 12.99 528.68 12.92L528.68 12.92L528.68 12.92Q529.02 12.75 529.12 12.26L529.12 12.26L529.12 12.26Q529.23 11.77 529.23 10.21L529.23 10.21L529.23 8.47L529.23 8.47Q529.23 8.09 529.25 7.29L529.25 7.29L529.25 7.29Q529.27 6.50 529.27 6.05L529.27 6.05L529.27 6.05Q529.27 5.67 529.24 4.77L529.24 4.77L529.24 4.77Q529.23 4.37 528.89 4.14L528.89 4.14L528.89 4.14Q528.56 3.92 528.11 3.91L528.11 3.91L528.11 3.91Q527.88 3.91 527.88 3.65Z"></path></g></svg>