<svg data-v-423bf9ae="" xmlns="http://www.w3.org/2000/svg" viewBox="0 0 426.1914791625069 60" class="font"><!----><!----><!----><g data-v-423bf9ae="" id="a288eecf-fb88-4a94-bfdb-38986b86e3e6" fill="black" transform="matrix(4.073319882187228,0,0,4.073319882187228,-5.336052367077571,-18.370673600973333)"><path d="M13.15 18.47C11.61 18.47 10.69 15.25 9.76 12.90C9.33 11.83 8.00 11.55 7.66 11.48L7.67 11.46C10.54 11.37 12.55 10.06 12.55 7.21C12.55 5.55 11.14 4.66 8.50 4.66C8.20 4.66 3.20 4.57 2.88 4.55L2.84 4.98C3.11 4.97 3.71 4.96 4.07 4.96C4.47 4.96 4.60 5.11 4.60 5.49C4.60 5.69 4.57 5.94 4.51 6.27L3.21 14.18C3.09 14.90 2.62 15.22 2.19 15.22C1.84 15.22 1.51 14.99 1.46 14.58L1.31 14.62C1.44 15.65 2.01 16.00 3.08 16.00C4.59 16.00 5.11 13.77 5.37 12.63L5.65 11.42L5.75 11.03L6.35 8.41C6.48 7.84 7.04 5.80 7.14 4.98C7.79 5.00 8.29 5.00 8.44 5.00C9.71 5.00 10.40 5.67 10.40 6.90C10.40 9.57 9.25 11.09 7.39 11.09L6.25 11.05C6.10 11.04 6.05 11.15 6.02 11.27L6.00 11.44C6.22 11.44 6.51 11.49 6.71 11.83C9.53 17.52 11.40 19.24 13.43 19.24C15.35 19.24 16.14 18.42 16.14 17.81C16.14 17.23 15.26 17.05 14.90 17.05C14.64 18.06 14.12 18.47 13.15 18.47ZM20.95 9.30C20.79 9.30 20.26 9.38 19.95 10.10C19.61 9.48 18.92 9.15 17.84 9.15C15.22 9.15 13.47 10.83 13.47 13.33C13.47 14.93 14.69 16.00 16.51 16.00C18.25 16.00 19.06 14.96 19.56 13.92C19.56 15.25 20.33 16.00 21.16 16.00C21.74 16.00 22.35 15.63 22.75 14.85L23.35 13.67L23.24 13.60L22.76 14.51C22.55 14.92 22.15 15.16 21.80 15.16C21.46 15.16 21.17 14.93 21.17 14.43C21.17 14.33 21.18 14.23 21.21 14.11L21.52 12.91C21.68 12.33 22.23 10.04 22.30 9.30ZM19.74 10.31C19.76 10.35 19.77 10.42 19.77 10.49C19.77 10.60 19.76 10.71 19.75 10.77L19.63 12.56C19.62 12.65 19.58 13.00 19.52 13.15C19.12 14.19 18.40 15.53 17.11 15.53C16.11 15.53 15.58 14.98 15.58 13.97C15.58 11.30 16.71 9.52 18.40 9.52C18.87 9.52 19.45 9.75 19.74 10.31ZM25.67 5.47L25.65 5.61C25.79 5.61 25.88 5.61 25.88 5.90C25.88 6.09 25.84 6.41 25.75 6.95L24.25 15.56C24.25 15.57 24.24 15.65 24.24 15.65C24.24 15.79 24.71 15.86 25.17 15.86L25.83 15.86C25.87 15.86 25.96 15.83 25.96 15.78L26.91 11.79L28.66 10.34C28.96 10.10 29.35 9.86 29.63 9.86C29.87 9.86 30.04 10.02 30.04 10.49C30.04 10.79 29.97 11.25 29.78 11.87L29.55 12.60C29.42 13.07 29.35 13.51 29.35 13.91C29.35 15.17 29.99 16.03 30.95 16.03C31.50 16.03 32.22 15.72 32.68 14.85L33.31 13.60L33.20 13.53L32.69 14.51C32.40 15.07 31.91 15.37 31.53 15.37C31.23 15.37 31.00 15.18 31.00 14.79C31.00 14.61 31.05 14.38 31.17 14.11L31.67 12.91C31.96 12.20 32.09 11.57 32.09 11.05C32.09 9.88 31.43 9.20 30.50 9.20C29.89 9.20 29.17 9.48 28.44 10.08L27.04 11.24L27.85 7.78C27.94 7.29 28.08 6.81 28.08 6.41C28.08 5.85 27.80 5.47 26.74 5.47ZM35.69 9.13C35.14 9.13 34.71 9.49 34.29 10.31L33.65 11.56L33.77 11.63L34.28 10.64C34.49 10.23 34.77 10.01 35 10.01C35.19 10.01 35.33 10.17 35.33 10.52C35.33 10.66 35.31 10.84 35.25 11.05L34.95 12.25C34.81 12.84 34.71 13.47 34.71 14.03C34.71 15.12 35.08 15.99 36.23 15.99C36.80 15.99 37.50 15.70 38.25 15.07L39.71 13.88C39.71 15.33 40.32 15.98 41.14 15.98C41.72 15.98 42.34 15.60 42.72 14.85L43.12 14.08L43.00 14.01L42.60 14.79C42.40 15.19 42.05 15.44 41.78 15.44C41.56 15.44 41.38 15.25 41.38 14.84C41.38 14.72 41.39 14.60 41.42 14.45L42.52 9.52L42.52 9.50C42.52 9.37 42.05 9.30 41.59 9.30L40.46 9.30C40.40 9.30 40.33 9.32 40.32 9.37L39.87 12.25C39.82 12.57 39.76 12.98 39.74 13.41L38.04 14.81C37.74 15.05 37.30 15.27 36.98 15.27C36.62 15.27 36.50 14.96 36.50 14.57C36.50 14.16 36.63 13.65 36.76 13.29L37.03 12.56C37.24 12.01 37.37 11.44 37.37 10.92C37.37 9.93 36.91 9.13 35.69 9.13ZM46.31 5.47L45.25 5.46L45.23 5.59C45.37 5.59 45.46 5.59 45.46 5.89C45.46 6.09 45.42 6.41 45.33 6.95L44.38 12.56C44.30 13.02 44.19 13.64 44.19 14.23C44.19 15.39 44.95 15.96 45.77 15.96C46.44 15.96 47.14 15.59 47.52 14.85L48.12 13.67L48.00 13.60L47.53 14.51C47.35 14.86 46.87 15.15 46.48 15.15C46.16 15.15 45.90 14.96 45.90 14.46C45.90 14.36 45.91 14.24 45.94 14.11L47.13 9.08C47.26 8.50 47.87 6.20 47.93 5.46ZM56.14 14.11C56.01 14.83 55.54 15.15 55.11 15.15C54.76 15.15 54.43 14.92 54.39 14.51L54.24 14.57C54.35 15.54 54.95 15.93 55.86 15.93C57.59 15.93 58.06 13.77 58.30 12.56L58.68 10.66L59.17 10.30C59.58 9.99 59.76 9.95 59.94 9.95C60.51 9.95 61.10 10.58 61.61 11.57C64.54 17.24 66.40 19.24 68.16 19.24C70.09 19.24 70.88 18.42 70.88 17.81C70.88 17.23 69.99 17.05 69.64 17.05C69.38 18.06 68.85 18.47 67.88 18.47C66.46 18.47 65.75 15.94 64.83 13.52C63.97 11.31 62.92 9.20 60.98 9.20C60.70 9.20 60.42 9.23 60.13 9.34C61.69 7.93 63.91 6.17 65.34 6.17C65.56 6.17 65.75 6.21 65.93 6.30C66.14 6.10 66.47 5.58 66.47 5.15C66.47 4.80 66.25 4.51 65.56 4.51C63.79 4.51 59.92 9.00 58.79 10.17L59.27 8.26C59.42 7.68 60.02 5.40 60.09 4.66C60.09 4.66 59.14 4.68 58.45 4.68C58.07 4.68 57.24 4.61 56.45 4.58L56.44 4.72C57.33 4.76 57.58 4.84 57.58 5.33C57.58 5.52 57.54 5.78 57.48 6.13ZM74.22 9.30C74.06 9.30 73.53 9.38 73.22 10.10C72.88 9.48 72.19 9.15 71.11 9.15C68.50 9.15 66.75 10.83 66.75 13.33C66.75 14.93 67.96 16.00 69.78 16.00C71.52 16.00 72.33 14.96 72.83 13.92C72.83 15.25 73.60 16.00 74.43 16.00C75.01 16.00 75.63 15.63 76.02 14.85L76.62 13.67L76.51 13.60L76.04 14.51C75.82 14.92 75.42 15.16 75.07 15.16C74.73 15.16 74.44 14.93 74.44 14.43C74.44 14.33 74.46 14.23 74.48 14.11L74.79 12.91C74.96 12.33 75.50 10.04 75.57 9.30ZM73.01 10.31C73.04 10.35 73.04 10.42 73.04 10.49C73.04 10.60 73.03 10.71 73.02 10.77L72.90 12.56C72.89 12.65 72.86 13.00 72.80 13.15C72.39 14.19 71.67 15.53 70.38 15.53C69.38 15.53 68.85 14.98 68.85 13.97C68.85 11.30 69.98 9.52 71.67 9.52C72.14 9.52 72.72 9.75 73.01 10.31ZM79.53 9.23C78.78 9.23 78.10 9.43 77.65 10.31L77.25 11.08L77.38 11.14L77.77 10.37C77.98 9.97 78.22 9.72 78.39 9.72C78.51 9.72 78.59 9.86 78.59 10.19C78.59 10.32 78.58 10.49 78.54 10.71L77.72 15.64C77.72 15.67 77.71 15.70 77.71 15.71C77.71 15.83 78.12 15.87 78.58 15.87L79.47 15.86C79.47 15.86 79.60 15.83 79.61 15.78L80.34 12.91C80.79 11.11 81.93 9.54 82.80 9.54C83.36 9.54 83.72 10.01 83.80 10.90C83.87 10.93 83.94 10.94 84.02 10.94C84.52 10.94 85.18 10.47 85.18 9.82C85.18 9.13 84.62 8.66 83.79 8.66C82.74 8.66 81.38 9.69 80.77 10.91C80.77 10.79 80.78 10.72 80.78 10.61C80.78 9.84 80.50 9.23 79.53 9.23ZM92.33 5.47L92.31 5.61L92.32 5.61C92.46 5.61 92.54 5.61 92.54 5.89C92.54 6.09 92.50 6.41 92.42 6.95L91.84 10.36C91.56 9.58 90.84 9.15 89.63 9.15C87.29 9.15 85.26 10.78 85.26 13.33C85.26 14.96 86.40 16.00 88.29 16.00C90.06 16.00 90.86 14.94 91.36 13.88C91.36 15.23 92.13 15.99 92.99 15.99C93.58 15.99 94.21 15.63 94.60 14.85L95.20 13.67L95.09 13.60L94.62 14.51C94.40 14.92 94.00 15.16 93.65 15.16C93.31 15.16 93.02 14.93 93.02 14.43C93.02 14.33 93.03 14.23 93.06 14.11L94.51 7.78C94.62 7.29 94.77 6.82 94.77 6.43C94.77 5.87 94.47 5.47 93.40 5.47ZM91.71 11.16L91.47 12.56C91.44 12.76 91.38 12.94 91.31 13.09C90.91 14.14 90.18 15.53 88.89 15.53C87.83 15.53 87.36 15.09 87.36 13.97C87.36 11.55 88.52 9.52 90.18 9.52C90.84 9.52 91.71 9.97 91.71 11.16ZM103.54 9.30C103.38 9.30 102.85 9.38 102.54 10.10C102.20 9.48 101.51 9.15 100.43 9.15C97.82 9.15 96.07 10.83 96.07 13.33C96.07 14.93 97.28 16.00 99.10 16.00C100.84 16.00 101.65 14.96 102.15 13.92C102.15 15.25 102.92 16.00 103.75 16.00C104.33 16.00 104.95 15.63 105.34 14.85L105.94 13.67L105.83 13.60L105.36 14.51C105.14 14.92 104.74 15.16 104.39 15.16C104.05 15.16 103.76 14.93 103.76 14.43C103.76 14.33 103.78 14.23 103.80 14.11L104.11 12.91C104.28 12.33 104.82 10.04 104.89 9.30ZM102.33 10.31C102.35 10.35 102.36 10.42 102.36 10.49C102.36 10.60 102.35 10.71 102.34 10.77L102.22 12.56C102.21 12.65 102.18 13.00 102.12 13.15C101.71 14.19 100.99 15.53 99.70 15.53C98.70 15.53 98.17 14.98 98.17 13.97C98.17 11.30 99.30 9.52 100.99 9.52C101.46 9.52 102.04 9.75 102.33 10.31Z"></path></g><!----><!----></svg>