<svg data-v-423bf9ae="" xmlns="http://www.w3.org/2000/svg" viewBox="0 0 484 90" class="iconLeftSlogan"><!----><!----><!----><g data-v-423bf9ae="" id="d3228928-3e4a-49d7-b9e0-9a91cba4770a" fill="white" transform="matrix(5.917159562968884,0,0,5.917159562968884,107.21199273799331,-18.4615376361349)"><path d="M4.47 3.35L3.98 5.91L6.24 5.91L6.73 3.35L7.91 3.35L7.42 5.91L8.65 5.91L8.65 6.94L7.21 6.94L6.73 9.45L8.65 9.45L8.65 10.49L6.54 10.49L6.05 13.05L4.87 13.05L5.36 10.49L3.09 10.49L2.60 13.05L1.43 13.05L1.92 10.49L0.69 10.49L0.69 9.45L2.11 9.45L2.59 6.94L0.69 6.94L0.69 5.91L2.80 5.91L3.29 3.35L4.47 3.35ZM3.78 6.94L3.29 9.45L5.56 9.45L6.05 6.94L3.78 6.94ZM11.05 6.33L10.64 5.35L10.64 5.35Q11.44 5.04 12.19 4.56L12.19 4.56L12.19 4.56Q12.95 4.07 13.58 3.35L13.58 3.35L14.50 3.35L14.50 13.05L13.20 13.05L13.20 5.15L13.20 5.15Q13.03 5.31 12.79 5.47L12.79 5.47L12.79 5.47Q12.54 5.64 12.26 5.80L12.26 5.80L12.26 5.80Q11.97 5.95 11.66 6.09L11.66 6.09L11.66 6.09Q11.34 6.23 11.05 6.33L11.05 6.33ZM17.93 8.19L17.93 8.19L17.93 8.19Q17.93 5.75 18.80 4.44L18.80 4.44L18.80 4.44Q19.66 3.12 21.18 3.12L21.18 3.12L21.18 3.12Q22.71 3.12 23.57 4.44L23.57 4.44L23.57 4.44Q24.43 5.75 24.43 8.19L24.43 8.19L24.43 8.19Q24.43 10.63 23.57 11.94L23.57 11.94L23.57 11.94Q22.71 13.26 21.18 13.26L21.18 13.26L21.18 13.26Q19.66 13.26 18.80 11.94L18.80 11.94L18.80 11.94Q17.93 10.63 17.93 8.19ZM23.06 8.19L23.06 8.19L23.06 8.19Q23.06 7.39 22.97 6.68L22.97 6.68L22.97 6.68Q22.88 5.96 22.66 5.43L22.66 5.43L22.66 5.43Q22.44 4.90 22.08 4.58L22.08 4.58L22.08 4.58Q21.71 4.27 21.18 4.27L21.18 4.27L21.18 4.27Q20.65 4.27 20.29 4.58L20.29 4.58L20.29 4.58Q19.92 4.90 19.71 5.43L19.71 5.43L19.71 5.43Q19.49 5.96 19.40 6.68L19.40 6.68L19.40 6.68Q19.31 7.39 19.31 8.19L19.31 8.19L19.31 8.19Q19.31 8.99 19.40 9.70L19.40 9.70L19.40 9.70Q19.49 10.42 19.71 10.95L19.71 10.95L19.71 10.95Q19.92 11.48 20.29 11.79L20.29 11.79L20.29 11.79Q20.65 12.11 21.18 12.11L21.18 12.11L21.18 12.11Q21.71 12.11 22.08 11.79L22.08 11.79L22.08 11.79Q22.44 11.48 22.66 10.95L22.66 10.95L22.66 10.95Q22.88 10.42 22.97 9.70L22.97 9.70L22.97 9.70Q23.06 8.99 23.06 8.19ZM25.83 8.19L25.83 8.19L25.83 8.19Q25.83 5.75 26.69 4.44L26.69 4.44L26.69 4.44Q27.55 3.12 29.08 3.12L29.08 3.12L29.08 3.12Q30.60 3.12 31.47 4.44L31.47 4.44L31.47 4.44Q32.33 5.75 32.33 8.19L32.33 8.19L32.33 8.19Q32.33 10.63 31.47 11.94L31.47 11.94L31.47 11.94Q30.60 13.26 29.08 13.26L29.08 13.26L29.08 13.26Q27.55 13.26 26.69 11.94L26.69 11.94L26.69 11.94Q25.83 10.63 25.83 8.19ZM30.95 8.19L30.95 8.19L30.95 8.19Q30.95 7.39 30.86 6.68L30.86 6.68L30.86 6.68Q30.77 5.96 30.56 5.43L30.56 5.43L30.56 5.43Q30.34 4.90 29.97 4.58L29.97 4.58L29.97 4.58Q29.61 4.27 29.08 4.27L29.08 4.27L29.08 4.27Q28.55 4.27 28.18 4.58L28.18 4.58L28.18 4.58Q27.82 4.90 27.60 5.43L27.60 5.43L27.60 5.43Q27.38 5.96 27.29 6.68L27.29 6.68L27.29 6.68Q27.20 7.39 27.20 8.19L27.20 8.19L27.20 8.19Q27.20 8.99 27.29 9.70L27.29 9.70L27.29 9.70Q27.38 10.42 27.60 10.95L27.60 10.95L27.60 10.95Q27.82 11.48 28.18 11.79L28.18 11.79L28.18 11.79Q28.55 12.11 29.08 12.11L29.08 12.11L29.08 12.11Q29.61 12.11 29.97 11.79L29.97 11.79L29.97 11.79Q30.34 11.48 30.56 10.95L30.56 10.95L30.56 10.95Q30.77 10.42 30.86 9.70L30.86 9.70L30.86 9.70Q30.95 8.99 30.95 8.19ZM42.20 8.19L42.20 8.19L42.20 8.19Q42.20 9.45 41.80 10.38L41.80 10.38L41.80 10.38Q41.41 11.31 40.70 11.92L40.70 11.92L40.70 11.92Q39.98 12.53 38.99 12.83L38.99 12.83L38.99 12.83Q38.00 13.13 36.81 13.13L36.81 13.13L36.81 13.13Q36.22 13.13 35.51 13.08L35.51 13.08L35.51 13.08Q34.80 13.03 34.23 12.89L34.23 12.89L34.23 3.49L34.23 3.49Q34.80 3.35 35.51 3.30L35.51 3.30L35.51 3.30Q36.22 3.25 36.81 3.25L36.81 3.25L36.81 3.25Q38.00 3.25 38.99 3.55L38.99 3.55L38.99 3.55Q39.98 3.85 40.70 4.46L40.70 4.46L40.70 4.46Q41.41 5.07 41.80 6.00L41.80 6.00L41.80 6.00Q42.20 6.93 42.20 8.19ZM36.92 11.94L36.92 11.94L36.92 11.94Q38.85 11.94 39.80 10.96L39.80 10.96L39.80 10.96Q40.75 9.97 40.75 8.19L40.75 8.19L40.75 8.19Q40.75 6.41 39.80 5.42L39.80 5.42L39.80 5.42Q38.85 4.44 36.92 4.44L36.92 4.44L36.92 4.44Q36.34 4.44 36.03 4.45L36.03 4.45L36.03 4.45Q35.71 4.47 35.59 4.48L35.59 4.48L35.59 11.90L35.59 11.90Q35.71 11.91 36.03 11.93L36.03 11.93L36.03 11.93Q36.34 11.94 36.92 11.94ZM43.72 9.42L43.72 9.42L43.72 9.42Q43.72 8.46 44.00 7.74L44.00 7.74L44.00 7.74Q44.28 7.01 44.74 6.54L44.74 6.54L44.74 6.54Q45.21 6.06 45.81 5.82L45.81 5.82L45.81 5.82Q46.41 5.59 47.04 5.59L47.04 5.59L47.04 5.59Q48.51 5.59 49.29 6.50L49.29 6.50L49.29 6.50Q50.08 7.42 50.08 9.30L50.08 9.30L50.08 9.30Q50.08 9.38 50.08 9.51L50.08 9.51L50.08 9.51Q50.08 9.65 50.06 9.76L50.06 9.76L45.08 9.76L45.08 9.76Q45.16 10.89 45.74 11.48L45.74 11.48L45.74 11.48Q46.31 12.07 47.53 12.07L47.53 12.07L47.53 12.07Q48.22 12.07 48.69 11.95L48.69 11.95L48.69 11.95Q49.15 11.83 49.39 11.72L49.39 11.72L49.57 12.81L49.57 12.81Q49.34 12.94 48.74 13.08L48.74 13.08L48.74 13.08Q48.15 13.22 47.39 13.22L47.39 13.22L47.39 13.22Q46.44 13.22 45.75 12.93L45.75 12.93L45.75 12.93Q45.05 12.64 44.60 12.14L44.60 12.14L44.60 12.14Q44.16 11.63 43.94 10.94L43.94 10.94L43.94 10.94Q43.72 10.25 43.72 9.42ZM45.11 8.71L48.72 8.71L48.72 8.71Q48.73 7.83 48.28 7.26L48.28 7.26L48.28 7.26Q47.82 6.69 47.03 6.69L47.03 6.69L47.03 6.69Q46.58 6.69 46.23 6.87L46.23 6.87L46.23 6.87Q45.89 7.04 45.65 7.32L45.65 7.32L45.65 7.32Q45.42 7.60 45.28 7.97L45.28 7.97L45.28 7.97Q45.15 8.33 45.11 8.71L45.11 8.71ZM56.29 5.77L57.64 5.77L57.64 5.77Q57.09 7.81 56.36 9.69L56.36 9.69L56.36 9.69Q55.62 11.56 54.94 13.05L54.94 13.05L53.76 13.05L53.76 13.05Q53.07 11.56 52.34 9.69L52.34 9.69L52.34 9.69Q51.60 7.81 51.06 5.77L51.06 5.77L52.46 5.77L52.46 5.77Q52.63 6.45 52.86 7.23L52.86 7.23L52.86 7.23Q53.09 8.01 53.35 8.77L53.35 8.77L53.35 8.77Q53.61 9.53 53.87 10.25L53.87 10.25L53.87 10.25Q54.14 10.96 54.38 11.52L54.38 11.52L54.38 11.52Q54.61 10.96 54.88 10.25L54.88 10.25L54.88 10.25Q55.15 9.53 55.41 8.77L55.41 8.77L55.41 8.77Q55.66 8.01 55.90 7.23L55.90 7.23L55.90 7.23Q56.13 6.45 56.29 5.77L56.29 5.77ZM60.68 12.11L60.68 12.11L60.68 12.11Q61.47 12.11 61.86 11.90L61.86 11.90L61.86 11.90Q62.24 11.69 62.24 11.23L62.24 11.23L62.24 11.23Q62.24 10.75 61.87 10.47L61.87 10.47L61.87 10.47Q61.49 10.19 60.62 9.84L60.62 9.84L60.62 9.84Q60.20 9.67 59.82 9.50L59.82 9.50L59.82 9.50Q59.43 9.32 59.15 9.09L59.15 9.09L59.15 9.09Q58.87 8.85 58.70 8.51L58.70 8.51L58.70 8.51Q58.53 8.18 58.53 7.69L58.53 7.69L58.53 7.69Q58.53 6.72 59.25 6.15L59.25 6.15L59.25 6.15Q59.96 5.59 61.19 5.59L61.19 5.59L61.19 5.59Q61.50 5.59 61.81 5.62L61.81 5.62L61.81 5.62Q62.12 5.66 62.38 5.71L62.38 5.71L62.38 5.71Q62.65 5.75 62.85 5.81L62.85 5.81L62.85 5.81Q63.06 5.87 63.17 5.91L63.17 5.91L62.93 7.03L62.93 7.03Q62.72 6.92 62.27 6.80L62.27 6.80L62.27 6.80Q61.82 6.68 61.19 6.68L61.19 6.68L61.19 6.68Q60.65 6.68 60.24 6.89L60.24 6.89L60.24 6.89Q59.84 7.11 59.84 7.57L59.84 7.57L59.84 7.57Q59.84 7.81 59.93 7.99L59.93 7.99L59.93 7.99Q60.02 8.18 60.21 8.32L60.21 8.32L60.21 8.32Q60.40 8.47 60.68 8.60L60.68 8.60L60.68 8.60Q60.96 8.72 61.35 8.86L61.35 8.86L61.35 8.86Q61.87 9.06 62.27 9.25L62.27 9.25L62.27 9.25Q62.68 9.44 62.97 9.69L62.97 9.69L62.97 9.69Q63.25 9.94 63.41 10.30L63.41 10.30L63.41 10.30Q63.56 10.65 63.56 11.17L63.56 11.17L63.56 11.17Q63.56 12.18 62.81 12.70L62.81 12.70L62.81 12.70Q62.06 13.22 60.68 13.22L60.68 13.22L60.68 13.22Q59.71 13.22 59.16 13.05L59.16 13.05L59.16 13.05Q58.62 12.89 58.42 12.81L58.42 12.81L58.66 11.69L58.66 11.69Q58.88 11.77 59.37 11.94L59.37 11.94L59.37 11.94Q59.86 12.11 60.68 12.11Z"></path></g><!----><g data-v-423bf9ae="" id="fd7787e5-5703-4e72-a186-7a83734344e3" transform="matrix(2.852072528086791,0,0,2.852072528086791,0.3618419448213217,-0.41116010653409063)" stroke="none" fill="white"><path d="M16 23.787L8.102 16 16 8.213 23.898 16 16 23.787zM9.525 16L16 22.383 22.475 16 16 9.617 9.525 16z"></path><path d="M15.915 31.778L-.005 16.084 16.085.222l15.92 15.694-16.09 15.862zM1.419 16.084l14.496 14.29 14.666-14.458-14.496-14.29L1.419 16.084z"></path><path d="M15.5.924h1v30.152h-1z"></path></g><!----><g data-v-423bf9ae="" id="23e1efea-de75-4b79-8fdf-f18198e9fa64" fill="white" transform="matrix(2.2974331156809877,0,0,2.2974331156809877,104.24172439374286,48.926372103384665)"><path d="M3.21 15.61L3.21 15.61L3.21 15.61Q3.14 15.04 3.10 14.36L3.10 14.36L3.10 14.36Q3.07 13.68 3.07 13.09L3.07 13.09L3.07 13.09Q3.07 12.15 3.13 11.29L3.13 11.29L3.13 11.29Q3.19 10.43 3.28 9.48L3.28 9.48L3.28 9.48Q3.37 8.54 3.49 7.43L3.49 7.43L3.49 7.43Q3.60 6.31 3.68 4.86L3.68 4.86L3.68 4.86Q3.86 4.86 4.21 4.96L4.21 4.96L4.21 4.96Q4.55 5.07 4.90 5.21L4.90 5.21L4.90 5.21Q5.25 5.35 5.52 5.49L5.52 5.49L5.52 5.49Q5.78 5.64 5.82 5.74L5.82 5.74L5.82 5.74Q5.59 6.29 5.40 7.18L5.40 7.18L5.40 7.18Q5.21 8.06 5.08 9.11L5.08 9.11L5.08 9.11Q4.96 10.16 4.89 11.27L4.89 11.27L4.89 11.27Q4.82 12.38 4.82 13.34L4.82 13.34L4.82 13.34Q4.82 13.79 4.83 14.22L4.83 14.22L4.83 14.22Q4.84 14.66 4.87 15.02L4.87 15.02L4.87 15.02Q5.17 14.59 5.55 13.78L5.55 13.78L5.55 13.78Q5.94 12.98 6.35 11.98L6.35 11.98L6.35 11.98Q6.76 10.99 7.17 9.91L7.17 9.91L7.17 9.91Q7.59 8.82 7.94 7.83L7.94 7.83L7.94 7.83Q8.29 6.85 8.53 6.05L8.53 6.05L8.53 6.05Q8.78 5.26 8.88 4.86L8.88 4.86L8.88 4.86Q9.06 4.86 9.42 4.96L9.42 4.96L9.42 4.96Q9.77 5.07 10.12 5.21L10.12 5.21L10.12 5.21Q10.46 5.35 10.72 5.49L10.72 5.49L10.72 5.49Q10.99 5.64 11.02 5.74L11.02 5.74L11.02 5.74Q10.78 6.29 10.59 7.18L10.59 7.18L10.59 7.18Q10.40 8.06 10.28 9.11L10.28 9.11L10.28 9.11Q10.15 10.16 10.08 11.27L10.08 11.27L10.08 11.27Q10.01 12.38 10.01 13.34L10.01 13.34L10.01 13.34Q10.01 13.75 10.02 14.15L10.02 14.15L10.02 14.15Q10.02 14.55 10.05 14.87L10.05 14.87L10.05 14.87Q10.50 13.71 10.98 12.56L10.98 12.56L10.98 12.56Q11.47 11.42 11.94 10.38L11.94 10.38L11.94 10.38Q12.42 9.34 12.87 8.43L12.87 8.43L12.87 8.43Q13.31 7.53 13.69 6.82L13.69 6.82L13.69 6.82Q14.07 6.12 14.35 5.66L14.35 5.66L14.35 5.66Q14.63 5.19 14.78 5.04L14.78 5.04L14.78 5.04Q15.11 5.08 15.45 5.27L15.45 5.27L15.45 5.27Q15.79 5.46 16.06 5.75L16.06 5.75L16.06 5.75Q15.65 6.08 15.13 6.81L15.13 6.81L15.13 6.81Q14.62 7.55 14.07 8.51L14.07 8.51L14.07 8.51Q13.52 9.48 12.97 10.57L12.97 10.57L12.97 10.57Q12.42 11.66 11.94 12.70L11.94 12.70L11.94 12.70Q11.47 13.73 11.10 14.63L11.10 14.63L11.10 14.63Q10.72 15.53 10.53 16.07L10.53 16.07L10.53 16.07Q10.16 16.24 9.81 16.24L9.81 16.24L9.81 16.24Q9.37 16.18 8.97 16.02L8.97 16.02L8.97 16.02Q8.57 15.85 8.40 15.61L8.40 15.61L8.40 15.61Q8.36 15.39 8.33 15.09L8.33 15.09L8.33 15.09Q8.30 14.78 8.29 14.49L8.29 14.49L8.29 14.49Q8.27 14.20 8.27 13.92L8.27 13.92L8.27 13.92Q8.26 13.65 8.26 13.45L8.26 13.45L8.26 13.45Q8.26 12.21 8.36 10.91L8.36 10.91L8.36 10.91Q8.46 9.62 8.60 8.13L8.60 8.13L8.60 8.13Q8.27 9.09 7.88 10.18L7.88 10.18L7.88 10.18Q7.49 11.27 7.06 12.34L7.06 12.34L7.06 12.34Q6.64 13.41 6.20 14.38L6.20 14.38L6.20 14.38Q5.75 15.36 5.33 16.07L5.33 16.07L5.33 16.07Q4.97 16.24 4.62 16.24L4.62 16.24L4.62 16.24Q4.17 16.18 3.77 16.02L3.77 16.02L3.77 16.02Q3.37 15.85 3.21 15.61ZM27.54 9.21L27.54 9.21L27.54 9.21Q28 9.21 28.26 9.46L28.26 9.46L28.26 9.46Q28.52 9.72 28.52 10.16L28.52 10.16L28.52 10.16Q28.52 10.28 28.50 10.39L28.50 10.39L28.50 10.39Q28.48 10.51 28.45 10.60L28.45 10.60L28.45 10.60Q28.27 10.57 28.04 10.55L28.04 10.55L28.04 10.55Q27.82 10.53 27.51 10.53L27.51 10.53L27.51 10.53Q26.91 10.53 26.29 10.63L26.29 10.63L26.29 10.63Q25.68 10.74 25.12 10.81L25.12 10.81L25.12 10.81Q24.79 11.55 24.53 12.24L24.53 12.24L24.53 12.24Q24.26 12.94 24.07 13.51L24.07 13.51L24.07 13.51Q23.88 14.08 23.78 14.50L23.78 14.50L23.78 14.50Q23.67 14.92 23.66 15.13L23.66 15.13L23.66 15.13Q24.79 14.90 25.95 14.73L25.95 14.73L25.95 14.73Q27.10 14.56 28.38 14.48L28.38 14.48L28.38 14.48Q28.53 14.71 28.64 14.99L28.64 14.99L28.64 14.99Q28.74 15.27 28.74 15.60L28.74 15.60L28.74 15.60Q28.74 15.68 28.74 15.78L28.74 15.78L28.74 15.78Q28.74 15.88 28.71 15.97L28.71 15.97L28.71 15.97Q28.32 15.96 27.89 15.95L27.89 15.95L27.89 15.95Q27.45 15.95 26.75 15.95L26.75 15.95L26.75 15.95Q26.29 15.95 25.88 15.97L25.88 15.97L25.88 15.97Q25.47 15.99 25.05 16.03L25.05 16.03L25.05 16.03Q24.63 16.07 24.16 16.14L24.16 16.14L24.16 16.14Q23.69 16.21 23.10 16.31L23.10 16.31L23.10 16.31Q22.46 16.06 21.85 15.08L21.85 15.08L21.85 15.08Q22.09 14.57 22.52 13.54L22.52 13.54L22.52 13.54Q22.95 12.52 23.60 10.79L23.60 10.79L23.60 10.79Q22.97 10.60 22.78 10.09L22.78 10.09L22.78 10.09Q22.85 10.02 23.18 9.92L23.18 9.92L23.18 9.92Q23.52 9.81 24.01 9.70L24.01 9.70L24.01 9.70Q24.22 9.16 24.37 8.75L24.37 8.75L24.37 8.75Q24.51 8.34 24.63 7.99L24.63 7.99L24.63 7.99Q24.74 7.63 24.83 7.29L24.83 7.29L24.83 7.29Q24.92 6.94 25.00 6.54L25.00 6.54L25.00 6.54Q24.51 6.51 24.23 6.27L24.23 6.27L24.23 6.27Q23.95 6.02 23.95 5.63L23.95 5.63L23.95 5.63Q23.95 5.52 23.99 5.36L23.99 5.36L23.99 5.36Q24.02 5.21 24.07 5.10L24.07 5.10L24.07 5.10Q24.35 5.14 24.60 5.15L24.60 5.15L24.60 5.15Q24.86 5.17 25.28 5.17L25.28 5.17L25.28 5.17Q26.17 5.17 26.94 5.12L26.94 5.12L26.94 5.12Q27.71 5.07 28.33 5.01L28.33 5.01L28.33 5.01Q28.95 4.96 29.40 4.91L29.40 4.91L29.40 4.91Q29.85 4.86 30.09 4.86L30.09 4.86L30.09 4.86Q30.41 4.86 30.66 5.19L30.66 5.19L30.66 5.19Q30.91 5.53 31.04 6.15L31.04 6.15L31.04 6.15Q30.60 6.10 30.33 6.09L30.33 6.09L30.33 6.09Q30.06 6.08 29.85 6.08L29.85 6.08L29.85 6.08Q29.08 6.08 28.44 6.15L28.44 6.15L28.44 6.15Q27.80 6.23 27.22 6.31L27.22 6.31L27.22 6.31Q27.13 6.44 27.03 6.64L27.03 6.64L27.03 6.64Q26.92 6.83 26.75 7.18L26.75 7.18L26.75 7.18Q26.59 7.53 26.34 8.06L26.34 8.06L26.34 8.06Q26.10 8.60 25.75 9.39L25.75 9.39L25.75 9.39Q26.28 9.31 26.75 9.26L26.75 9.26L26.75 9.26Q27.22 9.21 27.54 9.21ZM55.37 10.72L55.37 10.72L55.37 10.72Q55.73 10.72 55.94 10.98L55.94 10.98L55.94 10.98Q56.15 11.23 56.15 11.68L56.15 11.68L56.15 11.68Q56.15 11.79 56.14 11.91L56.14 11.91L56.14 11.91Q56.13 12.03 56.10 12.11L56.10 12.11L56.10 12.11Q55.80 12.04 55.45 12.03L55.45 12.03L55.45 12.03Q55.37 12.64 55.01 13.32L55.01 13.32L55.01 13.32Q54.64 14 54.12 14.60L54.12 14.60L54.12 14.60Q53.61 15.19 52.99 15.64L52.99 15.64L52.99 15.64Q52.37 16.09 51.77 16.24L51.77 16.24L51.77 16.24Q49.90 16.20 49.03 15.27L49.03 15.27L49.03 15.27Q48.17 14.34 48.17 12.36L48.17 12.36L48.17 12.36Q48.17 10.92 48.71 9.57L48.71 9.57L48.71 9.57Q49.24 8.22 50.12 7.17L50.12 7.17L50.12 7.17Q51.00 6.12 52.14 5.48L52.14 5.48L52.14 5.48Q53.28 4.84 54.52 4.84L54.52 4.84L54.52 4.84Q55.48 4.84 56.02 5.25L56.02 5.25L56.02 5.25Q56.56 5.66 56.56 6.40L56.56 6.40L56.56 6.40Q56.56 6.89 56.33 7.31L56.33 7.31L56.33 7.31Q56.10 7.73 55.57 8.22L55.57 8.22L55.57 8.22Q55.24 8.12 55.01 7.88L55.01 7.88L55.01 7.88Q54.77 7.63 54.71 7.31L54.71 7.31L54.71 7.31Q55.19 6.96 55.38 6.66L55.38 6.66L55.38 6.66Q55.58 6.37 55.58 5.96L55.58 5.96L55.58 5.96Q55.58 5.32 54.81 5.32L54.81 5.32L54.81 5.32Q54.18 5.32 53.46 5.79L53.46 5.79L53.46 5.79Q52.74 6.26 52.01 7.14L52.01 7.14L52.01 7.14Q50.97 8.39 50.50 9.71L50.50 9.71L50.50 9.71Q50.02 11.03 50.02 12.68L50.02 12.68L50.02 12.68Q50.02 13.30 50.15 13.80L50.15 13.80L50.15 13.80Q50.27 14.31 50.48 14.69L50.48 14.69L50.48 14.69Q50.69 15.06 50.98 15.29L50.98 15.29L50.98 15.29Q51.27 15.51 51.60 15.54L51.60 15.54L51.60 15.54Q52.05 15.44 52.50 15.09L52.50 15.09L52.50 15.09Q52.95 14.73 53.32 14.25L53.32 14.25L53.32 14.25Q53.69 13.76 53.95 13.21L53.95 13.21L53.95 13.21Q54.21 12.66 54.26 12.15L54.26 12.15L54.26 12.15Q53.87 12.24 53.51 12.31L53.51 12.31L53.51 12.31Q53.16 12.39 52.84 12.39L52.84 12.39L52.84 12.39Q52.42 12.39 52.10 12.18L52.10 12.18L52.10 12.18Q51.79 11.97 51.67 11.61L51.67 11.61L51.67 11.61Q51.93 11.47 52.41 11.31L52.41 11.31L52.41 11.31Q52.89 11.16 53.44 11.03L53.44 11.03L53.44 11.03Q53.98 10.89 54.51 10.81L54.51 10.81L54.51 10.81Q55.03 10.72 55.37 10.72ZM70.17 4.98L70.17 4.98L70.17 4.98Q70.43 5.10 70.71 5.27L70.71 5.27L70.71 5.27Q70.99 5.45 71.23 5.63L71.23 5.63L71.23 5.63Q71.47 5.81 71.63 5.98L71.63 5.98L71.63 5.98Q71.79 6.16 71.81 6.27L71.81 6.27L71.81 6.27Q71.57 6.22 71.33 6.20L71.33 6.20L71.33 6.20Q71.09 6.17 70.90 6.17L70.90 6.17L70.90 6.17Q70.27 6.17 69.64 6.48L69.64 6.48L69.64 6.48Q69.02 6.79 68.46 7.32L68.46 7.32L68.46 7.32Q67.90 7.85 67.42 8.57L67.42 8.57L67.42 8.57Q66.95 9.28 66.60 10.09L66.60 10.09L66.60 10.09Q66.26 10.91 66.07 11.77L66.07 11.77L66.07 11.77Q65.87 12.64 65.87 13.48L65.87 13.48L65.87 13.48Q65.87 14.57 66.23 15.11L66.23 15.11L66.23 15.11Q66.60 15.64 67.30 15.64L67.30 15.64L67.30 15.64Q67.63 15.64 68.03 15.51L68.03 15.51L68.03 15.51Q68.42 15.37 68.82 15.13L68.82 15.13L68.82 15.13Q69.23 14.90 69.62 14.56L69.62 14.56L69.62 14.56Q70.01 14.22 70.35 13.82L70.35 13.82L70.35 13.82Q70.84 13.23 71.23 12.48L71.23 12.48L71.23 12.48Q71.62 11.73 71.90 10.89L71.90 10.89L71.90 10.89Q72.17 10.05 72.32 9.16L72.32 9.16L72.32 9.16Q72.46 8.27 72.46 7.42L72.46 7.42L72.46 7.42Q72.46 7.08 72.45 6.85L72.45 6.85L72.45 6.85Q72.44 6.62 72.41 6.46L72.41 6.46L72.41 6.46Q72.39 6.30 72.38 6.20L72.38 6.20L72.38 6.20Q72.37 6.10 72.35 6.03L72.35 6.03L72.35 6.03Q72.52 6.12 72.72 6.24L72.72 6.24L72.72 6.24Q72.93 6.36 73.10 6.59L73.10 6.59L73.10 6.59Q73.28 6.82 73.39 7.20L73.39 7.20L73.39 7.20Q73.51 7.57 73.51 8.18L73.51 8.18L73.51 8.18Q73.51 9.16 73.28 10.10L73.28 10.10L73.28 10.10Q73.05 11.05 72.64 11.90L72.64 11.90L72.64 11.90Q72.23 12.75 71.67 13.50L71.67 13.50L71.67 13.50Q71.11 14.24 70.46 14.80L70.46 14.80L70.46 14.80Q69.62 15.54 68.67 15.95L68.67 15.95L68.67 15.95Q67.72 16.35 66.84 16.35L66.84 16.35L66.84 16.35Q65.55 16.35 64.87 15.53L64.87 15.53L64.87 15.53Q64.19 14.71 64.19 13.12L64.19 13.12L64.19 13.12Q64.19 12.26 64.38 11.31L64.38 11.31L64.38 11.31Q64.57 10.36 64.91 9.44L64.91 9.44L64.91 9.44Q65.25 8.51 65.73 7.68L65.73 7.68L65.73 7.68Q66.21 6.85 66.77 6.21L66.77 6.21L66.77 6.21Q67.34 5.57 67.99 5.19L67.99 5.19L67.99 5.19Q68.64 4.82 69.33 4.82L69.33 4.82L69.33 4.82Q69.55 4.82 69.75 4.85L69.75 4.85L69.75 4.85Q69.94 4.89 70.17 4.98ZM98.92 10.72L98.92 10.72L98.92 10.72Q99.29 10.72 99.50 10.98L99.50 10.98L99.50 10.98Q99.71 11.23 99.71 11.68L99.71 11.68L99.71 11.68Q99.71 11.79 99.69 11.91L99.69 11.91L99.69 11.91Q99.68 12.03 99.65 12.11L99.65 12.11L99.65 12.11Q99.36 12.04 99.01 12.03L99.01 12.03L99.01 12.03Q98.92 12.64 98.56 13.32L98.56 13.32L98.56 13.32Q98.20 14 97.68 14.60L97.68 14.60L97.68 14.60Q97.16 15.19 96.54 15.64L96.54 15.64L96.54 15.64Q95.93 16.09 95.33 16.24L95.33 16.24L95.33 16.24Q93.45 16.20 92.59 15.27L92.59 15.27L92.59 15.27Q91.73 14.34 91.73 12.36L91.73 12.36L91.73 12.36Q91.73 10.92 92.26 9.57L92.26 9.57L92.26 9.57Q92.79 8.22 93.67 7.17L93.67 7.17L93.67 7.17Q94.56 6.12 95.70 5.48L95.70 5.48L95.70 5.48Q96.84 4.84 98.07 4.84L98.07 4.84L98.07 4.84Q99.04 4.84 99.57 5.25L99.57 5.25L99.57 5.25Q100.11 5.66 100.11 6.40L100.11 6.40L100.11 6.40Q100.11 6.89 99.88 7.31L99.88 7.31L99.88 7.31Q99.65 7.73 99.12 8.22L99.12 8.22L99.12 8.22Q98.80 8.12 98.56 7.88L98.56 7.88L98.56 7.88Q98.32 7.63 98.27 7.31L98.27 7.31L98.27 7.31Q98.74 6.96 98.94 6.66L98.94 6.66L98.94 6.66Q99.13 6.37 99.13 5.96L99.13 5.96L99.13 5.96Q99.13 5.32 98.36 5.32L98.36 5.32L98.36 5.32Q97.73 5.32 97.01 5.79L97.01 5.79L97.01 5.79Q96.29 6.26 95.56 7.14L95.56 7.14L95.56 7.14Q94.53 8.39 94.05 9.71L94.05 9.71L94.05 9.71Q93.58 11.03 93.58 12.68L93.58 12.68L93.58 12.68Q93.58 13.30 93.70 13.80L93.70 13.80L93.70 13.80Q93.83 14.31 94.04 14.69L94.04 14.69L94.04 14.69Q94.25 15.06 94.53 15.29L94.53 15.29L94.53 15.29Q94.82 15.51 95.16 15.54L95.16 15.54L95.16 15.54Q95.61 15.44 96.05 15.09L96.05 15.09L96.05 15.09Q96.50 14.73 96.87 14.25L96.87 14.25L96.87 14.25Q97.24 13.76 97.50 13.21L97.50 13.21L97.50 13.21Q97.76 12.66 97.82 12.15L97.82 12.15L97.82 12.15Q97.43 12.24 97.07 12.31L97.07 12.31L97.07 12.31Q96.71 12.39 96.39 12.39L96.39 12.39L96.39 12.39Q95.97 12.39 95.65 12.18L95.65 12.18L95.65 12.18Q95.34 11.97 95.23 11.61L95.23 11.61L95.23 11.61Q95.48 11.47 95.96 11.31L95.96 11.31L95.96 11.31Q96.45 11.16 96.99 11.03L96.99 11.03L96.99 11.03Q97.54 10.89 98.06 10.81L98.06 10.81L98.06 10.81Q98.59 10.72 98.92 10.72ZM113.05 9.21L113.05 9.21L113.05 9.21Q113.51 9.21 113.77 9.46L113.77 9.46L113.77 9.46Q114.03 9.72 114.03 10.16L114.03 10.16L114.03 10.16Q114.03 10.28 114.01 10.39L114.01 10.39L114.01 10.39Q113.99 10.51 113.96 10.60L113.96 10.60L113.96 10.60Q113.78 10.57 113.55 10.55L113.55 10.55L113.55 10.55Q113.33 10.53 113.02 10.53L113.02 10.53L113.02 10.53Q112.42 10.53 111.80 10.63L111.80 10.63L111.80 10.63Q111.19 10.74 110.63 10.81L110.63 10.81L110.63 10.81Q110.31 11.55 110.04 12.24L110.04 12.24L110.04 12.24Q109.77 12.94 109.58 13.51L109.58 13.51L109.58 13.51Q109.40 14.08 109.29 14.50L109.29 14.50L109.29 14.50Q109.19 14.92 109.17 15.13L109.17 15.13L109.17 15.13Q110.31 14.90 111.46 14.73L111.46 14.73L111.46 14.73Q112.62 14.56 113.89 14.48L113.89 14.48L113.89 14.48Q114.04 14.71 114.15 14.99L114.15 14.99L114.15 14.99Q114.25 15.27 114.25 15.60L114.25 15.60L114.25 15.60Q114.25 15.68 114.25 15.78L114.25 15.78L114.25 15.78Q114.25 15.88 114.23 15.97L114.23 15.97L114.23 15.97Q113.83 15.96 113.40 15.95L113.40 15.95L113.40 15.95Q112.97 15.95 112.27 15.95L112.27 15.95L112.27 15.95Q111.80 15.95 111.39 15.97L111.39 15.97L111.39 15.97Q110.98 15.99 110.56 16.03L110.56 16.03L110.56 16.03Q110.14 16.07 109.67 16.14L109.67 16.14L109.67 16.14Q109.20 16.21 108.61 16.31L108.61 16.31L108.61 16.31Q107.97 16.06 107.37 15.08L107.37 15.08L107.37 15.08Q107.60 14.57 108.03 13.54L108.03 13.54L108.03 13.54Q108.46 12.52 109.12 10.79L109.12 10.79L109.12 10.79Q108.49 10.60 108.29 10.09L108.29 10.09L108.29 10.09Q108.36 10.02 108.70 9.92L108.70 9.92L108.70 9.92Q109.03 9.81 109.52 9.70L109.52 9.70L109.52 9.70Q109.73 9.16 109.88 8.75L109.88 8.75L109.88 8.75Q110.03 8.34 110.14 7.99L110.14 7.99L110.14 7.99Q110.25 7.63 110.34 7.29L110.34 7.29L110.34 7.29Q110.43 6.94 110.52 6.54L110.52 6.54L110.52 6.54Q110.03 6.51 109.75 6.27L109.75 6.27L109.75 6.27Q109.47 6.02 109.47 5.63L109.47 5.63L109.47 5.63Q109.47 5.52 109.50 5.36L109.50 5.36L109.50 5.36Q109.54 5.21 109.58 5.10L109.58 5.10L109.58 5.10Q109.86 5.14 110.12 5.15L110.12 5.15L110.12 5.15Q110.38 5.17 110.80 5.17L110.80 5.17L110.80 5.17Q111.68 5.17 112.45 5.12L112.45 5.12L112.45 5.12Q113.22 5.07 113.84 5.01L113.84 5.01L113.84 5.01Q114.46 4.96 114.91 4.91L114.91 4.91L114.91 4.91Q115.36 4.86 115.60 4.86L115.60 4.86L115.60 4.86Q115.92 4.86 116.17 5.19L116.17 5.19L116.17 5.19Q116.42 5.53 116.55 6.15L116.55 6.15L116.55 6.15Q116.12 6.10 115.84 6.09L115.84 6.09L115.84 6.09Q115.57 6.08 115.36 6.08L115.36 6.08L115.36 6.08Q114.59 6.08 113.95 6.15L113.95 6.15L113.95 6.15Q113.32 6.23 112.73 6.31L112.73 6.31L112.73 6.31Q112.64 6.44 112.54 6.64L112.54 6.64L112.54 6.64Q112.43 6.83 112.27 7.18L112.27 7.18L112.27 7.18Q112.10 7.53 111.85 8.06L111.85 8.06L111.85 8.06Q111.61 8.60 111.26 9.39L111.26 9.39L111.26 9.39Q111.79 9.31 112.26 9.26L112.26 9.26L112.26 9.26Q112.73 9.21 113.05 9.21ZM125.57 6.69L125.57 6.69L125.57 6.69Q125.01 6.69 124.70 6.38L124.70 6.38L124.70 6.38Q124.40 6.06 124.40 5.61L124.40 5.61L124.40 5.61Q124.40 5.50 124.44 5.35L124.44 5.35L124.44 5.35Q124.47 5.19 124.53 5.08L124.53 5.08L124.53 5.08Q124.71 5.17 125.07 5.20L125.07 5.20L125.07 5.20Q125.43 5.24 125.90 5.24L125.90 5.24L125.90 5.24Q126.62 5.24 127.52 5.17L127.52 5.17L127.52 5.17Q128.42 5.11 129.25 5.04L129.25 5.04L129.25 5.04Q130.07 4.97 130.70 4.91L130.70 4.91L130.70 4.91Q131.33 4.84 131.52 4.84L131.52 4.84L131.52 4.84Q132.03 4.84 132.26 5.23L132.26 5.23L132.26 5.23Q132.50 5.61 132.61 6.26L132.61 6.26L132.61 6.26Q132.24 6.23 131.89 6.21L131.89 6.21L131.89 6.21Q131.53 6.19 131.28 6.19L131.28 6.19L131.28 6.19Q130.83 6.19 130.37 6.22L130.37 6.22L130.37 6.22Q129.92 6.24 129.46 6.30L129.46 6.30L129.46 6.30Q129.26 6.71 129.02 7.26L129.02 7.26L129.02 7.26Q128.79 7.81 128.55 8.41L128.55 8.41L128.55 8.41Q128.32 9.02 128.11 9.61L128.11 9.61L128.11 9.61Q127.90 10.21 127.75 10.68L127.75 10.68L127.75 10.68Q127.44 11.61 127.21 12.39L127.21 12.39L127.21 12.39Q126.98 13.17 126.80 13.85L126.80 13.85L126.80 13.85Q126.63 14.53 126.50 15.15L126.50 15.15L126.50 15.15Q126.38 15.76 126.28 16.35L126.28 16.35L126.28 16.35Q125.34 16.21 124.71 15.18L124.71 15.18L124.71 15.18Q124.82 14.74 124.98 14.23L124.98 14.23L124.98 14.23Q125.15 13.72 125.36 13.07L125.36 13.07L125.36 13.07Q125.58 12.42 125.87 11.59L125.87 11.59L125.87 11.59Q126.17 10.77 126.55 9.72L126.55 9.72L126.55 9.72Q126.69 9.32 126.84 8.90L126.84 8.90L126.84 8.90Q126.99 8.47 127.14 8.05L127.14 8.05L127.14 8.05Q127.29 7.63 127.41 7.24L127.41 7.24L127.41 7.24Q127.53 6.85 127.61 6.52L127.61 6.52L127.61 6.52Q127.02 6.59 126.50 6.64L126.50 6.64L126.50 6.64Q125.97 6.69 125.57 6.69Z"></path></g></svg>