<svg data-v-fde0c5aa="" xmlns="http://www.w3.org/2000/svg" viewBox="0 0 300 300" class="font"><!----><defs data-v-fde0c5aa=""><linearGradient data-v-fde0c5aa="" gradientTransform="rotate(25)" id="91eb5639-83f8-4a66-8504-2c2dafd1a4bf" x1="0%" y1="0%" x2="100%" y2="0%"><stop data-v-fde0c5aa="" offset="0%" stop-color="#01648B" stop-opacity="1"></stop><stop data-v-fde0c5aa="" offset="100%" stop-color="#5BD0A4" stop-opacity="1"></stop></linearGradient></defs><rect data-v-fde0c5aa="" fill="url(#91eb5639-83f8-4a66-8504-2c2dafd1a4bf)" x="0" y="0" width="300px" height="300px" class="logo-background-square"></rect><defs data-v-fde0c5aa=""><!----></defs><g data-v-fde0c5aa="" id="522f1620-827e-491c-b6d5-a34e3d35b0cb" fill="#ffffff" transform="matrix(3.499284084442965,0,0,3.499284084442965,37.585493781503715,121.34086314818146)"><path d="M4.47 3.35L3.98 5.91L6.24 5.91L6.73 3.35L7.91 3.35L7.42 5.91L8.65 5.91L8.65 6.94L7.21 6.94L6.73 9.45L8.65 9.45L8.65 10.49L6.54 10.49L6.05 13.05L4.87 13.05L5.36 10.49L3.09 10.49L2.60 13.05L1.43 13.05L1.92 10.49L0.69 10.49L0.69 9.45L2.11 9.45L2.59 6.94L0.69 6.94L0.69 5.91L2.80 5.91L3.29 3.35L4.47 3.35ZM3.78 6.94L3.29 9.45L5.56 9.45L6.05 6.94L3.78 6.94ZM11.05 6.33L10.64 5.35L10.64 5.35Q11.44 5.04 12.19 4.56L12.19 4.56L12.19 4.56Q12.95 4.07 13.58 3.35L13.58 3.35L14.50 3.35L14.50 13.05L13.20 13.05L13.20 5.15L13.20 5.15Q13.03 5.31 12.79 5.47L12.79 5.47L12.79 5.47Q12.54 5.64 12.26 5.80L12.26 5.80L12.26 5.80Q11.97 5.95 11.66 6.09L11.66 6.09L11.66 6.09Q11.34 6.23 11.05 6.33L11.05 6.33ZM17.93 8.19L17.93 8.19L17.93 8.19Q17.93 5.75 18.80 4.44L18.80 4.44L18.80 4.44Q19.66 3.12 21.18 3.12L21.18 3.12L21.18 3.12Q22.71 3.12 23.57 4.44L23.57 4.44L23.57 4.44Q24.43 5.75 24.43 8.19L24.43 8.19L24.43 8.19Q24.43 10.63 23.57 11.94L23.57 11.94L23.57 11.94Q22.71 13.26 21.18 13.26L21.18 13.26L21.18 13.26Q19.66 13.26 18.80 11.94L18.80 11.94L18.80 11.94Q17.93 10.63 17.93 8.19ZM23.06 8.19L23.06 8.19L23.06 8.19Q23.06 7.39 22.97 6.68L22.97 6.68L22.97 6.68Q22.88 5.96 22.66 5.43L22.66 5.43L22.66 5.43Q22.44 4.90 22.08 4.58L22.08 4.58L22.08 4.58Q21.71 4.27 21.18 4.27L21.18 4.27L21.18 4.27Q20.65 4.27 20.29 4.58L20.29 4.58L20.29 4.58Q19.92 4.90 19.71 5.43L19.71 5.43L19.71 5.43Q19.49 5.96 19.40 6.68L19.40 6.68L19.40 6.68Q19.31 7.39 19.31 8.19L19.31 8.19L19.31 8.19Q19.31 8.99 19.40 9.70L19.40 9.70L19.40 9.70Q19.49 10.42 19.71 10.95L19.71 10.95L19.71 10.95Q19.92 11.48 20.29 11.79L20.29 11.79L20.29 11.79Q20.65 12.11 21.18 12.11L21.18 12.11L21.18 12.11Q21.71 12.11 22.08 11.79L22.08 11.79L22.08 11.79Q22.44 11.48 22.66 10.95L22.66 10.95L22.66 10.95Q22.88 10.42 22.97 9.70L22.97 9.70L22.97 9.70Q23.06 8.99 23.06 8.19ZM25.83 8.19L25.83 8.19L25.83 8.19Q25.83 5.75 26.69 4.44L26.69 4.44L26.69 4.44Q27.55 3.12 29.08 3.12L29.08 3.12L29.08 3.12Q30.60 3.12 31.47 4.44L31.47 4.44L31.47 4.44Q32.33 5.75 32.33 8.19L32.33 8.19L32.33 8.19Q32.33 10.63 31.47 11.94L31.47 11.94L31.47 11.94Q30.60 13.26 29.08 13.26L29.08 13.26L29.08 13.26Q27.55 13.26 26.69 11.94L26.69 11.94L26.69 11.94Q25.83 10.63 25.83 8.19ZM30.95 8.19L30.95 8.19L30.95 8.19Q30.95 7.39 30.86 6.68L30.86 6.68L30.86 6.68Q30.77 5.96 30.56 5.43L30.56 5.43L30.56 5.43Q30.34 4.90 29.97 4.58L29.97 4.58L29.97 4.58Q29.61 4.27 29.08 4.27L29.08 4.27L29.08 4.27Q28.55 4.27 28.18 4.58L28.18 4.58L28.18 4.58Q27.82 4.90 27.60 5.43L27.60 5.43L27.60 5.43Q27.38 5.96 27.29 6.68L27.29 6.68L27.29 6.68Q27.20 7.39 27.20 8.19L27.20 8.19L27.20 8.19Q27.20 8.99 27.29 9.70L27.29 9.70L27.29 9.70Q27.38 10.42 27.60 10.95L27.60 10.95L27.60 10.95Q27.82 11.48 28.18 11.79L28.18 11.79L28.18 11.79Q28.55 12.11 29.08 12.11L29.08 12.11L29.08 12.11Q29.61 12.11 29.97 11.79L29.97 11.79L29.97 11.79Q30.34 11.48 30.56 10.95L30.56 10.95L30.56 10.95Q30.77 10.42 30.86 9.70L30.86 9.70L30.86 9.70Q30.95 8.99 30.95 8.19ZM42.20 8.19L42.20 8.19L42.20 8.19Q42.20 9.45 41.80 10.38L41.80 10.38L41.80 10.38Q41.41 11.31 40.70 11.92L40.70 11.92L40.70 11.92Q39.98 12.53 38.99 12.83L38.99 12.83L38.99 12.83Q38.00 13.13 36.81 13.13L36.81 13.13L36.81 13.13Q36.22 13.13 35.51 13.08L35.51 13.08L35.51 13.08Q34.80 13.03 34.23 12.89L34.23 12.89L34.23 3.49L34.23 3.49Q34.80 3.35 35.51 3.30L35.51 3.30L35.51 3.30Q36.22 3.25 36.81 3.25L36.81 3.25L36.81 3.25Q38.00 3.25 38.99 3.55L38.99 3.55L38.99 3.55Q39.98 3.85 40.70 4.46L40.70 4.46L40.70 4.46Q41.41 5.07 41.80 6.00L41.80 6.00L41.80 6.00Q42.20 6.93 42.20 8.19ZM36.92 11.94L36.92 11.94L36.92 11.94Q38.85 11.94 39.80 10.96L39.80 10.96L39.80 10.96Q40.75 9.97 40.75 8.19L40.75 8.19L40.75 8.19Q40.75 6.41 39.80 5.42L39.80 5.42L39.80 5.42Q38.85 4.44 36.92 4.44L36.92 4.44L36.92 4.44Q36.34 4.44 36.03 4.45L36.03 4.45L36.03 4.45Q35.71 4.47 35.59 4.48L35.59 4.48L35.59 11.90L35.59 11.90Q35.71 11.91 36.03 11.93L36.03 11.93L36.03 11.93Q36.34 11.94 36.92 11.94ZM43.72 9.42L43.72 9.42L43.72 9.42Q43.72 8.46 44.00 7.74L44.00 7.74L44.00 7.74Q44.28 7.01 44.74 6.54L44.74 6.54L44.74 6.54Q45.21 6.06 45.81 5.82L45.81 5.82L45.81 5.82Q46.41 5.59 47.04 5.59L47.04 5.59L47.04 5.59Q48.51 5.59 49.29 6.50L49.29 6.50L49.29 6.50Q50.08 7.42 50.08 9.30L50.08 9.30L50.08 9.30Q50.08 9.38 50.08 9.51L50.08 9.51L50.08 9.51Q50.08 9.65 50.06 9.76L50.06 9.76L45.08 9.76L45.08 9.76Q45.16 10.89 45.74 11.48L45.74 11.48L45.74 11.48Q46.31 12.07 47.53 12.07L47.53 12.07L47.53 12.07Q48.22 12.07 48.69 11.95L48.69 11.95L48.69 11.95Q49.15 11.83 49.39 11.72L49.39 11.72L49.57 12.81L49.57 12.81Q49.34 12.94 48.74 13.08L48.74 13.08L48.74 13.08Q48.15 13.22 47.39 13.22L47.39 13.22L47.39 13.22Q46.44 13.22 45.75 12.93L45.75 12.93L45.75 12.93Q45.05 12.64 44.60 12.14L44.60 12.14L44.60 12.14Q44.16 11.63 43.94 10.94L43.94 10.94L43.94 10.94Q43.72 10.25 43.72 9.42ZM45.11 8.71L48.72 8.71L48.72 8.71Q48.73 7.83 48.28 7.26L48.28 7.26L48.28 7.26Q47.82 6.69 47.03 6.69L47.03 6.69L47.03 6.69Q46.58 6.69 46.23 6.87L46.23 6.87L46.23 6.87Q45.89 7.04 45.65 7.32L45.65 7.32L45.65 7.32Q45.42 7.60 45.28 7.97L45.28 7.97L45.28 7.97Q45.15 8.33 45.11 8.71L45.11 8.71ZM56.29 5.77L57.64 5.77L57.64 5.77Q57.09 7.81 56.36 9.69L56.36 9.69L56.36 9.69Q55.62 11.56 54.94 13.05L54.94 13.05L53.76 13.05L53.76 13.05Q53.07 11.56 52.34 9.69L52.34 9.69L52.34 9.69Q51.60 7.81 51.06 5.77L51.06 5.77L52.46 5.77L52.46 5.77Q52.63 6.45 52.86 7.23L52.86 7.23L52.86 7.23Q53.09 8.01 53.35 8.77L53.35 8.77L53.35 8.77Q53.61 9.53 53.87 10.25L53.87 10.25L53.87 10.25Q54.14 10.96 54.38 11.52L54.38 11.52L54.38 11.52Q54.61 10.96 54.88 10.25L54.88 10.25L54.88 10.25Q55.15 9.53 55.41 8.77L55.41 8.77L55.41 8.77Q55.66 8.01 55.90 7.23L55.90 7.23L55.90 7.23Q56.13 6.45 56.29 5.77L56.29 5.77ZM60.68 12.11L60.68 12.11L60.68 12.11Q61.47 12.11 61.86 11.90L61.86 11.90L61.86 11.90Q62.24 11.69 62.24 11.23L62.24 11.23L62.24 11.23Q62.24 10.75 61.87 10.47L61.87 10.47L61.87 10.47Q61.49 10.19 60.62 9.84L60.62 9.84L60.62 9.84Q60.20 9.67 59.82 9.50L59.82 9.50L59.82 9.50Q59.43 9.32 59.15 9.09L59.15 9.09L59.15 9.09Q58.87 8.85 58.70 8.51L58.70 8.51L58.70 8.51Q58.53 8.18 58.53 7.69L58.53 7.69L58.53 7.69Q58.53 6.72 59.25 6.15L59.25 6.15L59.25 6.15Q59.96 5.59 61.19 5.59L61.19 5.59L61.19 5.59Q61.50 5.59 61.81 5.62L61.81 5.62L61.81 5.62Q62.12 5.66 62.38 5.71L62.38 5.71L62.38 5.71Q62.65 5.75 62.85 5.81L62.85 5.81L62.85 5.81Q63.06 5.87 63.17 5.91L63.17 5.91L62.93 7.03L62.93 7.03Q62.72 6.92 62.27 6.80L62.27 6.80L62.27 6.80Q61.82 6.68 61.19 6.68L61.19 6.68L61.19 6.68Q60.65 6.68 60.24 6.89L60.24 6.89L60.24 6.89Q59.84 7.11 59.84 7.57L59.84 7.57L59.84 7.57Q59.84 7.81 59.93 7.99L59.93 7.99L59.93 7.99Q60.02 8.18 60.21 8.32L60.21 8.32L60.21 8.32Q60.40 8.47 60.68 8.60L60.68 8.60L60.68 8.60Q60.96 8.72 61.35 8.86L61.35 8.86L61.35 8.86Q61.87 9.06 62.27 9.25L62.27 9.25L62.27 9.25Q62.68 9.44 62.97 9.69L62.97 9.69L62.97 9.69Q63.25 9.94 63.41 10.30L63.41 10.30L63.41 10.30Q63.56 10.65 63.56 11.17L63.56 11.17L63.56 11.17Q63.56 12.18 62.81 12.70L62.81 12.70L62.81 12.70Q62.06 13.22 60.68 13.22L60.68 13.22L60.68 13.22Q59.71 13.22 59.16 13.05L59.16 13.05L59.16 13.05Q58.62 12.89 58.42 12.81L58.42 12.81L58.66 11.69L58.66 11.69Q58.88 11.77 59.37 11.94L59.37 11.94L59.37 11.94Q59.86 12.11 60.68 12.11Z"></path></g><!----><!----></svg>