<svg data-v-423bf9ae="" xmlns="http://www.w3.org/2000/svg" viewBox="0 0 383 90" class="iconLeftSlogan"><!----><!----><!----><g data-v-423bf9ae="" id="056b3585-a25e-4080-80bf-38c7a8c1c823" fill="black" transform="matrix(4.878049083061471,0,0,4.878049083061471,108.43901927736903,-5.170731272083792)"><path d="M5.33 12.12L5.33 12.12Q5.53 12.11 5.66 12.19L5.66 12.19L5.66 12.19Q5.78 12.28 5.78 12.45L5.78 12.45L5.78 12.45Q5.78 12.53 5.77 12.57L5.77 12.57L5.77 12.57Q5.71 12.78 5.45 12.90L5.45 12.90L5.45 12.90Q5.19 13.02 4.91 13.05L4.91 13.05L4.91 13.05Q3.92 13.15 2.77 13.15L2.77 13.15L2.77 13.15Q1.82 13.15 0.63 13.08L0.63 13.08L0.63 13.08Q0.32 13.06 0.32 12.88L0.32 12.88L0.32 12.88Q0.32 12.68 0.67 12.43L0.67 12.43L0.67 12.43Q1.01 12.17 1.26 12.17L1.26 12.17L1.26 12.17Q1.65 12.18 2.42 12.18L2.42 12.18L2.42 12.18Q2.65 10.74 2.83 9.66L2.83 9.66L2.83 9.66Q3.01 8.58 3.14 7.85L3.14 7.85L3.47 5.87L3.36 6.05L3.36 6.05Q3.21 6.27 2.95 6.42L2.95 6.42L2.95 6.42Q2.69 6.57 2.42 6.55L2.42 6.55L2.42 6.55Q2.24 6.55 2.06 6.47L2.06 6.47L2.06 6.47Q1.89 6.38 1.89 6.24L1.89 6.24L1.89 6.24Q1.89 6.20 1.95 6.09L1.95 6.09L1.95 6.09Q2.97 4.47 4.05 2.24L4.05 2.24L4.05 2.24Q4.13 2.07 4.47 1.91L4.47 1.91L4.47 1.91Q4.82 1.75 5.10 1.75L5.10 1.75L5.10 1.75Q5.50 1.75 5.45 2.10L5.45 2.10L5.45 2.10Q4.94 4.93 4.31 9.23L4.31 9.23L3.86 12.15L3.86 12.15Q4.35 12.15 5.33 12.12L5.33 12.12ZM11.96 2.03L11.96 2.03Q12.24 1.95 12.39 1.95L12.39 1.95L12.39 1.95Q12.63 1.95 12.75 2.07L12.75 2.07L12.75 2.07Q14.24 3.54 14.24 5.85L14.24 5.85L14.24 5.85Q14.24 6.97 13.89 8.14L13.89 8.14L13.89 8.14Q13.54 9.31 12.95 10.36L12.95 10.36L12.95 10.36Q12.64 10.91 12.21 11.47L12.21 11.47L12.21 11.47Q12.21 11.48 12.22 11.50L12.22 11.50L12.22 11.50Q12.24 11.52 12.24 11.54L12.24 11.54L12.24 11.54Q12.25 11.58 12.25 11.65L12.25 11.65L12.25 11.65Q12.25 11.90 11.98 12.10L11.98 12.10L11.98 12.10Q11.70 12.31 11.37 12.35L11.37 12.35L11.37 12.35Q10.23 13.36 9.13 13.36L9.13 13.36L9.13 13.36Q8.60 13.36 8.05 13.10L8.05 13.10L8.05 13.10Q7.22 12.71 6.88 11.87L6.88 11.87L6.88 11.87Q6.54 11.02 6.54 9.94L6.54 9.94L6.54 9.94Q6.54 9.53 6.58 9.16L6.58 9.16L6.58 9.16Q6.68 8.19 7.01 7.07L7.01 7.07L7.01 7.07Q7.35 5.95 7.88 4.96L7.88 4.96L7.88 4.96Q7.45 3.99 7.13 3.36L7.13 3.36L7.13 3.36Q7.10 3.28 7.10 3.23L7.10 3.23L7.10 3.23Q7.10 2.98 7.46 2.77L7.46 2.77L7.46 2.77Q7.81 2.56 8.18 2.56L8.18 2.56L8.18 2.56Q8.51 2.56 8.64 2.79L8.64 2.79L8.95 3.42L8.95 3.42Q9.58 2.73 10.34 2.36L10.34 2.36L10.34 2.36Q11.10 1.99 11.96 2.03L11.96 2.03ZM9.31 12.21L9.31 12.21Q9.38 12.24 9.53 12.24L9.53 12.24L9.53 12.24Q10.00 12.24 10.56 11.70L10.56 11.70L10.56 11.70Q9.60 8.95 8.60 6.57L8.60 6.57L8.60 6.57Q8.04 8.18 8.04 9.49L8.04 9.49L8.04 9.49Q8.04 10.12 8.19 10.78L8.19 10.78L8.19 10.78Q8.55 12.01 9.31 12.21L9.31 12.21ZM11.69 9.98L11.69 9.98Q12.18 9.07 12.46 8.08L12.46 8.08L12.46 8.08Q12.74 7.08 12.74 6.15L12.74 6.15L12.74 6.15Q12.74 4.33 11.66 3.07L11.66 3.07L11.66 3.07Q11.47 3.04 11.40 3.04L11.40 3.04L11.40 3.04Q10.84 3.04 10.35 3.47L10.35 3.47L10.35 3.47Q9.87 3.91 9.49 4.59L9.49 4.59L9.49 4.59Q10.77 7.42 11.69 9.98L11.69 9.98ZM20.24 2.03L20.24 2.03Q20.52 1.95 20.68 1.95L20.68 1.95L20.68 1.95Q20.92 1.95 21.04 2.07L21.04 2.07L21.04 2.07Q22.53 3.54 22.53 5.85L22.53 5.85L22.53 5.85Q22.53 6.97 22.18 8.14L22.18 8.14L22.18 8.14Q21.83 9.31 21.24 10.36L21.24 10.36L21.24 10.36Q20.93 10.91 20.50 11.47L20.50 11.47L20.50 11.47Q20.50 11.48 20.51 11.50L20.51 11.50L20.51 11.50Q20.52 11.52 20.52 11.54L20.52 11.54L20.52 11.54Q20.54 11.58 20.54 11.65L20.54 11.65L20.54 11.65Q20.54 11.90 20.27 12.10L20.27 12.10L20.27 12.10Q19.99 12.31 19.66 12.35L19.66 12.35L19.66 12.35Q18.52 13.36 17.42 13.36L17.42 13.36L17.42 13.36Q16.88 13.36 16.34 13.10L16.34 13.10L16.34 13.10Q15.51 12.71 15.17 11.87L15.17 11.87L15.17 11.87Q14.83 11.02 14.83 9.94L14.83 9.94L14.83 9.94Q14.83 9.53 14.87 9.16L14.87 9.16L14.87 9.16Q14.97 8.19 15.30 7.07L15.30 7.07L15.30 7.07Q15.64 5.95 16.17 4.96L16.17 4.96L16.17 4.96Q15.74 3.99 15.41 3.36L15.41 3.36L15.41 3.36Q15.39 3.28 15.39 3.23L15.39 3.23L15.39 3.23Q15.39 2.98 15.74 2.77L15.74 2.77L15.74 2.77Q16.10 2.56 16.46 2.56L16.46 2.56L16.46 2.56Q16.80 2.56 16.93 2.79L16.93 2.79L17.23 3.42L17.23 3.42Q17.86 2.73 18.63 2.36L18.63 2.36L18.63 2.36Q19.39 1.99 20.24 2.03L20.24 2.03ZM17.60 12.21L17.60 12.21Q17.67 12.24 17.82 12.24L17.82 12.24L17.82 12.24Q18.28 12.24 18.84 11.70L18.84 11.70L18.84 11.70Q17.89 8.95 16.88 6.57L16.88 6.57L16.88 6.57Q16.32 8.18 16.32 9.49L16.32 9.49L16.32 9.49Q16.32 10.12 16.48 10.78L16.48 10.78L16.48 10.78Q16.84 12.01 17.60 12.21L17.60 12.21ZM19.98 9.98L19.98 9.98Q20.47 9.07 20.75 8.08L20.75 8.08L20.75 8.08Q21.03 7.08 21.03 6.15L21.03 6.15L21.03 6.15Q21.03 4.33 19.95 3.07L19.95 3.07L19.95 3.07Q19.75 3.04 19.68 3.04L19.68 3.04L19.68 3.04Q19.12 3.04 18.64 3.47L18.64 3.47L18.64 3.47Q18.16 3.91 17.78 4.59L17.78 4.59L17.78 4.59Q19.05 7.42 19.98 9.98L19.98 9.98ZM34.82 6.92L34.82 6.92Q34.82 6.26 34.34 5.71L34.34 5.71L34.34 5.71Q33.87 5.17 33.14 4.63L33.14 4.63L33.14 4.63Q31.79 3.68 30.07 2.93L30.07 2.93L30.07 2.93Q29.88 4.12 29.51 6.50L29.51 6.50L29.51 6.50Q29.41 7.13 29.18 8.60L29.18 8.60L29.18 8.60Q28.95 10.07 28.74 11.21L28.74 11.21L28.74 11.21Q30.00 10.71 30.93 10.28L30.93 10.28L30.93 10.28Q31.85 9.86 32.69 9.35L32.69 9.35L32.69 9.35Q33.61 8.82 34.22 8.25L34.22 8.25L34.22 8.25Q34.82 7.67 34.82 6.92L34.82 6.92ZM34.82 4.21L34.82 4.21Q36.27 5.36 36.27 6.61L36.27 6.61L36.27 6.61Q36.27 6.79 36.23 7L36.23 7L36.23 7Q36.06 7.85 35.38 8.53L35.38 8.53L35.38 8.53Q34.69 9.20 33.66 9.86L33.66 9.86L33.66 9.86Q30.93 11.58 26.95 12.84L26.95 12.84L26.95 12.84Q26.77 12.89 26.59 12.89L26.59 12.89L26.59 12.89Q26.38 12.89 26.26 12.80L26.26 12.80L26.26 12.80Q26.14 12.71 26.14 12.57L26.14 12.57L26.14 12.57Q26.14 12.43 26.27 12.29L26.27 12.29L26.27 12.29Q26.40 12.14 26.66 12.04L26.66 12.04L27.26 11.80L27.26 11.80Q27.16 11.70 27.20 11.58L27.20 11.58L27.87 7.50L27.87 7.50Q28.27 4.96 28.71 2.42L28.71 2.42L28.73 2.35L28.73 2.35Q28.42 2.21 27.78 1.96L27.78 1.96L27.78 1.96Q27.58 1.88 27.58 1.74L27.58 1.74L27.58 1.74Q27.58 1.53 27.96 1.29L27.96 1.29L27.96 1.29Q28.35 1.06 28.69 1.06L28.69 1.06L28.69 1.06Q28.83 1.06 28.88 1.09L28.88 1.09L28.88 1.09Q30.94 1.93 32.30 2.60L32.30 2.60L32.30 2.60Q33.67 3.28 34.82 4.21L34.82 4.21ZM40.40 5.07L40.40 5.07Q39.69 5.61 39.24 6.83L39.24 6.83L39.24 6.83Q40.61 6.31 41.72 5.96L41.72 5.96L41.72 5.96Q41.26 5.32 40.78 5.10L40.78 5.10L40.78 5.10Q40.68 5.05 40.59 5.04L40.59 5.04L40.59 5.04Q40.50 5.03 40.49 5.03L40.49 5.03L40.49 5.03Q40.50 5.04 40.47 5.05L40.47 5.05L40.47 5.05Q40.43 5.07 40.40 5.07L40.40 5.07ZM40.46 4.07L40.46 4.07Q40.68 4.02 40.94 4.02L40.94 4.02L40.94 4.02Q42.28 4.02 43.37 5.82L43.37 5.82L43.37 5.82Q43.41 5.88 43.41 5.96L43.41 5.96L43.41 5.96Q43.41 6.12 43.22 6.29L43.22 6.29L43.22 6.29Q43.06 6.45 42.83 6.55L42.83 6.55L42.83 6.55Q41.43 7.17 38.93 8.02L38.93 8.02L38.93 8.02Q38.79 8.74 38.79 9.49L38.79 9.49L38.79 9.49Q38.79 9.84 38.81 10.00L38.81 10.00L38.81 10.00Q38.84 10.63 39.06 11.09L39.06 11.09L39.06 11.09Q39.13 11.24 39.26 11.38L39.26 11.38L39.26 11.38Q39.40 11.52 39.47 11.56L39.47 11.56L39.47 11.56Q39.51 11.59 39.61 11.59L39.61 11.59L39.61 11.59Q39.70 11.59 39.84 11.54L39.84 11.54L39.84 11.54Q39.97 11.48 40.14 11.38L40.14 11.38L40.14 11.38Q40.54 11.14 40.89 10.84L40.89 10.84L40.89 10.84Q41.24 10.53 41.73 10.04L41.73 10.04L41.73 10.04Q41.93 9.84 42.39 9.84L42.39 9.84L42.39 9.84Q42.64 9.84 42.82 9.92L42.82 9.92L42.82 9.92Q42.99 10.00 42.99 10.14L42.99 10.14L42.99 10.14Q42.99 10.26 42.85 10.42L42.85 10.42L42.85 10.42Q41.99 11.35 41.08 12.01L41.08 12.01L41.08 12.01Q40.17 12.67 39.26 12.67L39.26 12.67L39.26 12.67Q38.82 12.67 38.44 12.49L38.44 12.49L38.44 12.49Q37.81 12.19 37.53 11.55L37.53 11.55L37.53 11.55Q37.25 10.91 37.25 10.04L37.25 10.04L37.25 10.04Q37.25 9.39 37.42 8.53L37.42 8.53L37.31 8.55L37.20 8.60L37.20 8.60Q36.99 8.67 36.86 8.67L36.86 8.67L36.86 8.67Q36.67 8.67 36.55 8.57L36.55 8.57L36.55 8.57Q36.44 8.47 36.44 8.32L36.44 8.32L36.44 8.32Q36.44 8.13 36.59 7.96L36.59 7.96L36.59 7.96Q36.74 7.78 37.03 7.67L37.03 7.67L37.72 7.41L37.72 7.41Q37.84 7.01 38.09 6.38L38.09 6.38L38.09 6.38Q38.49 5.52 39.07 4.89L39.07 4.89L39.07 4.89Q39.66 4.26 40.46 4.07L40.46 4.07ZM48.64 4.09L48.64 4.09Q48.73 3.95 49.04 3.84L49.04 3.84L49.04 3.84Q49.34 3.74 49.60 3.74L49.60 3.74L49.60 3.74Q49.80 3.74 49.92 3.79L49.92 3.79L49.92 3.79Q50.04 3.85 50.04 3.98L50.04 3.98L50.04 3.98Q50.04 4.07 49.97 4.19L49.97 4.19L49.97 4.19Q48.82 6.10 48.04 7.99L48.04 7.99L48.04 7.99Q47.26 9.87 46.84 11.89L46.84 11.89L46.84 11.89Q46.79 12.15 46.45 12.37L46.45 12.37L46.45 12.37Q46.10 12.59 45.77 12.59L45.77 12.59L45.77 12.59Q45.39 12.59 45.29 12.29L45.29 12.29L45.29 12.29Q44.76 10.72 44.54 9.09L44.54 9.09L44.54 9.09Q44.32 7.46 44.14 4.87L44.14 4.87L44.13 4.58L44.13 4.58Q44.11 4.27 44.50 4.03L44.50 4.03L44.50 4.03Q44.88 3.79 45.26 3.79L45.26 3.79L45.26 3.79Q45.63 3.79 45.64 4.05L45.64 4.05L45.64 4.05Q45.67 4.38 45.67 4.58L45.67 4.58L45.67 4.62L45.67 4.62Q45.82 7.29 46.12 8.96L46.12 8.96L46.12 8.96Q47.08 6.19 48.64 4.09L48.64 4.09ZM52.04 5.98L52.04 5.98Q52.04 6.51 52.31 6.92L52.31 6.92L52.31 6.92Q52.58 7.32 52.98 7.60L52.98 7.60L52.98 7.60Q53.37 7.88 54.04 8.26L54.04 8.26L54.04 8.26Q54.95 8.78 55.43 9.20L55.43 9.20L55.43 9.20Q55.92 9.62 56.07 10.25L56.07 10.25L56.07 10.25Q56.13 10.53 56.13 10.65L56.13 10.65L56.13 10.65Q56.13 11.63 55.09 12.06L55.09 12.06L55.09 12.06Q54.05 12.49 52.74 12.49L52.74 12.49L52.74 12.49Q52.22 12.49 51.83 12.42L51.83 12.42L51.83 12.42Q51.37 12.33 50.87 12.09L50.87 12.09L50.87 12.09Q50.37 11.84 50.04 11.49L50.04 11.49L50.04 11.49Q49.71 11.13 49.71 10.75L49.71 10.75L49.71 10.75Q49.71 10.16 50.62 9.67L50.62 9.67L50.62 9.67Q50.88 9.55 51.11 9.55L51.11 9.55L51.11 9.55Q51.34 9.55 51.48 9.65L51.48 9.65L51.48 9.65Q51.63 9.74 51.63 9.88L51.63 9.88L51.63 9.88Q51.63 10.14 51.23 10.37L51.23 10.37L51.23 10.37Q51.14 10.42 51.14 10.50L51.14 10.50L51.14 10.50Q51.14 10.67 51.41 10.91L51.41 10.91L51.41 10.91Q51.67 11.14 51.83 11.23L51.83 11.23L51.83 11.23Q52.25 11.47 53.17 11.52L53.17 11.52L53.17 11.52Q53.28 11.54 53.56 11.54L53.56 11.54L53.56 11.54Q54.07 11.54 54.38 11.37L54.38 11.37L54.38 11.37Q54.68 11.20 54.64 10.75L54.64 10.75L54.64 10.75Q54.59 10.15 53.42 9.39L53.42 9.39L52.89 9.06L52.89 9.06Q52.16 8.61 51.70 8.27L51.70 8.27L51.70 8.27Q51.23 7.92 50.89 7.44L50.89 7.44L50.89 7.44Q50.55 6.96 50.55 6.36L50.55 6.36L50.55 6.36Q50.55 5.98 50.69 5.60L50.69 5.60L50.69 5.60Q51.00 4.69 51.84 4.19L51.84 4.19L51.84 4.19Q52.68 3.70 53.65 3.70L53.65 3.70L53.65 3.70Q54.64 3.70 55.32 4.20L55.32 4.20L55.32 4.20Q56 4.70 56 5.63L56 5.63L56 5.63Q56 5.92 55.92 6.26L55.92 6.26L55.92 6.26Q55.86 6.51 55.50 6.69L55.50 6.69L55.50 6.69Q55.13 6.87 54.81 6.87L54.81 6.87L54.81 6.87Q54.61 6.87 54.51 6.79L54.51 6.79L54.51 6.79Q54.40 6.71 54.46 6.55L54.46 6.55L54.46 6.55Q54.54 6.26 54.54 5.96L54.54 5.96L54.54 5.96Q54.54 5.50 54.31 5.18L54.31 5.18L54.31 5.18Q54.07 4.86 53.61 4.73L53.61 4.73L53.61 4.73Q53.35 4.68 53.23 4.68L53.23 4.68L53.23 4.68Q52.72 4.68 52.38 5.03L52.38 5.03L52.38 5.03Q52.04 5.39 52.04 5.98L52.04 5.98Z"></path></g><!----><g data-v-423bf9ae="" id="38155c4b-4a2d-43bb-9d3e-ed1048efe0c4" transform="matrix(2.8125,0,0,2.8125,0,0)" stroke="none" fill="black"><path d="M4.029 14.362L14.362 4.028l.707.707L4.736 15.07zM17.135 27.47L27.47 17.135l.707.707-10.333 10.333zM4.029 17.841l.707-.707 10.333 10.334-.707.707zM17.135 4.735l.708-.707L28.176 14.36l-.707.707z"></path><g><path d="M16 1.414l1.683 1.683L16 4.779l-1.683-1.683L16 1.414M16 0l-3.097 3.097L16 6.194l3.097-3.097L16 0zM16 27.221l1.683 1.683L16 30.586l-1.683-1.683L16 27.221m0-1.415l-3.097 3.097L16 32l3.097-3.097L16 25.806zM3.097 14.317L4.779 16l-1.683 1.683L1.414 16l1.683-1.683m0-1.414L0 16l3.097 3.097L6.194 16l-3.097-3.097zM28.903 14.317L30.586 16l-1.683 1.683L27.221 16l1.682-1.683m0-1.414L25.806 16l3.097 3.097L32 16l-3.097-3.097z"></path></g></g><!----><g data-v-423bf9ae="" id="448c1b92-823f-45c6-87df-925e26b2af42" fill="black" transform="matrix(1.6283748846333712,0,0,1.6283748846333712,109.8371690050405,55.27771447937447)"><path d="M0.10 3.51C0.10 3.75 0.21 3.77 0.38 3.77L0.88 3.77C0.97 3.77 3.11 10.99 3.14 11.07C3.49 12.14 3.60 12.99 3.91 12.99C4.13 12.99 4.23 12.67 4.51 12.26C4.66 12.05 4.76 12.01 4.90 11.66L6.89 6.45C6.96 6.29 6.99 6.20 7.01 6.20C7.04 6.20 7.07 6.29 7.11 6.45C7.71 8.51 8.39 11.03 8.40 11.07C8.75 12.14 8.86 12.99 9.17 12.99C9.39 12.99 9.49 12.67 9.77 12.26C9.93 12.05 10.02 12.01 10.16 11.66L13.26 4.06C13.36 3.81 13.36 3.77 13.72 3.77C13.96 3.77 14.01 3.71 14.01 3.53C14.01 3.32 13.97 3.26 13.78 3.26C13.64 3.26 13.33 3.30 12.82 3.30C12.08 3.30 11.58 3.26 11.38 3.26C11.20 3.26 11.10 3.28 11.10 3.51C11.10 3.75 11.21 3.77 11.38 3.77L12.29 3.77C12.36 3.77 12.38 3.81 12.38 3.95C12.38 4.63 10.78 8.72 10.07 10.63C9.93 10.99 9.86 11.17 9.81 11.17C9.76 11.17 9.70 10.99 9.58 10.60C9.49 10.30 8.57 7.18 8.04 5.22C7.99 5.05 7.78 4.17 7.78 3.85C7.78 3.81 7.78 3.79 7.80 3.77L8.68 3.77C8.86 3.77 8.96 3.75 8.96 3.56C8.96 3.32 8.92 3.26 8.72 3.26C8.40 3.26 7.46 3.30 7.04 3.30C6.62 3.30 5.71 3.26 5.49 3.26C5.31 3.26 5.21 3.28 5.21 3.51C5.21 3.75 5.32 3.77 5.49 3.77L6.29 3.77C6.33 3.77 6.51 4.27 6.66 4.83C6.72 5.05 6.76 5.15 6.76 5.25C6.76 5.31 6.76 5.38 6.72 5.49L4.72 10.60C4.62 10.82 4.59 10.95 4.55 10.95C4.51 10.95 4.48 10.84 4.40 10.60C4.31 10.32 3.30 7.27 2.70 5.22C2.66 5.08 2.34 3.96 2.32 3.85C2.34 3.77 2.38 3.77 2.42 3.77L3.12 3.77C3.35 3.77 3.42 3.75 3.42 3.56C3.42 3.32 3.37 3.26 3.18 3.26C2.86 3.26 2.14 3.30 1.72 3.30C1.30 3.30 0.60 3.26 0.38 3.26C0.20 3.26 0.10 3.28 0.10 3.51ZM21.63 12.39C21.63 12.63 21.66 12.68 21.85 12.68C22.18 12.68 23.14 12.64 23.56 12.64C23.98 12.64 28.49 12.68 28.81 12.68C28.94 12.68 29.09 12.66 29.09 12.49C29.09 12.07 29.13 11.23 29.13 10.53C29.13 10.39 28.98 10.39 28.85 10.39C28.74 10.39 28.62 10.39 28.62 10.51C28.60 11.06 28.60 11.41 28.57 11.76C28.55 12.01 28.55 12.04 28.45 12.04C28.29 12.04 25.66 12.08 24.16 12.08C24.09 12.08 24.05 10.11 24.01 8.26C24.01 8.06 24.05 8.09 24.19 8.09L26.47 8.09C27.17 8.09 27.20 8.20 27.20 8.30L27.20 9.00C27.20 9.14 27.38 9.14 27.50 9.14C27.59 9.14 27.72 9.13 27.72 9.02C27.72 8.83 27.69 8.33 27.69 7.83C27.69 7.32 27.72 6.83 27.72 6.71C27.72 6.59 27.58 6.58 27.48 6.58C27.37 6.58 27.20 6.59 27.20 6.72L27.20 7.45C27.20 7.62 26.75 7.63 26.47 7.63L24.14 7.63C24.02 7.63 24.01 7.63 24.01 7.45C24.00 6.75 23.98 6.06 23.98 5.46C23.98 5.12 23.98 3.71 24.07 3.71C25.30 3.71 27.80 3.75 27.80 3.81C27.80 3.99 27.76 4.83 27.76 4.89C27.76 5.04 27.83 5.10 28.01 5.10C28.21 5.10 28.28 5.08 28.28 4.94C28.28 3.85 28.34 3.36 28.34 3.09C28.34 2.91 28.25 2.90 28.06 2.90C27.86 2.90 27.86 2.95 27.83 3.11C27.82 3.25 27.89 3.25 26.98 3.25C26.36 3.25 24.22 3.29 23.45 3.29C22.96 3.29 22.02 3.25 21.92 3.25C21.80 3.25 21.74 3.30 21.74 3.49C21.74 3.72 21.81 3.74 21.98 3.74L22.64 3.74C22.69 3.74 22.76 4.79 22.76 5.71C22.76 5.80 22.82 8.27 22.82 9.83L22.82 11.17C22.82 11.84 22.79 12.18 22.76 12.18L21.91 12.18C21.69 12.18 21.63 12.21 21.63 12.39ZM46.97 7.91C46.97 11.40 49.34 12.89 51.93 12.89C53.82 12.89 55.82 11.89 55.82 11.58C55.82 11.12 55.83 10.68 55.83 10.33C55.83 9.81 55.85 9.56 55.97 9.56L56.41 9.56C56.55 9.56 56.56 9.39 56.56 9.30C56.56 9.18 56.55 9.06 56.41 9.06C56.18 9.06 55.82 9.10 55.15 9.10C54.70 9.10 53.96 9.07 53.27 9.06C53.13 9.06 53.13 9.24 53.13 9.35C53.13 9.45 53.16 9.56 53.28 9.56L54.50 9.56C54.54 9.56 54.60 9.87 54.60 10.33C54.60 10.82 54.59 11.41 54.56 11.65C54.54 11.76 53.90 12.39 52.32 12.39C50.08 12.39 48.48 10.29 48.48 7.94C48.48 5.42 50.04 3.54 52.04 3.54C53.93 3.54 55.10 4.87 55.10 5.03C55.10 5.15 55.05 6.12 55.05 6.17C55.05 6.31 55.09 6.36 55.36 6.36C55.55 6.36 55.62 6.33 55.62 6.15C55.62 5.43 55.66 3.75 55.66 3.56C55.66 3.36 55.57 3.33 55.36 3.33C55.13 3.33 55.10 3.39 55.10 3.56L55.10 3.91C55.10 3.99 55.06 4.02 54.94 3.92C54.66 3.72 53.66 3.08 52.09 3.08C49.25 3.08 46.97 4.79 46.97 7.91ZM64.53 8.15C64.53 11.17 66.86 12.80 69.12 12.80C71.90 12.80 73.88 10.89 73.88 8.06C73.88 5.33 72.13 3.11 69.33 3.11C66.72 3.11 64.53 5.10 64.53 8.15ZM65.93 7.77C65.93 5.64 67.21 3.58 69.19 3.58C71.43 3.58 72.51 5.81 72.51 7.94C72.51 10.08 71.40 12.32 69.13 12.32C67.14 12.32 65.93 10.28 65.93 7.77ZM91.85 7.91C91.85 11.40 94.22 12.89 96.81 12.89C98.70 12.89 100.70 11.89 100.70 11.58C100.70 11.12 100.72 10.68 100.72 10.33C100.72 9.81 100.73 9.56 100.86 9.56L101.29 9.56C101.43 9.56 101.44 9.39 101.44 9.30C101.44 9.18 101.43 9.06 101.29 9.06C101.07 9.06 100.70 9.10 100.03 9.10C99.58 9.10 98.84 9.07 98.15 9.06C98.01 9.06 98.01 9.24 98.01 9.35C98.01 9.45 98.04 9.56 98.17 9.56L99.39 9.56C99.43 9.56 99.48 9.87 99.48 10.33C99.48 10.82 99.47 11.41 99.44 11.65C99.43 11.76 98.78 12.39 97.20 12.39C94.96 12.39 93.37 10.29 93.37 7.94C93.37 5.42 94.92 3.54 96.92 3.54C98.81 3.54 99.99 4.87 99.99 5.03C99.99 5.15 99.93 6.12 99.93 6.17C99.93 6.31 99.97 6.36 100.24 6.36C100.44 6.36 100.51 6.33 100.51 6.15C100.51 5.43 100.55 3.75 100.55 3.56C100.55 3.36 100.45 3.33 100.24 3.33C100.02 3.33 99.99 3.39 99.99 3.56L99.99 3.91C99.99 3.99 99.95 4.02 99.82 3.92C99.54 3.72 98.55 3.08 96.98 3.08C94.14 3.08 91.85 4.79 91.85 7.91ZM109.48 12.39C109.48 12.63 109.51 12.68 109.70 12.68C110.03 12.68 110.99 12.64 111.41 12.64C111.83 12.64 116.34 12.68 116.66 12.68C116.79 12.68 116.94 12.66 116.94 12.49C116.94 12.07 116.98 11.23 116.98 10.53C116.98 10.39 116.83 10.39 116.70 10.39C116.59 10.39 116.47 10.39 116.47 10.51C116.45 11.06 116.45 11.41 116.42 11.76C116.40 12.01 116.40 12.04 116.30 12.04C116.14 12.04 113.51 12.08 112.01 12.08C111.94 12.08 111.90 10.11 111.86 8.26C111.86 8.06 111.90 8.09 112.04 8.09L114.32 8.09C115.02 8.09 115.05 8.20 115.05 8.30L115.05 9.00C115.05 9.14 115.23 9.14 115.35 9.14C115.44 9.14 115.57 9.13 115.57 9.02C115.57 8.83 115.54 8.33 115.54 7.83C115.54 7.32 115.57 6.83 115.57 6.71C115.57 6.59 115.43 6.58 115.33 6.58C115.22 6.58 115.05 6.59 115.05 6.72L115.05 7.45C115.05 7.62 114.60 7.63 114.32 7.63L111.99 7.63C111.87 7.63 111.86 7.63 111.86 7.45C111.85 6.75 111.83 6.06 111.83 5.46C111.83 5.12 111.83 3.71 111.92 3.71C113.15 3.71 115.65 3.75 115.65 3.81C115.65 3.99 115.61 4.83 115.61 4.89C115.61 5.04 115.68 5.10 115.86 5.10C116.06 5.10 116.13 5.08 116.13 4.94C116.13 3.85 116.19 3.36 116.19 3.09C116.19 2.91 116.10 2.90 115.91 2.90C115.71 2.90 115.71 2.95 115.68 3.11C115.67 3.25 115.74 3.25 114.83 3.25C114.21 3.25 112.07 3.29 111.30 3.29C110.81 3.29 109.87 3.25 109.77 3.25C109.65 3.25 109.59 3.30 109.59 3.49C109.59 3.72 109.66 3.74 109.83 3.74L110.49 3.74C110.54 3.74 110.61 4.79 110.61 5.71C110.61 5.80 110.67 8.27 110.67 9.83L110.67 11.17C110.67 11.84 110.64 12.18 110.61 12.18L109.76 12.18C109.54 12.18 109.48 12.21 109.48 12.39ZM124.68 5.01C124.68 5.17 124.87 5.17 124.99 5.17C125.15 5.17 125.19 5.15 125.20 4.97L125.31 3.89C125.33 3.81 125.87 3.75 126.63 3.75L128.62 3.75C128.67 3.75 128.70 4.35 128.70 4.97C128.70 6.43 128.65 12.18 128.52 12.18L127.65 12.18C127.43 12.18 127.39 12.19 127.39 12.39C127.39 12.63 127.40 12.68 127.60 12.68C127.92 12.68 128.90 12.64 129.32 12.64C129.74 12.64 130.68 12.68 131.00 12.68C131.17 12.68 131.19 12.61 131.19 12.40C131.19 12.24 131.17 12.18 131.00 12.18L130.00 12.18C129.98 12.18 129.98 11.76 129.98 11.31C129.98 9.56 130.06 5.96 130.06 5.92C130.07 5.18 130.07 3.75 130.17 3.75L131.78 3.75C132.50 3.75 133.32 3.78 133.32 3.85C133.32 3.99 133.28 4.90 133.28 4.97C133.28 5.12 133.35 5.17 133.53 5.17C133.73 5.17 133.80 5.17 133.80 5.03C133.80 3.93 133.85 3.40 133.85 3.14C133.85 2.94 133.77 2.94 133.57 2.94C133.42 2.94 133.36 2.98 133.35 3.16C133.35 3.23 132.71 3.28 131.87 3.28L126.87 3.28C126.21 3.28 125.40 3.28 125.40 3.21L125.40 3.07C125.40 2.94 125.27 2.94 125.17 2.94C124.95 2.94 124.92 3.00 124.91 3.19C124.85 3.89 124.68 4.97 124.68 5.01Z"></path></g></svg>