<svg data-v-423bf9ae="" xmlns="http://www.w3.org/2000/svg" viewBox="0 0 272.24392602464167 60" class="font"><!----><!----><!----><g data-v-423bf9ae="" id="bb42f5ca-1c37-43ed-a0e1-206a72a5854e" fill="white" transform="matrix(4.878049083061471,0,0,4.878049083061471,-1.5609730932364414,-5.170731272083792)"><path d="M5.33 12.12L5.33 12.12Q5.53 12.11 5.66 12.19L5.66 12.19L5.66 12.19Q5.78 12.28 5.78 12.45L5.78 12.45L5.78 12.45Q5.78 12.53 5.77 12.57L5.77 12.57L5.77 12.57Q5.71 12.78 5.45 12.90L5.45 12.90L5.45 12.90Q5.19 13.02 4.91 13.05L4.91 13.05L4.91 13.05Q3.92 13.15 2.77 13.15L2.77 13.15L2.77 13.15Q1.82 13.15 0.63 13.08L0.63 13.08L0.63 13.08Q0.32 13.06 0.32 12.88L0.32 12.88L0.32 12.88Q0.32 12.68 0.67 12.43L0.67 12.43L0.67 12.43Q1.01 12.17 1.26 12.17L1.26 12.17L1.26 12.17Q1.65 12.18 2.42 12.18L2.42 12.18L2.42 12.18Q2.65 10.74 2.83 9.66L2.83 9.66L2.83 9.66Q3.01 8.58 3.14 7.85L3.14 7.85L3.47 5.87L3.36 6.05L3.36 6.05Q3.21 6.27 2.95 6.42L2.95 6.42L2.95 6.42Q2.69 6.57 2.42 6.55L2.42 6.55L2.42 6.55Q2.24 6.55 2.06 6.47L2.06 6.47L2.06 6.47Q1.89 6.38 1.89 6.24L1.89 6.24L1.89 6.24Q1.89 6.20 1.95 6.09L1.95 6.09L1.95 6.09Q2.97 4.47 4.05 2.24L4.05 2.24L4.05 2.24Q4.13 2.07 4.47 1.91L4.47 1.91L4.47 1.91Q4.82 1.75 5.10 1.75L5.10 1.75L5.10 1.75Q5.50 1.75 5.45 2.10L5.45 2.10L5.45 2.10Q4.94 4.93 4.31 9.23L4.31 9.23L3.86 12.15L3.86 12.15Q4.35 12.15 5.33 12.12L5.33 12.12ZM11.96 2.03L11.96 2.03Q12.24 1.95 12.39 1.95L12.39 1.95L12.39 1.95Q12.63 1.95 12.75 2.07L12.75 2.07L12.75 2.07Q14.24 3.54 14.24 5.85L14.24 5.85L14.24 5.85Q14.24 6.97 13.89 8.14L13.89 8.14L13.89 8.14Q13.54 9.31 12.95 10.36L12.95 10.36L12.95 10.36Q12.64 10.91 12.21 11.47L12.21 11.47L12.21 11.47Q12.21 11.48 12.22 11.50L12.22 11.50L12.22 11.50Q12.24 11.52 12.24 11.54L12.24 11.54L12.24 11.54Q12.25 11.58 12.25 11.65L12.25 11.65L12.25 11.65Q12.25 11.90 11.98 12.10L11.98 12.10L11.98 12.10Q11.70 12.31 11.37 12.35L11.37 12.35L11.37 12.35Q10.23 13.36 9.13 13.36L9.13 13.36L9.13 13.36Q8.60 13.36 8.05 13.10L8.05 13.10L8.05 13.10Q7.22 12.71 6.88 11.87L6.88 11.87L6.88 11.87Q6.54 11.02 6.54 9.94L6.54 9.94L6.54 9.94Q6.54 9.53 6.58 9.16L6.58 9.16L6.58 9.16Q6.68 8.19 7.01 7.07L7.01 7.07L7.01 7.07Q7.35 5.95 7.88 4.96L7.88 4.96L7.88 4.96Q7.45 3.99 7.13 3.36L7.13 3.36L7.13 3.36Q7.10 3.28 7.10 3.23L7.10 3.23L7.10 3.23Q7.10 2.98 7.46 2.77L7.46 2.77L7.46 2.77Q7.81 2.56 8.18 2.56L8.18 2.56L8.18 2.56Q8.51 2.56 8.64 2.79L8.64 2.79L8.95 3.42L8.95 3.42Q9.58 2.73 10.34 2.36L10.34 2.36L10.34 2.36Q11.10 1.99 11.96 2.03L11.96 2.03ZM9.31 12.21L9.31 12.21Q9.38 12.24 9.53 12.24L9.53 12.24L9.53 12.24Q10.00 12.24 10.56 11.70L10.56 11.70L10.56 11.70Q9.60 8.95 8.60 6.57L8.60 6.57L8.60 6.57Q8.04 8.18 8.04 9.49L8.04 9.49L8.04 9.49Q8.04 10.12 8.19 10.78L8.19 10.78L8.19 10.78Q8.55 12.01 9.31 12.21L9.31 12.21ZM11.69 9.98L11.69 9.98Q12.18 9.07 12.46 8.08L12.46 8.08L12.46 8.08Q12.74 7.08 12.74 6.15L12.74 6.15L12.74 6.15Q12.74 4.33 11.66 3.07L11.66 3.07L11.66 3.07Q11.47 3.04 11.40 3.04L11.40 3.04L11.40 3.04Q10.84 3.04 10.35 3.47L10.35 3.47L10.35 3.47Q9.87 3.91 9.49 4.59L9.49 4.59L9.49 4.59Q10.77 7.42 11.69 9.98L11.69 9.98ZM20.24 2.03L20.24 2.03Q20.52 1.95 20.68 1.95L20.68 1.95L20.68 1.95Q20.92 1.95 21.04 2.07L21.04 2.07L21.04 2.07Q22.53 3.54 22.53 5.85L22.53 5.85L22.53 5.85Q22.53 6.97 22.18 8.14L22.18 8.14L22.18 8.14Q21.83 9.31 21.24 10.36L21.24 10.36L21.24 10.36Q20.93 10.91 20.50 11.47L20.50 11.47L20.50 11.47Q20.50 11.48 20.51 11.50L20.51 11.50L20.51 11.50Q20.52 11.52 20.52 11.54L20.52 11.54L20.52 11.54Q20.54 11.58 20.54 11.65L20.54 11.65L20.54 11.65Q20.54 11.90 20.27 12.10L20.27 12.10L20.27 12.10Q19.99 12.31 19.66 12.35L19.66 12.35L19.66 12.35Q18.52 13.36 17.42 13.36L17.42 13.36L17.42 13.36Q16.88 13.36 16.34 13.10L16.34 13.10L16.34 13.10Q15.51 12.71 15.17 11.87L15.17 11.87L15.17 11.87Q14.83 11.02 14.83 9.94L14.83 9.94L14.83 9.94Q14.83 9.53 14.87 9.16L14.87 9.16L14.87 9.16Q14.97 8.19 15.30 7.07L15.30 7.07L15.30 7.07Q15.64 5.95 16.17 4.96L16.17 4.96L16.17 4.96Q15.74 3.99 15.41 3.36L15.41 3.36L15.41 3.36Q15.39 3.28 15.39 3.23L15.39 3.23L15.39 3.23Q15.39 2.98 15.74 2.77L15.74 2.77L15.74 2.77Q16.10 2.56 16.46 2.56L16.46 2.56L16.46 2.56Q16.80 2.56 16.93 2.79L16.93 2.79L17.23 3.42L17.23 3.42Q17.86 2.73 18.63 2.36L18.63 2.36L18.63 2.36Q19.39 1.99 20.24 2.03L20.24 2.03ZM17.60 12.21L17.60 12.21Q17.67 12.24 17.82 12.24L17.82 12.24L17.82 12.24Q18.28 12.24 18.84 11.70L18.84 11.70L18.84 11.70Q17.89 8.95 16.88 6.57L16.88 6.57L16.88 6.57Q16.32 8.18 16.32 9.49L16.32 9.49L16.32 9.49Q16.32 10.12 16.48 10.78L16.48 10.78L16.48 10.78Q16.84 12.01 17.60 12.21L17.60 12.21ZM19.98 9.98L19.98 9.98Q20.47 9.07 20.75 8.08L20.75 8.08L20.75 8.08Q21.03 7.08 21.03 6.15L21.03 6.15L21.03 6.15Q21.03 4.33 19.95 3.07L19.95 3.07L19.95 3.07Q19.75 3.04 19.68 3.04L19.68 3.04L19.68 3.04Q19.12 3.04 18.64 3.47L18.64 3.47L18.64 3.47Q18.16 3.91 17.78 4.59L17.78 4.59L17.78 4.59Q19.05 7.42 19.98 9.98L19.98 9.98ZM34.82 6.92L34.82 6.92Q34.82 6.26 34.34 5.71L34.34 5.71L34.34 5.71Q33.87 5.17 33.14 4.63L33.14 4.63L33.14 4.63Q31.79 3.68 30.07 2.93L30.07 2.93L30.07 2.93Q29.88 4.12 29.51 6.50L29.51 6.50L29.51 6.50Q29.41 7.13 29.18 8.60L29.18 8.60L29.18 8.60Q28.95 10.07 28.74 11.21L28.74 11.21L28.74 11.21Q30.00 10.71 30.93 10.28L30.93 10.28L30.93 10.28Q31.85 9.86 32.69 9.35L32.69 9.35L32.69 9.35Q33.61 8.82 34.22 8.25L34.22 8.25L34.22 8.25Q34.82 7.67 34.82 6.92L34.82 6.92ZM34.82 4.21L34.82 4.21Q36.27 5.36 36.27 6.61L36.27 6.61L36.27 6.61Q36.27 6.79 36.23 7L36.23 7L36.23 7Q36.06 7.85 35.38 8.53L35.38 8.53L35.38 8.53Q34.69 9.20 33.66 9.86L33.66 9.86L33.66 9.86Q30.93 11.58 26.95 12.84L26.95 12.84L26.95 12.84Q26.77 12.89 26.59 12.89L26.59 12.89L26.59 12.89Q26.38 12.89 26.26 12.80L26.26 12.80L26.26 12.80Q26.14 12.71 26.14 12.57L26.14 12.57L26.14 12.57Q26.14 12.43 26.27 12.29L26.27 12.29L26.27 12.29Q26.40 12.14 26.66 12.04L26.66 12.04L27.26 11.80L27.26 11.80Q27.16 11.70 27.20 11.58L27.20 11.58L27.87 7.50L27.87 7.50Q28.27 4.96 28.71 2.42L28.71 2.42L28.73 2.35L28.73 2.35Q28.42 2.21 27.78 1.96L27.78 1.96L27.78 1.96Q27.58 1.88 27.58 1.74L27.58 1.74L27.58 1.74Q27.58 1.53 27.96 1.29L27.96 1.29L27.96 1.29Q28.35 1.06 28.69 1.06L28.69 1.06L28.69 1.06Q28.83 1.06 28.88 1.09L28.88 1.09L28.88 1.09Q30.94 1.93 32.30 2.60L32.30 2.60L32.30 2.60Q33.67 3.28 34.82 4.21L34.82 4.21ZM40.40 5.07L40.40 5.07Q39.69 5.61 39.24 6.83L39.24 6.83L39.24 6.83Q40.61 6.31 41.72 5.96L41.72 5.96L41.72 5.96Q41.26 5.32 40.78 5.10L40.78 5.10L40.78 5.10Q40.68 5.05 40.59 5.04L40.59 5.04L40.59 5.04Q40.50 5.03 40.49 5.03L40.49 5.03L40.49 5.03Q40.50 5.04 40.47 5.05L40.47 5.05L40.47 5.05Q40.43 5.07 40.40 5.07L40.40 5.07ZM40.46 4.07L40.46 4.07Q40.68 4.02 40.94 4.02L40.94 4.02L40.94 4.02Q42.28 4.02 43.37 5.82L43.37 5.82L43.37 5.82Q43.41 5.88 43.41 5.96L43.41 5.96L43.41 5.96Q43.41 6.12 43.22 6.29L43.22 6.29L43.22 6.29Q43.06 6.45 42.83 6.55L42.83 6.55L42.83 6.55Q41.43 7.17 38.93 8.02L38.93 8.02L38.93 8.02Q38.79 8.74 38.79 9.49L38.79 9.49L38.79 9.49Q38.79 9.84 38.81 10.00L38.81 10.00L38.81 10.00Q38.84 10.63 39.06 11.09L39.06 11.09L39.06 11.09Q39.13 11.24 39.26 11.38L39.26 11.38L39.26 11.38Q39.40 11.52 39.47 11.56L39.47 11.56L39.47 11.56Q39.51 11.59 39.61 11.59L39.61 11.59L39.61 11.59Q39.70 11.59 39.84 11.54L39.84 11.54L39.84 11.54Q39.97 11.48 40.14 11.38L40.14 11.38L40.14 11.38Q40.54 11.14 40.89 10.84L40.89 10.84L40.89 10.84Q41.24 10.53 41.73 10.04L41.73 10.04L41.73 10.04Q41.93 9.84 42.39 9.84L42.39 9.84L42.39 9.84Q42.64 9.84 42.82 9.92L42.82 9.92L42.82 9.92Q42.99 10.00 42.99 10.14L42.99 10.14L42.99 10.14Q42.99 10.26 42.85 10.42L42.85 10.42L42.85 10.42Q41.99 11.35 41.08 12.01L41.08 12.01L41.08 12.01Q40.17 12.67 39.26 12.67L39.26 12.67L39.26 12.67Q38.82 12.67 38.44 12.49L38.44 12.49L38.44 12.49Q37.81 12.19 37.53 11.55L37.53 11.55L37.53 11.55Q37.25 10.91 37.25 10.04L37.25 10.04L37.25 10.04Q37.25 9.39 37.42 8.53L37.42 8.53L37.31 8.55L37.20 8.60L37.20 8.60Q36.99 8.67 36.86 8.67L36.86 8.67L36.86 8.67Q36.67 8.67 36.55 8.57L36.55 8.57L36.55 8.57Q36.44 8.47 36.44 8.32L36.44 8.32L36.44 8.32Q36.44 8.13 36.59 7.96L36.59 7.96L36.59 7.96Q36.74 7.78 37.03 7.67L37.03 7.67L37.72 7.41L37.72 7.41Q37.84 7.01 38.09 6.38L38.09 6.38L38.09 6.38Q38.49 5.52 39.07 4.89L39.07 4.89L39.07 4.89Q39.66 4.26 40.46 4.07L40.46 4.07ZM48.64 4.09L48.64 4.09Q48.73 3.95 49.04 3.84L49.04 3.84L49.04 3.84Q49.34 3.74 49.60 3.74L49.60 3.74L49.60 3.74Q49.80 3.74 49.92 3.79L49.92 3.79L49.92 3.79Q50.04 3.85 50.04 3.98L50.04 3.98L50.04 3.98Q50.04 4.07 49.97 4.19L49.97 4.19L49.97 4.19Q48.82 6.10 48.04 7.99L48.04 7.99L48.04 7.99Q47.26 9.87 46.84 11.89L46.84 11.89L46.84 11.89Q46.79 12.15 46.45 12.37L46.45 12.37L46.45 12.37Q46.10 12.59 45.77 12.59L45.77 12.59L45.77 12.59Q45.39 12.59 45.29 12.29L45.29 12.29L45.29 12.29Q44.76 10.72 44.54 9.09L44.54 9.09L44.54 9.09Q44.32 7.46 44.14 4.87L44.14 4.87L44.13 4.58L44.13 4.58Q44.11 4.27 44.50 4.03L44.50 4.03L44.50 4.03Q44.88 3.79 45.26 3.79L45.26 3.79L45.26 3.79Q45.63 3.79 45.64 4.05L45.64 4.05L45.64 4.05Q45.67 4.38 45.67 4.58L45.67 4.58L45.67 4.62L45.67 4.62Q45.82 7.29 46.12 8.96L46.12 8.96L46.12 8.96Q47.08 6.19 48.64 4.09L48.64 4.09ZM52.04 5.98L52.04 5.98Q52.04 6.51 52.31 6.92L52.31 6.92L52.31 6.92Q52.58 7.32 52.98 7.60L52.98 7.60L52.98 7.60Q53.37 7.88 54.04 8.26L54.04 8.26L54.04 8.26Q54.95 8.78 55.43 9.20L55.43 9.20L55.43 9.20Q55.92 9.62 56.07 10.25L56.07 10.25L56.07 10.25Q56.13 10.53 56.13 10.65L56.13 10.65L56.13 10.65Q56.13 11.63 55.09 12.06L55.09 12.06L55.09 12.06Q54.05 12.49 52.74 12.49L52.74 12.49L52.74 12.49Q52.22 12.49 51.83 12.42L51.83 12.42L51.83 12.42Q51.37 12.33 50.87 12.09L50.87 12.09L50.87 12.09Q50.37 11.84 50.04 11.49L50.04 11.49L50.04 11.49Q49.71 11.13 49.71 10.75L49.71 10.75L49.71 10.75Q49.71 10.16 50.62 9.67L50.62 9.67L50.62 9.67Q50.88 9.55 51.11 9.55L51.11 9.55L51.11 9.55Q51.34 9.55 51.48 9.65L51.48 9.65L51.48 9.65Q51.63 9.74 51.63 9.88L51.63 9.88L51.63 9.88Q51.63 10.14 51.23 10.37L51.23 10.37L51.23 10.37Q51.14 10.42 51.14 10.50L51.14 10.50L51.14 10.50Q51.14 10.67 51.41 10.91L51.41 10.91L51.41 10.91Q51.67 11.14 51.83 11.23L51.83 11.23L51.83 11.23Q52.25 11.47 53.17 11.52L53.17 11.52L53.17 11.52Q53.28 11.54 53.56 11.54L53.56 11.54L53.56 11.54Q54.07 11.54 54.38 11.37L54.38 11.37L54.38 11.37Q54.68 11.20 54.64 10.75L54.64 10.75L54.64 10.75Q54.59 10.15 53.42 9.39L53.42 9.39L52.89 9.06L52.89 9.06Q52.16 8.61 51.70 8.27L51.70 8.27L51.70 8.27Q51.23 7.92 50.89 7.44L50.89 7.44L50.89 7.44Q50.55 6.96 50.55 6.36L50.55 6.36L50.55 6.36Q50.55 5.98 50.69 5.60L50.69 5.60L50.69 5.60Q51.00 4.69 51.84 4.19L51.84 4.19L51.84 4.19Q52.68 3.70 53.65 3.70L53.65 3.70L53.65 3.70Q54.64 3.70 55.32 4.20L55.32 4.20L55.32 4.20Q56 4.70 56 5.63L56 5.63L56 5.63Q56 5.92 55.92 6.26L55.92 6.26L55.92 6.26Q55.86 6.51 55.50 6.69L55.50 6.69L55.50 6.69Q55.13 6.87 54.81 6.87L54.81 6.87L54.81 6.87Q54.61 6.87 54.51 6.79L54.51 6.79L54.51 6.79Q54.40 6.71 54.46 6.55L54.46 6.55L54.46 6.55Q54.54 6.26 54.54 5.96L54.54 5.96L54.54 5.96Q54.54 5.50 54.31 5.18L54.31 5.18L54.31 5.18Q54.07 4.86 53.61 4.73L53.61 4.73L53.61 4.73Q53.35 4.68 53.23 4.68L53.23 4.68L53.23 4.68Q52.72 4.68 52.38 5.03L52.38 5.03L52.38 5.03Q52.04 5.39 52.04 5.98L52.04 5.98Z"></path></g><!----><!----></svg>